<?xml version="1.0" encoding="UTF-8" standalone="no"?>
<svg
   xmlns:dc="http://purl.org/dc/elements/1.1/"
   xmlns:cc="http://creativecommons.org/ns#"
   xmlns:rdf="http://www.w3.org/1999/02/22-rdf-syntax-ns#"
   xmlns:svg="http://www.w3.org/2000/svg"
   xmlns="http://www.w3.org/2000/svg"
   xmlns:sodipodi="http://sodipodi.sourceforge.net/DTD/sodipodi-0.dtd"
   xmlns:inkscape="http://www.inkscape.org/namespaces/inkscape"
   width="94.222977mm"
   height="117.84615mm"
   viewBox="0 0 94.222977 117.84615"
   version="1.1"
   id="svg3383"
   inkscape:version="1.0.2 (e86c870879, 2021-01-15, custom)"
   sodipodi:docname="cat.svg">
  <defs
     id="defs3377" />
  <sodipodi:namedview
     id="base"
     pagecolor="#ffffff"
     bordercolor="#666666"
     borderopacity="1.0"
     inkscape:pageopacity="0.0"
     inkscape:pageshadow="2"
     inkscape:zoom="0.35"
     inkscape:cx="318.05916"
     inkscape:cy="725.55843"
     inkscape:document-units="mm"
     inkscape:current-layer="layer1"
     inkscape:document-rotation="0"
     showgrid="false"
     inkscape:window-width="1471"
     inkscape:window-height="967"
     inkscape:window-x="182"
     inkscape:window-y="154"
     inkscape:window-maximized="0" />
  <metadata
     id="metadata3380">
    <rdf:RDF>
      <cc:Work
         rdf:about="">
        <dc:format>image/svg+xml</dc:format>
        <dc:type
           rdf:resource="http://purl.org/dc/dcmitype/StillImage" />
        <dc:title></dc:title>
      </cc:Work>
    </rdf:RDF>
  </metadata>
  <g
     inkscape:label="Vrstva 1"
     inkscape:groupmode="layer"
     id="layer1"
     transform="translate(-21.68018,43.804)">
    <path
       style="fill:#f9f9f9;fill-opacity:1;stroke:none;stroke-width:2.25;stroke-miterlimit:4;stroke-dasharray:none"
       id="path2655"
       d="m 65.16924,52.0159 c 1.81491,-0.2416 3.5148,-1.1166 5.08868,-2.0169 7.42638,-4.2479 5.80128,-3.2549 9.9577,-5.8706 4.14231,-2.6917 8.07206,-5.6906 11.58562,-9.1657 2.36437,-2.3203 4.62235,-4.7484 6.5095,-7.4742 1.72463,-2.4886 3.04334,-5.2393 3.95046,-8.1229 0.79769,-2.2932 1.12004,-4.6888 1.31035,-7.0961 0.11134,-1.9317 0.092,-3.8677 0.0999,-5.8017 -0.0907,-1.6808 0.49268,-3.2672 1.04497,-4.8258 0.69638,-1.8916 2.0239,-3.3384 3.50099,-4.6566 2.23883,-1.5906 4.38359,-3.3076 6.65144,-4.8568 0.34478,-0.2196 0.68956,-0.4391 1.03431,-0.6586 0,0 -7.19923,2.8078 -7.19923,2.8078 v 0 c -0.33991,0.2262 -0.67979,0.4524 -1.01968,0.6786 -2.24853,1.5949 -4.4478,3.2647 -6.61829,4.9629 -1.47701,1.4427 -2.75756,3.0254 -3.39656,5.0242 -0.54745,1.6418 -1.07042,3.3058 -0.93683,5.0615 0.0151,1.9113 0.0185,3.8246 -0.10261,5.733 -0.18389,2.3477 -0.55867,4.6713 -1.33424,6.9046 -0.95168,2.8195 -2.29039,5.5039 -4.04844,7.9126 -1.90416,2.627 -4.11385,5.013 -6.42493,7.2868 -3.56534,3.4071 -7.4839,6.4041 -11.66522,9.0227 -2.93536,1.8065 -3.78515,2.301 3.05732,-1.659 0.48604,-0.2813 -0.97886,0.551 -1.47635,0.8115 -0.98632,0.5165 -1.48143,0.7502 -2.48777,1.1343 -0.23699,0.091 -0.48065,0.1624 -0.72097,0.2435 0,0 -6.36013,4.6209 -6.36013,4.6209 z" />
    <ellipse
       style="fill:#ececec;fill-opacity:1;stroke:none;stroke-width:2.17485;stroke-miterlimit:4;stroke-dasharray:none"
       id="path2448"
       cx="60.004761"
       cy="25.084187"
       rx="19.293068"
       ry="38.115005" />
    <path
       style="fill:#000000;fill-opacity:1;stroke:none;stroke-width:2.25;stroke-miterlimit:4;stroke-dasharray:none"
       id="path2258-0"
       d="m 35.36414,-41.6424 c -1.04016,3.9199 -1.94871,7.8675 -2.74193,11.8451 -0.4862,2.6157 -0.87781,5.2475 -1.18123,7.8904 -0.17555,1.5289 -0.32944,2.9321 -0.35722,4.4717 -0.0132,0.7283 0.0276,1.4564 0.0414,2.1846 0.0977,0.7825 0.13068,1.5758 0.29316,2.3475 0.82714,3.9282 2.83125,8.0514 4.95067,11.4356 0.55758,0.8904 1.18271,1.7365 1.77408,2.6048 2.21488,2.958 4.83905,5.6306 8.05355,7.4987 1.78795,1.0391 2.7014,1.3315 4.60692,2.104 4.14047,1.4617 8.50604,2.1157 12.87392,2.3725 1.47526,-0.052 2.98293,-0.1459 4.39062,-0.638 0.47943,-0.1676 0.95211,-0.364 1.39526,-0.6121 4.26807,-2.3892 3.44892,-1.8397 5.96177,-3.8292 2.82996,-2.6921 5.3181,-5.7546 7.3896,-9.0674 0.39789,-0.6364 0.75579,-1.2968 1.13369,-1.9452 1.90278,-3.5023 2.72735,-7.3966 3.46189,-11.2726 0.5397,-3.235 0.78708,-6.5061 0.91652,-9.7799 0.0324,-1.6377 0.092,-3.2821 -0.0172,-4.9187 -0.0396,-0.5936 -0.16217,-1.513 -0.23649,-2.1101 -0.19245,-1.8322 -0.53268,-3.6405 -0.95324,-5.4321 -0.32623,-1.309 -0.67775,-2.6108 -1.00324,-3.92 -0.19487,-0.911 -0.37942,-1.8248 -0.49705,-2.7495 -0.097,-0.3292 -0.41923,-0.8031 -0.85222,-0.5632 -3.09999,1.717 -3.13981,1.4268 -4.53507,3.2484 -0.1724,0.2303 -0.34867,0.4577 -0.51718,0.6908 -0.66064,0.9139 -1.31498,1.818 -2.05192,2.6745 -0.73621,0.8556 -0.93094,1.0256 -1.72109,1.8261 -1.05032,1.0299 -2.1631,1.9734 -3.42149,2.7382 -0.29538,0.1795 -1.19345,0.6981 -0.89643,0.5213 0.81023,-0.4822 1.62404,-0.9585 2.43604,-1.4377 -1.28529,0.7485 -2.66737,1.2979 -4.01521,1.9183 -1.11437,0.534 -2.18157,1.163 -3.36124,1.5446 -1.70029,0.3611 -3.47069,0.2869 -5.20131,0.2857 -0.84793,-0.053 -1.71106,0.05 -2.55709,-0.05 -0.39672,-0.047 -0.56639,-0.1172 -0.95356,-0.2336 -1.25066,-0.6119 -2.55614,-1.0651 -3.88906,-1.4586 -1.41898,-0.3906 -2.84816,-0.7423 -4.25825,-1.1648 -1.118,-0.3521 -2.23362,-0.7164 -3.32701,-1.1396 -1.11543,-0.449 -2.18114,-1.0214 -3.14573,-1.7396 -0.71533,-0.4928 -1.27233,-1.136 -1.73916,-1.8604 -0.5029,-0.9107 -0.78724,-1.9189 -1.09181,-2.9076 -0.27225,-1.0963 -0.8165,-2.0653 -1.37347,-3.0337 -0.0844,-0.1669 -0.16889,-0.3339 -0.25332,-0.5008 0,0 -3.36383,1.9142 -3.36383,1.9142 v 0 c 0.0858,0.1757 0.17169,0.3514 0.25752,0.527 0.54827,0.939 1.0791,1.8849 1.33929,2.9527 0.317,1.023 0.6031,2.0666 1.11938,3.0124 0.48911,0.7685 1.07111,1.4525 1.83184,1.9688 0.98872,0.7331 2.07158,1.3371 3.2004,1.826 1.1045,0.4422 2.23824,0.8038 3.37817,1.1429 1.40761,0.4294 2.82919,0.811 4.25617,1.1704 1.32464,0.3836 2.63925,0.7931 3.85035,1.4693 0.30549,0.1093 0.68305,0.26 1.00674,0.3154 0.86577,0.1481 1.7658,-0.04 2.63557,0.027 1.03473,-0.01 2.06941,-0.017 3.10409,-0.029 0.37007,0 1.20348,0 1.62536,-0.043 0.1574,-0.015 0.31231,-0.049 0.46847,-0.073 1.22769,-0.3335 2.32373,-0.9588 3.44818,-1.5413 1.3507,-0.6312 2.75439,-1.1469 4.04011,-1.9101 1.59266,-0.9052 4.14729,-2.195 5.83642,-3.4466 0.89106,-0.6603 1.68373,-1.4374 2.48068,-2.2047 0.79449,-0.8263 0.96581,-0.9793 1.71217,-1.8577 0.74213,-0.8735 1.40888,-1.7977 2.10278,-2.7081 0.17986,-0.236 0.36877,-0.4649 0.55316,-0.6974 0.1438,-0.1698 0.28025,-0.3461 0.4314,-0.5094 0.13237,-0.143 0.59426,-0.4921 0.41823,-0.4085 -1.00653,0.4779 -1.93926,1.0995 -2.93338,1.6028 -0.10044,0.051 0.30882,-0.343 0.36123,-0.3052 0.0784,0.057 0.0781,0.1768 0.11711,0.2652 0.13912,0.9325 0.31485,1.8609 0.54419,2.7755 0.35031,1.2972 0.68017,2.599 1.0346,3.8951 0.4345,1.7716 0.76192,3.5653 0.96438,5.3793 0.088,0.6698 0.19349,1.3961 0.24022,2.0697 0.11263,1.6236 0.0632,3.2541 0.0354,4.8793 -0.0965,3.2441 -0.29392,6.4918 -0.86598,9.6919 -0.18796,0.994 -0.48805,2.6404 -0.71927,3.6226 -0.61246,2.602 -1.47653,5.1436 -2.73293,7.5091 -0.37396,0.6387 -0.72766,1.2897 -1.12191,1.916 -2.08847,3.3177 -4.60323,6.3857 -7.52714,8.9993 -0.47402,0.36 -1.96106,0.8273 -1.4221,1.08 0.601,0.2818 1.20729,-0.5615 1.76707,-0.9183 0.41984,-0.2676 -0.88091,0.4692 -1.34504,0.6493 -0.9008,0.3495 -1.85208,0.5161 -2.80575,0.6319 -0.5163,0.063 -1.03658,0.087 -1.55487,0.1303 C 62.28236,10.8016 57.89959,10.2223 53.74341,8.7722 51.88199,8.0349 50.91478,7.7271 49.16583,6.7316 45.96596,4.9104 43.31079,2.3223 41.10088,-0.5995 c -0.59124,-0.858 -1.21793,-1.6926 -1.77369,-2.574 -2.18498,-3.4652 -4.01002,-7.3287 -4.7512,-11.3833 -0.14052,-0.7686 -0.16616,-1.5538 -0.24924,-2.3308 -0.0116,-0.7195 -0.049,-1.4392 -0.035,-2.1587 0.0805,-4.1244 0.7801,-8.2238 1.48087,-12.2764 0.83079,-4.0552 1.79121,-8.0781 3.10248,-12.0081 0,0 -3.51091,1.6898 -3.51091,1.6898 z" />
    <path
       style="fill:#f9f9f9;fill-opacity:1;stroke-width:0.13779"
       d="M 65.42817,12.1835 C 57.64554,11.6633 51.19136,9.5663 46.73071,6.1085 45.1061,4.8491 42.26172,1.8297 40.94307,-0.0353 c -3.75171,-5.306 -6.27658,-11.2339 -6.80257,-15.9708 -0.46485,-4.1865 0.31129,-11.9876 1.96745,-19.7746 0.87701,-4.1235 0.80283,-3.9398 1.14021,-2.8229 0.49084,1.6251 1.462,2.907 3.04243,4.0162 1.89484,1.3298 3.98077,2.1845 8.32332,3.4106 2.78868,0.7874 4.3983,1.3482 5.58232,1.9449 l 1.00886,0.5085 3.89158,0.042 c 2.43909,0.026 4.14498,-0.016 4.57057,-0.1113 0.37343,-0.084 1.61852,-0.6193 2.76687,-1.1896 1.14831,-0.5703 2.66293,-1.3194 3.36576,-1.6646 1.5995,-0.7857 5.34731,-2.989 6.86021,-4.0331 1.2186,-0.8409 4.68166,-4.3405 5.51154,-5.5696 0.24898,-0.3687 0.48783,-0.6687 0.53075,-0.6667 0.095,0 1.68969,6.6828 1.96745,8.2397 0.45584,2.5553 0.73368,5.6649 0.73368,8.2116 0,9.9822 -1.57038,18.764 -4.32547,24.189 -2.32871,4.5854 -7.34825,11.0614 -9.41932,12.1524 -0.31951,0.1684 -0.70202,0.4181 -0.84999,0.555 -0.14796,0.1368 -0.57168,0.3201 -0.94159,0.4074 -0.79953,0.1885 -2.954,0.4488 -3.43012,0.4144 -0.18496,-0.013 -0.63894,-0.045 -1.00884,-0.069 z"
       id="path2386" />
    <path
       style="fill:#f9f9f9;fill-opacity:1;stroke:none;stroke-width:2.25;stroke-miterlimit:4;stroke-dasharray:none"
       id="path2258"
       d="m 35.36414,-41.6424 c -1.04016,3.9199 -1.94871,7.8675 -2.74193,11.8451 -0.4862,2.6157 -0.87781,5.2475 -1.18123,7.8904 -0.17555,1.5289 -0.32944,2.9321 -0.35722,4.4717 -0.0132,0.7283 0.0276,1.4564 0.0414,2.1846 0.0977,0.7825 0.13068,1.5758 0.29316,2.3475 0.82714,3.9282 2.83125,8.0514 4.95067,11.4356 0.55758,0.8904 1.18271,1.7365 1.77408,2.6048 2.21488,2.958 4.83905,5.6306 8.05355,7.4987 1.78795,1.0391 2.7014,1.3315 4.60692,2.104 4.14047,1.4617 8.50604,2.1157 12.87392,2.3725 1.47526,-0.052 2.98293,-0.1459 4.39062,-0.638 0.47943,-0.1676 0.95211,-0.364 1.39526,-0.6121 4.26807,-2.3892 3.44892,-1.8397 5.96177,-3.8292 2.82996,-2.6921 5.3181,-5.7546 7.3896,-9.0674 0.39789,-0.6364 0.75579,-1.2968 1.13369,-1.9452 1.90278,-3.5023 2.72735,-7.3966 3.46189,-11.2726 0.5397,-3.235 0.78708,-6.5061 0.91652,-9.7799 0.0324,-1.6377 0.092,-3.2821 -0.0172,-4.9187 -0.0396,-0.5936 -0.16217,-1.513 -0.23649,-2.1101 -0.19245,-1.8322 -0.53268,-3.6405 -0.95324,-5.4321 -0.32623,-1.309 -0.67775,-2.6108 -1.00324,-3.92 -0.19487,-0.911 -0.37942,-1.8248 -0.49705,-2.7495 -0.097,-0.3292 -0.41923,-0.8031 -0.85222,-0.5632 -3.09999,1.717 -3.13981,1.4268 -4.53507,3.2484 -0.1724,0.2303 -0.34867,0.4577 -0.51718,0.6908 -0.66064,0.9139 -1.31498,1.818 -2.05192,2.6745 -0.73621,0.8556 -0.93094,1.0256 -1.72109,1.8261 -1.05032,1.0299 -2.1631,1.9734 -3.42149,2.7382 -0.29538,0.1795 -1.19345,0.6981 -0.89643,0.5213 0.81023,-0.4822 1.62404,-0.9585 2.43604,-1.4377 -1.28529,0.7485 -2.66737,1.2979 -4.01521,1.9183 -1.11437,0.534 -2.18157,1.163 -3.36124,1.5446 -1.70029,0.3611 -3.47069,0.2869 -5.20131,0.2857 -0.84793,-0.053 -1.71106,0.05 -2.55709,-0.05 -0.39672,-0.047 -0.56639,-0.1172 -0.95356,-0.2336 -1.25066,-0.6119 -2.55614,-1.0651 -3.88906,-1.4586 -1.41898,-0.3906 -2.84816,-0.7423 -4.25825,-1.1648 -1.118,-0.3521 -2.23362,-0.7164 -3.32701,-1.1396 -1.11543,-0.449 -2.18114,-1.0214 -3.14573,-1.7396 -0.71533,-0.4928 -1.27233,-1.136 -1.73916,-1.8604 -0.5029,-0.9107 -0.78724,-1.9189 -1.09181,-2.9076 -0.27225,-1.0963 -0.8165,-2.0653 -1.37347,-3.0337 -0.0844,-0.1669 -0.16889,-0.3339 -0.25332,-0.5008 l -3.36383,1.9142 v 0 c 0.0858,0.1757 0.17169,0.3514 0.25752,0.527 0.54827,0.939 1.0791,1.8849 1.33929,2.9527 0.317,1.023 0.6031,2.0666 1.11938,3.0124 0.48911,0.7685 1.07111,1.4525 1.83184,1.9688 0.98872,0.7331 2.07158,1.3371 3.2004,1.826 1.1045,0.4422 2.23824,0.8038 3.37817,1.1429 1.40761,0.4294 2.82919,0.811 4.25617,1.1704 1.32464,0.3836 2.63925,0.7931 3.85035,1.4693 0.30549,0.1093 0.68305,0.26 1.00674,0.3154 0.86577,0.1481 1.7658,-0.04 2.63557,0.027 1.03473,-0.01 2.06941,-0.017 3.10409,-0.029 0.37007,0 1.20348,0 1.62536,-0.043 0.1574,-0.015 0.31231,-0.049 0.46847,-0.073 1.22769,-0.3335 2.32373,-0.9588 3.44818,-1.5413 1.3507,-0.6312 2.75439,-1.1469 4.04011,-1.9101 1.59266,-0.9052 4.14729,-2.195 5.83642,-3.4466 0.89106,-0.6603 1.68373,-1.4374 2.48068,-2.2047 0.79449,-0.8263 0.96581,-0.9793 1.71217,-1.8577 0.74213,-0.8735 1.40888,-1.7977 2.10278,-2.7081 0.17986,-0.236 0.36877,-0.4649 0.55316,-0.6974 0.1438,-0.1698 0.28025,-0.3461 0.4314,-0.5094 0.13237,-0.143 0.59426,-0.4921 0.41823,-0.4085 -1.85386,1.069 -2.61538,1.0847 -2.45504,1.5628 0.13912,0.9325 0.31485,1.8609 0.54419,2.7755 0.35031,1.2972 0.68017,2.599 1.0346,3.8951 0.4345,1.7716 0.76192,3.5653 0.96438,5.3793 0.088,0.6698 0.19349,1.3961 0.24022,2.0697 0.11263,1.6236 0.0632,3.2541 0.0354,4.8793 -0.0965,3.2441 -0.29392,6.4918 -0.86598,9.6919 -0.18796,0.994 -0.48805,2.6404 -0.71927,3.6226 -0.61246,2.602 -1.47653,5.1436 -2.73293,7.5091 -0.37396,0.6387 -0.72766,1.2897 -1.12191,1.916 -2.08847,3.3177 -4.60323,6.3857 -7.52714,8.9993 -0.47402,0.36 -1.96106,0.8273 -1.4221,1.08 0.601,0.2818 1.20729,-0.5615 1.76707,-0.9183 0.41984,-0.2676 -0.88091,0.4692 -1.34504,0.6493 -0.9008,0.3495 -1.85208,0.5161 -2.80575,0.6319 -0.5163,0.063 -1.03658,0.087 -1.55487,0.1303 C 62.28236,10.8016 57.89959,10.2223 53.74341,8.7722 51.88199,8.0349 50.91478,7.7271 49.16583,6.7316 45.96596,4.9104 43.31079,2.3223 41.10088,-0.5995 c -0.59124,-0.858 -1.21793,-1.6926 -1.77369,-2.574 -2.18498,-3.4652 -4.01002,-7.3287 -4.7512,-11.3833 -0.14052,-0.7686 -0.16616,-1.5538 -0.24924,-2.3308 -0.0116,-0.7195 -0.049,-1.4392 -0.035,-2.1587 0.0805,-4.1244 0.7801,-8.2238 1.48087,-12.2764 0.83079,-4.0552 1.79121,-8.0781 3.10248,-12.0081 l -3.51091,1.6898 z"
       sodipodi:nodetypes="ccsscsscsccsscscccsccccccsscssccccsccccccccccsccccccccsccccccscsscscccccsccscscssscccscsscscccc" />
    <ellipse
       style="fill:#ffffff;fill-opacity:1;stroke-width:0.225573"
       id="path2080-5-9"
       cx="71.041138"
       cy="-18.033733"
       rx="5.5478153"
       ry="4.6908765" />
    <ellipse
       style="fill:#ffffff;fill-opacity:1;stroke-width:0.216966"
       id="path2080-6"
       cx="49.082214"
       cy="-17.908367"
       rx="5.8785443"
       ry="4.0955639" />
    <ellipse
       style="fill:#7fff2a;fill-opacity:1;stroke-width:0.410447"
       id="path2042-3-0"
       cx="48.971497"
       cy="-18.088665"
       rx="3.350136"
       ry="3.948375" />
    <ellipse
       style="fill:#7fff2a;fill-opacity:1;stroke-width:0.429548"
       id="path2042-8-3-3"
       cx="70.976135"
       cy="-18.165813"
       rx="3.5060432"
       ry="4.132123" />
    <ellipse
       style="fill:#000000;fill-opacity:1;stroke-width:0.264583"
       id="path2042-8-3"
       cx="71.085083"
       cy="-18.196331"
       rx="2.1595719"
       ry="2.5452099" />
    <ellipse
       style="fill:#000000;fill-opacity:1;stroke-width:0.264583"
       id="path2042-3"
       cx="49.080444"
       cy="-18.119183"
       rx="2.1595719"
       ry="2.5452099" />
    <path
       style="fill:#000000;fill-opacity:1;stroke-width:0.264583"
       id="path2316"
       d="m 56.02003,-27.5065 c 0.54046,0.4716 1.12879,0.8953 1.56429,1.4707 0.39212,0.6372 0.57968,1.3681 0.81616,2.0707 0.28086,1.0508 0.48422,2.1161 0.82505,3.1506 0.184,0.4167 0.29414,1.2694 0.73309,1.5163 0.061,0.034 0.13422,0.04 0.20132,0.06 0.84582,-0.5319 1.7268,-1.0115 2.53746,-1.5955 0.0641,-0.046 0.2831,-0.7825 0.28345,-0.7837 0.1675,-0.5636 0.32228,-1.1314 0.48768,-1.6957 0.24503,-0.9119 0.51495,-1.8266 0.91474,-2.6841 0.2685,-0.4505 0.56941,-0.8829 0.8718,-1.3116 0.27559,-0.3982 0.68678,-0.7598 0.80246,-1.248 0.0214,-0.09 0.0196,-0.1838 0.0292,-0.2757 -0.0362,-0.4897 -0.31687,-0.8415 -0.79015,-0.9562 -1.77887,0.2726 -2.97773,1.2971 -3.56825,2.7967 -0.23635,0.7443 -0.48512,1.4829 -0.74213,2.2206 -0.14211,0.3729 -0.21992,0.7822 -0.40452,1.1389 -0.11928,0.2304 -0.26271,0.4475 -0.39037,0.6734 -0.24654,0.3594 -0.38502,0.7876 -0.63619,1.1438 -0.0445,0.063 -0.22786,0.2045 -0.16058,0.1667 2.2854,-1.2817 2.11,-0.4949 2.30214,-1.3904 -0.11141,-0.642 -0.10075,-1.2978 -0.0973,-1.9472 0.0353,-0.6002 -0.0222,-1.1924 -0.0828,-1.7882 -0.0583,-0.5694 -0.0767,-1.1414 -0.0853,-1.7133 -6e-5,-0.01 -0.019,-0.3585 0.0309,-0.397 0.0349,-0.027 0.16364,0.017 0.12604,0.04 -0.77356,0.4722 -1.59652,0.86 -2.37103,1.3307 -0.0272,0.016 0.0475,0.044 0.0631,0.072 0.0281,0.05 0.0442,0.1058 0.0663,0.1587 0.15529,0.6383 0.292,1.2874 0.29303,1.9464 -0.0167,0.059 -0.009,0.1318 -0.0497,0.1782 -0.0243,0.028 -0.14179,0.024 -0.11054,0 0.75504,-0.4731 1.56017,-0.8668 2.2938,-1.3725 0.0503,-0.035 -0.10247,-0.067 -0.14988,-0.1053 -0.15875,-0.1289 -0.20389,-0.1882 -0.34132,-0.3369 -0.32758,-0.3317 -0.63386,-0.6833 -0.95567,-1.0203 -0.37566,-0.3402 -0.73467,-0.6956 -1.08633,-1.0601 -0.77946,-1.0607 -2.809,-1.0459 -3.04429,1.0468 -0.0718,0.4046 0.0987,0.6355 -0.31144,0.8515 0.75065,-0.4454 1.50309,-0.8878 2.25194,-1.3363 0.0351,-0.021 -0.0719,0.04 -0.11043,0.054 -0.17323,0.063 -0.27861,-0.055 -0.39045,-0.1685 -0.21794,-0.3441 -0.41209,-0.7015 -0.6708,-1.019 -1.10558,-1.3701 -0.17989,-1.0724 -2.95576,0.7398 0.3153,0.5119 0.68402,0.9882 1.0655,1.4519 0.53446,0.6173 1.12678,1.1783 1.66759,1.7894 0.42508,0.5208 0.8649,1.0283 1.23431,1.591 0.31538,0.4446 0.52882,0.9458 0.78179,1.4253 0.27207,0.3713 0.41156,0.7952 0.55808,1.2234 0.12507,0.4269 0.2989,0.8369 0.4326,1.2609 0.0581,0.1893 0.0857,0.3849 0.11189,0.5804 0,0 2.45126,-1.2952 2.45126,-1.2952 v 0 c -0.0343,-0.2087 -0.0705,-0.4173 -0.137,-0.6189 -0.14087,-0.4229 -0.30694,-0.8372 -0.43193,-1.2656 -0.14918,-0.4424 -0.31615,-0.8713 -0.58857,-1.2563 -0.25715,-0.4873 -0.47622,-0.9952 -0.8006,-1.4446 -0.37616,-0.575 -0.8349,-1.0843 -1.26606,-1.6177 -0.53615,-0.6111 -1.14104,-1.1551 -1.65822,-1.784 -0.36148,-0.4398 -0.71298,-0.8945 -0.98814,-1.3942 -4.16992,2.2048 -2.93725,0.5788 -2.27216,1.4607 0.14324,0.19 0.26037,0.3999 0.42367,0.5748 0.26369,0.3207 0.44662,0.691 0.6681,1.0395 0.11689,0.1344 0.47755,0.5296 0.69919,0.4081 0.84407,-0.4626 1.66354,-0.9688 2.49531,-1.4532 0.20124,-0.2963 0.1587,-0.6263 0.27639,-0.9519 0.90588,-0.4602 -0.72258,0.3666 -2.30275,1.2103 -0.0204,0.011 0.0456,-0.021 0.0679,-0.015 0.0804,0.023 0.19171,0.1444 0.23788,0.193 0.0503,0.053 0.0972,0.1091 0.14576,0.1637 0.35976,0.355 0.70887,0.7206 1.08239,1.062 0.33046,0.3244 0.62288,0.6845 0.95551,1.007 0.0414,0.046 0.52705,0.5597 0.54388,0.5532 2.06034,-0.7905 2.57421,-0.3859 2.62715,-1.6124 -0.0438,-0.6887 -0.1665,-1.3713 -0.32538,-2.0423 -0.0716,-0.1723 -0.16235,-0.4152 -0.21,-0.3965 -2.20321,0.8646 -2.62451,0.4326 -2.58186,1.807 0.018,0.5771 0.044,1.1541 0.10253,1.7287 0.0595,0.5873 0.0946,1.173 0.0716,1.7639 0.009,0.6878 0.003,1.3839 0.13314,2.0615 0.0508,0.098 0.0498,0.3364 0.15261,0.2951 2.69319,-1.0799 2.26404,-0.9723 3.25361,-2.6921 0.11419,-0.1965 0.30334,-0.5091 0.40097,-0.7227 0.16632,-0.3639 0.24032,-0.7678 0.38373,-1.1401 0.25873,-0.7319 0.47342,-1.4779 0.74956,-2.2031 0.1496,-0.3173 0.29991,-0.62 0.54647,-0.8761 0.0745,-0.077 0.33626,-0.2635 0.24093,-0.214 -1.90489,0.9891 -2.77529,1.7381 -1.96606,1.0578 0.36271,-0.074 0.57232,0.1972 0.56221,0.5499 -0.13737,0.555 -0.56198,0.9538 -0.88072,1.412 -0.30017,0.4376 -0.61619,0.8705 -0.83577,1.356 -0.34896,0.8773 -0.62653,1.7803 -0.86021,2.695 -0.16698,0.5635 -0.31684,1.138 -0.51686,1.6911 -0.43953,1.2153 -1.44172,1.451 1.85764,-0.4664 -0.0238,0.044 -0.0267,0.1092 -0.0711,0.1321 -0.1057,0.054 -0.2036,-0.1385 -0.26173,-0.2422 -0.19092,-0.3404 -0.28164,-0.7266 -0.4232,-1.0872 -0.34673,-1.0314 -0.56155,-2.0925 -0.82536,-3.1466 -0.22376,-0.7396 -0.4226,-1.5022 -0.83596,-2.1638 -0.43971,-0.5985 -1.05783,-1.0081 -1.58194,-1.5283 0,0 -2.34836,1.4607 -2.34836,1.4607 z" />
    <path
       style="fill:#808080;fill-opacity:1;stroke-width:0.264583"
       id="path2318"
       d="m 48.90398,-6.3233 c -1.03659,-0.062 -2.07449,-0.1015 -3.11219,-0.14 -0.87871,-0.083 -1.60187,0.01 -2.45975,0.1991 -1.04582,0.2807 -2.06841,0.6304 -3.04906,1.0894 -0.82494,0.4875 -1.72805,0.8348 -2.56003,1.3071 -0.94879,0.5387 -1.88836,1.0934 -2.83255,1.6402 -0.81351,0.5229 -1.6696,0.9746 -2.47025,1.518 -0.19939,0.148 -0.42574,0.2532 -0.63175,0.3903 -0.19307,0.1286 -0.37348,0.2754 -0.56639,0.4042 -0.0909,0.061 -0.37039,0.2323 -0.27562,0.1778 0.69115,-0.3979 1.37673,-0.8053 2.06513,-1.208 -0.59987,0.3625 -1.25275,0.609 -1.92583,0.7942 -0.67579,0.1968 -1.37043,0.2941 -2.06996,0.3516 -0.65434,0.054 -1.30289,0.066 -1.94641,-0.071 -0.42976,-0.099 -0.85871,-0.1979 -1.28577,-0.3077 -0.30684,-0.071 -0.5652,-0.244 -0.82979,-0.4049 -0.30593,-0.1926 -0.64005,-0.3282 -0.95199,-0.5104 0,0 -2.32159,1.5001 -2.32159,1.5001 v 0 c 0.30599,0.1935 0.63426,0.3341 0.94239,0.5219 0.29073,0.1639 0.55327,0.3756 0.87987,0.469 0.43437,0.099 0.86173,0.2211 1.30025,0.3032 0.14745,0.035 0.44971,0.11 0.59483,0.1301 0.46615,0.064 0.9388,0 1.4065,0 0.70747,-0.045 1.41571,-0.1186 2.09979,-0.3142 0.68392,-0.1564 1.35903,-0.3788 1.96524,-0.7383 0.87961,-0.5058 1.76274,-1.0056 2.6388,-1.5176 0.503,-0.2939 0.94887,-0.6869 1.46121,-0.9677 0.80296,-0.5173 1.63592,-0.9849 2.44383,-1.4942 -3.35582,1.91 -2.02195,1.1228 -1.28257,0.7537 0.58333,-0.2912 0.49702,-0.2208 1.07643,-0.5192 0.32165,-0.1657 0.63161,-0.3535 0.9548,-0.5163 0.96197,-0.4859 1.97631,-0.8337 3.00911,-1.138 0.42791,-0.098 0.87161,-0.2253 1.31183,-0.2573 0.36401,-0.026 0.73387,0.029 1.09815,0.011 1.0236,0.019 2.04896,0.043 3.06806,0.1473 0,0 2.25528,-1.6044 2.25528,-1.6044 z" />
    <path
       style="fill:#808080;fill-opacity:1;stroke-width:0.264583"
       id="path2320"
       d="m 46.5117,-2.3856 c -0.5982,0.032 -1.20658,-0.02 -1.8006,0.078 -0.39642,0.066 -0.5312,0.1356 -0.9039,0.2738 -2.36728,1.1915 -3.16486,1.7105 -4.66561,3.4905 -0.58345,0.8276 -1.09889,1.7004 -1.64375,2.5535 -0.64063,1.0142 -1.481,1.8456 -2.42109,2.5784 0.24209,-0.049 -1.58787,1.0192 -1.18777,0.7693 0.4363,-0.2725 0.96253,-0.4292 1.32054,-0.7986 0.27569,-0.2845 -0.70488,0.3621 -1.06254,0.5324 -0.60323,0.2873 -1.37203,0.6126 -1.99121,0.8796 -1.09378,0.5172 -2.24229,0.8387 -3.42894,1.0414 -0.99626,0.1489 -1.99766,0.2654 -2.99903,0.3745 -0.2499,0.028 -0.4998,0.057 -0.74969,0.085 0,0 -2.14908,1.5978 -2.14908,1.5978 v 0 c 0.24619,-0.027 0.49236,-0.053 0.73853,-0.08 0.99375,-0.093 1.98765,-0.195 2.97608,-0.3332 0.48078,-0.085 0.96767,-0.1504 1.44011,-0.277 0.72532,-0.1943 1.41959,-0.4877 2.11005,-0.778 2.59934,-1.128 5.20787,-2.3289 7.49466,-4.0221 0.92822,-0.7684 1.75596,-1.638 2.3979,-2.6647 0.53993,-0.8493 1.04693,-1.7235 1.66269,-2.5213 0.3424,-0.4007 0.68673,-0.7913 1.07614,-1.1481 0.71332,-0.6534 2.58019,-1.7514 -1.06061,0.4066 0.26586,-0.1171 0.57465,-0.2682 0.86035,-0.3341 0.56869,-0.1313 1.16451,-0.075 1.74125,-0.073 0,0 2.24552,-1.6315 2.24552,-1.6315 z" />
    <path
       style="fill:#808080;fill-opacity:1;stroke-width:0.264583"
       id="path2322"
       d="m 50.44057,0.4207 c -0.55618,0.031 -1.14326,0.1033 -1.64174,0.3753 -2.63361,1.4366 -2.01194,0.983 -3.23529,1.942 -0.9878,0.8918 -1.7299,2.0042 -2.38226,3.1537 -0.62794,1.1193 -1.13186,2.3048 -1.56935,3.5098 -0.30411,0.8258 -0.71678,1.6044 -1.09725,2.3964 -0.3723,0.8296 -0.9348,1.5058 -1.57311,2.1397 -0.69271,0.6213 -1.42478,1.196 -2.13722,1.7941 -0.88062,0.6119 -0.95716,0.6526 1.6874,-0.9536 0.0999,-0.061 -0.20942,0.104 -0.31684,0.1499 -0.52768,0.2258 -1.08532,0.3834 -1.6316,0.5552 -1.07635,0.3162 -0.53499,0.1535 -1.62402,0.4884 0,0 -2.10349,1.6271 -2.10349,1.6271 v 0 c 1.07636,-0.3359 0.54124,-0.1779 1.60507,-0.4751 1.85455,-0.5494 3.31446,-1.0247 4.91596,-2.4151 0.71668,-0.6015 1.45741,-1.1765 2.13506,-1.8226 0.62378,-0.6597 1.14789,-1.3824 1.52373,-2.2146 0.38592,-0.7947 0.80351,-1.5768 1.07998,-2.4192 0.4277,-1.1864 0.91805,-2.3559 1.55175,-3.4486 0.67302,-1.1292 1.4296,-2.2283 2.45758,-3.0668 0.84254,-0.5911 1.3316,-0.913 -1.42068,0.7443 -0.14239,0.086 0.29951,-0.1451 0.45406,-0.2063 0.34816,-0.138 0.70252,-0.213 1.07672,-0.2225 0,0 2.24554,-1.6315 2.24554,-1.6315 z" />
    <path
       style="fill:#808080;fill-opacity:1;stroke-width:0.264583"
       id="path2318-4"
       d="m 71.26464,-6.5233 c 1.03659,-0.062 2.07449,-0.1015 3.11219,-0.14 0.87871,-0.083 1.60187,0.01 2.45975,0.1991 1.04582,0.2807 2.06841,0.6304 3.04906,1.0894 0.82494,0.4875 1.72805,0.8348 2.56003,1.3071 0.94879,0.5387 1.88836,1.0934 2.83255,1.6402 0.81351,0.5229 1.6696,0.9746 2.47025,1.518 0.19939,0.148 0.42574,0.2532 0.63175,0.3903 0.19307,0.1286 0.37348,0.2754 0.56639,0.4042 0.0909,0.061 0.37039,0.2323 0.27562,0.1778 -0.69115,-0.3979 -1.37673,-0.8053 -2.06513,-1.208 0.59987,0.3625 1.25275,0.609 1.92583,0.7942 0.67579,0.1968 1.37043,0.2941 2.06996,0.3516 0.65434,0.054 1.30289,0.066 1.94641,-0.071 0.42976,-0.099 0.85871,-0.1979 1.28577,-0.3077 0.30684,-0.071 0.5652,-0.244 0.82979,-0.4049 0.30593,-0.1926 0.64005,-0.3282 0.95199,-0.5104 0,0 2.32159,1.5001 2.32159,1.5001 v 0 c -0.30599,0.1935 -0.63426,0.3341 -0.94239,0.5219 -0.29073,0.1639 -0.55327,0.3756 -0.87987,0.469 -0.43437,0.099 -0.86173,0.2211 -1.30025,0.3032 -0.14745,0.035 -0.44971,0.11 -0.59483,0.1301 -0.46615,0.064 -0.9388,0 -1.4065,0 C 92.65713,1.5859 91.94889,1.5123 91.26481,1.3167 90.58089,1.1603 89.90578,0.9379 89.29957,0.5784 c -0.87961,-0.5058 -1.76274,-1.0056 -2.6388,-1.5176 -0.503,-0.2939 -0.94887,-0.6869 -1.46121,-0.9677 -0.80296,-0.5173 -1.63592,-0.9849 -2.44383,-1.4942 3.35582,1.91 2.02195,1.1228 1.28257,0.7537 -0.58333,-0.2912 -0.49702,-0.2208 -1.07643,-0.5192 -0.32165,-0.1657 -0.63161,-0.3535 -0.9548,-0.5163 -0.96197,-0.4859 -1.97631,-0.8337 -3.00911,-1.138 -0.42791,-0.098 -0.87161,-0.2253 -1.31183,-0.2573 -0.36401,-0.026 -0.73387,0.029 -1.09815,0.011 -1.0236,0.019 -2.04896,0.043 -3.06806,0.1473 0,0 -2.25528,-1.6044 -2.25528,-1.6044 z" />
    <path
       style="fill:#808080;fill-opacity:1;stroke-width:0.264583"
       id="path2320-7"
       d="m 73.65692,-2.5856 c 0.5982,0.032 1.20658,-0.02 1.8006,0.078 0.39642,0.066 0.5312,0.1356 0.9039,0.2738 2.36728,1.1915 3.16486,1.7105 4.66561,3.4905 0.58345,0.8276 1.09889,1.7004 1.64375,2.5535 0.64063,1.0142 1.481,1.8456 2.42109,2.5784 -0.24209,-0.049 1.58787,1.0192 1.18777,0.7693 -0.4363,-0.2725 -0.96253,-0.4292 -1.32054,-0.7986 -0.27569,-0.2845 0.70488,0.3621 1.06254,0.5324 0.60323,0.2873 1.37203,0.6126 1.99121,0.8796 1.09378,0.5172 2.24229,0.8387 3.42894,1.0414 0.99626,0.1489 1.99766,0.2654 2.99903,0.3745 0.2499,0.028 0.4998,0.057 0.74969,0.085 0,0 2.14908,1.5978 2.14908,1.5978 v 0 C 97.0934,10.843 96.84723,10.817 96.60106,10.79 95.60731,10.697 94.61341,10.595 93.62498,10.4568 93.1442,10.3718 92.65731,10.3064 92.18487,10.1798 91.45955,9.9855 90.76528,9.6921 90.07482,9.4018 87.47548,8.2738 84.86695,7.0729 82.58016,5.3797 81.65194,4.6113 80.8242,3.7417 80.18226,2.715 79.64233,1.8657 79.13533,0.9915 78.51957,0.1937 c -0.3424,-0.4007 -0.68673,-0.7913 -1.07614,-1.1481 -0.71332,-0.6534 -2.58019,-1.7514 1.06061,0.4066 -0.26586,-0.1171 -0.57465,-0.2682 -0.86035,-0.3341 -0.56869,-0.1313 -1.16451,-0.075 -1.74125,-0.073 0,0 -2.24552,-1.6315 -2.24552,-1.6315 z" />
    <path
       style="fill:#808080;fill-opacity:1;stroke-width:0.264583"
       id="path2322-8"
       d="m 69.72805,0.2207 c 0.55618,0.031 1.14326,0.1033 1.64174,0.3753 2.63361,1.4366 2.01194,0.983 3.23529,1.942 0.9878,0.8918 1.7299,2.0042 2.38226,3.1537 0.62794,1.1193 1.13186,2.3048 1.56935,3.5098 0.30411,0.8258 0.71678,1.6044 1.09725,2.3964 0.3723,0.8296 0.9348,1.5058 1.57311,2.1397 0.69271,0.6213 1.42478,1.196 2.13722,1.7941 0.88062,0.6119 0.95716,0.6526 -1.6874,-0.9536 -0.0999,-0.061 0.20942,0.104 0.31684,0.1499 0.52768,0.2258 1.08532,0.3834 1.6316,0.5552 1.07635,0.3162 0.53499,0.1535 1.62402,0.4884 0,0 2.10349,1.6271 2.10349,1.6271 v 0 C 86.27646,17.0628 86.81158,17.2208 85.74775,16.9236 83.8932,16.3742 82.43329,15.8989 80.83179,14.5085 80.11511,13.907 79.37438,13.332 78.69673,12.6859 78.07295,12.0262 77.54884,11.3035 77.173,10.4713 76.78708,9.6766 76.36949,8.8945 76.09302,8.0521 75.66532,6.8657 75.17497,5.6962 74.54127,4.6035 73.86825,3.4743 73.11167,2.3752 72.08369,1.5367 71.24115,0.9456 70.75209,0.6237 73.50437,2.281 73.64676,2.367 73.20486,2.1359 73.05031,2.0747 72.70215,1.9367 72.34779,1.8617 71.97359,1.8522 c 0,0 -2.24554,-1.6315 -2.24554,-1.6315 z" />
    <path
       style="fill:#ffaaaa;fill-opacity:1;stroke-width:0.480945"
       d="m 57.04321,-2.7561 c -0.97903,-1.4471 -2.31662,-3.2027 -2.97247,-3.9013 -2.27196,-2.4203 -2.4913,-2.3199 4.46411,-2.0437 3.5418,0.1407 6.52516,0.3115 6.62969,0.3797 0.10453,0.068 -1.27949,1.9401 -3.07561,4.1601 l -3.26559,4.0363 z"
       id="path2360" />
    <path
       style="fill:#808080;fill-opacity:1;stroke-width:0.264583"
       id="path2362"
       d="m 57.9676,0.1528 c -0.17259,0.3668 -0.36187,0.7258 -0.5484,1.0858 -0.20426,0.4049 -0.40529,0.811 -0.63559,1.202 -0.25691,0.3955 -0.52091,0.7868 -0.81949,1.1522 -0.3171,0.3823 -0.67635,0.724 -1.07056,1.0252 -0.0667,0.049 -0.13253,0.099 -0.20026,0.1462 -0.0737,0.052 -0.14743,0.1032 -0.22386,0.1506 -0.0771,0.048 -0.31391,0.1823 -0.23644,0.135 0.18709,-0.1143 0.37884,-0.2209 0.56545,-0.336 0.0766,-0.047 -0.15733,0.087 -0.23535,0.1324 -0.34811,0.2001 -0.69538,0.4017 -1.04307,0.6026 0.19061,-0.1102 0.38338,-0.2168 0.57179,-0.3307 0.0725,-0.044 -0.14864,0.082 -0.22397,0.1204 C 53.64978,5.351 53.4323,5.4441 53.19563,5.508 52.88299,5.566 52.56126,5.59 52.24585,5.545 52.06414,5.511 51.907,5.4222 51.75833,5.3167 c 0,0 -0.81907,0.5204 -0.81907,0.5204 v 0 c 0.15729,0.1145 0.32337,0.2161 0.51509,0.262 0.051,0.011 0.10134,0.025 0.15296,0.032 0.27119,0.036 0.5521,-0.014 0.82163,-0.038 C 53.1516,5.941 53.7625,5.4305 54.403,5.1097 54.21123,5.2201 54.01951,5.3306 53.82769,5.441 53.74949,5.486 53.98363,5.35 54.06208,5.3058 54.6416,4.977 55.24578,4.6789 55.77283,4.2664 56.16494,3.9548 56.5252,3.6061 56.8427,3.2178 57.13641,2.8481 57.39581,2.4526 57.65052,2.0554 57.88044,1.662 58.08412,1.255 58.28708,0.8473 c 0.1886,-0.3666 0.37682,-0.7335 0.57677,-1.094 0,0 -0.89625,0.3995 -0.89625,0.3995 z" />
    <path
       style="fill:#808080;fill-opacity:1;stroke-width:0.264583"
       id="path2364"
       d="m 58.6067,0.3973 c 0.0204,0.52 0.0193,1.0407 0.0156,1.5609 0,0.3537 -0.01,0.8185 0.21169,1.1192 0.0591,0.08 0.13528,0.1461 0.20294,0.2191 0.66,0.5121 1.37816,0.9492 2.12923,1.3138 0.74303,0.3063 1.55599,0.3557 2.35112,0.311 0.25463,-0.014 0.50792,-0.046 0.76186,-0.07 0.86524,-0.1165 1.75766,-0.23 2.56416,-0.5877 0.44215,-0.1961 1.27953,-0.7711 1.51212,-0.9192 0.34944,-0.3485 0.18547,-0.176 0.49377,-0.5155 0,0 -0.86344,0.3624 -0.86344,0.3624 v 0 c -0.30025,0.3283 -0.13888,0.1626 -0.48671,0.4946 0.15272,-0.069 0.30274,-0.2716 0.45818,-0.2084 0.14388,0.058 -0.265,0.1631 -0.40518,0.2299 C 66.74712,4.0911 65.84651,4.2216 64.97251,4.338 64.7247,4.36 64.47753,4.39 64.22909,4.403 63.45677,4.441 62.66688,4.378 61.94107,4.0981 61.19513,3.7528 60.47571,3.3362 59.84359,2.8076 59.78339,2.7396 59.71535,2.6779 59.66304,2.6037 59.45349,2.3065 59.47037,1.8739 59.46291,1.5299 c -0.003,-0.5256 -0.004,-1.0515 0.0156,-1.5769 0,0 -0.87196,0.4443 -0.87196,0.4443 z" />
    <path
       style="fill:#000000;fill-opacity:1;stroke-width:0.264583"
       id="path2392"
       d="m 63.58785,-28.4021 c -0.1996,0.1481 -0.41706,0.2693 -0.62928,0.3979 -0.27742,0.1873 -0.55965,0.3704 -0.81161,0.5913 -0.19418,0.1711 -0.33404,0.3883 -0.46482,0.6087 0,0 0.62142,-0.2755 0.62142,-0.2755 v 0 c 0.12962,-0.215 0.27136,-0.4229 0.46617,-0.5852 0.25943,-0.2129 0.53713,-0.4025 0.81992,-0.583 0.21765,-0.131 0.43736,-0.2593 0.64304,-0.4089 0,0 -0.64484,0.2547 -0.64484,0.2547 z" />
    <path
       style="fill:#000000;fill-opacity:1;stroke-width:0.264583"
       id="path2394"
       d="m 63.24622,-28.2907 c -0.19571,0.1632 -0.41934,0.2883 -0.61555,0.4501 -0.12081,0.1306 -0.18637,0.2929 -0.24871,0.4563 0,0 0.61656,-0.2855 0.61656,-0.2855 v 0 c 0.0642,-0.1567 0.13472,-0.3099 0.26466,-0.4244 0.20402,-0.1558 0.42249,-0.2921 0.62275,-0.4532 0,0 -0.63971,0.2567 -0.63971,0.2567 z" />
    <path
       style="fill:#ffaaaa;fill-opacity:1;stroke:none;stroke-width:0.562499;stroke-miterlimit:4;stroke-dasharray:none"
       d="m 35.61226,-27.159 c -0.0765,-0.2073 -0.29559,-1.6744 -0.36377,-2.4364 -0.0882,-0.9848 0.006,-3.6084 0.16782,-4.6964 0.12293,-0.8245 0.49869,-2.486 0.76769,-3.3945 0.29255,-0.988 1.50371,-3.6797 1.65693,-3.6823 0.076,0 0.41391,0.5249 0.7004,1.0906 0.41228,0.8142 0.59683,1.2516 0.90734,2.1509 0.15722,0.4553 0.52943,1.3483 0.82714,1.9843 0.69247,1.4796 1.04492,2.3067 1.35242,3.174 0.31038,0.8753 0.6214,1.4071 1.25666,2.1486 0.27631,0.3225 0.47927,0.609 0.45104,0.6366 -0.0282,0.028 -0.53435,0.1715 -1.12469,0.3196 -1.2959,0.3252 -1.55543,0.4241 -2.42155,0.923 -1.08328,0.6241 -1.70513,0.914 -2.36664,1.1033 -0.34142,0.098 -0.85887,0.3001 -1.14991,0.4497 -0.29104,0.1495 -0.55147,0.2821 -0.57875,0.2945 -0.0272,0.012 -0.0642,-0.017 -0.0821,-0.065 z"
       id="path2444" />
    <path
       style="fill:#ffaaaa;fill-opacity:1;stroke:none;stroke-width:0.562499;stroke-miterlimit:4;stroke-dasharray:none"
       d="m 86.47783,-27.3903 c -0.32663,-0.1905 -0.58087,-0.2672 -2.25888,-0.6816 -1.51225,-0.3735 -2.49434,-0.674 -2.94413,-0.9011 -0.49133,-0.248 -2.34386,-0.8491 -3.95819,-1.2844 -0.81857,-0.2207 -1.58821,-0.4333 -1.71037,-0.4724 l -0.22207,-0.071 0.42051,-0.2654 c 0.68823,-0.4343 1.03417,-0.7638 1.39829,-1.3318 0.78023,-1.2172 1.77443,-2.6612 2.6534,-3.8541 1.93236,-2.6225 2.49124,-3.399 2.85626,-3.9687 0.20656,-0.3224 0.51657,-0.8041 0.68889,-1.0705 l 0.31332,-0.4843 0.16643,0.4182 c 0.2201,0.5531 0.64611,1.9809 0.93395,3.1302 0.12758,0.5093 0.37036,1.3707 0.53951,1.9143 0.44318,1.424 0.92768,3.5797 1.19356,5.3103 0.0785,0.5108 0.24659,3.6981 0.19841,3.7612 -0.003,0 -0.12337,-0.064 -0.26889,-0.1487 z"
       id="path2446" />
    <rect
       style="fill:#f9f9f9;fill-opacity:1;stroke:none;stroke-width:2.29154;stroke-miterlimit:4;stroke-dasharray:none"
       id="rect2488"
       width="3.2837508"
       height="16.941168"
       x="67.084816"
       y="31.5154"
       transform="rotate(-8.2018379)" />
    <ellipse
       style="fill:#f9f9f9;fill-opacity:1;stroke:none;stroke-width:2.25;stroke-miterlimit:4;stroke-dasharray:none"
       id="path2490"
       cx="69.974892"
       cy="49.780903"
       rx="2.7128022"
       ry="2.4788821"
       transform="rotate(-8.2018379)" />
    <ellipse
       style="fill:#f9f9f9;fill-opacity:1;stroke:none;stroke-width:2.25;stroke-miterlimit:4;stroke-dasharray:none"
       id="path2490-3"
       cx="67.262123"
       cy="49.640522"
       rx="2.7128022"
       ry="2.4788821"
       transform="rotate(-8.2018379)" />
    <ellipse
       style="fill:#f9f9f9;fill-opacity:1;stroke:none;stroke-width:2.25;stroke-miterlimit:4;stroke-dasharray:none"
       id="path2490-4"
       cx="65.765419"
       cy="47.582661"
       rx="2.7128022"
       ry="2.4788821"
       transform="rotate(-8.2018379)" />
    <ellipse
       style="fill:#f9f9f9;fill-opacity:1;stroke:none;stroke-width:2.25;stroke-miterlimit:4;stroke-dasharray:none"
       id="path2490-5"
       cx="71.781593"
       cy="47.208515"
       rx="2.7128022"
       ry="2.4788821"
       transform="rotate(-8.2018379)" />
    <rect
       style="fill:#f9f9f9;fill-opacity:1;stroke:none;stroke-width:2.29154;stroke-miterlimit:4;stroke-dasharray:none"
       id="rect2488-4"
       width="3.2837508"
       height="16.941168"
       x="-49.904144"
       y="15.582539"
       transform="matrix(-0.98977166,-0.14266068,-0.14266068,0.98977166,0,0)" />
    <ellipse
       style="fill:#f9f9f9;fill-opacity:1;stroke:none;stroke-width:2.25;stroke-miterlimit:4;stroke-dasharray:none"
       id="path2490-55"
       cx="-47.014008"
       cy="33.848042"
       rx="2.7128022"
       ry="2.4788821"
       transform="matrix(-0.98977166,-0.14266068,-0.14266068,0.98977166,0,0)" />
    <ellipse
       style="fill:#f9f9f9;fill-opacity:1;stroke:none;stroke-width:2.25;stroke-miterlimit:4;stroke-dasharray:none"
       id="path2490-3-8"
       cx="-49.726776"
       cy="33.707661"
       rx="2.7128022"
       ry="2.4788821"
       transform="matrix(-0.98977166,-0.14266068,-0.14266068,0.98977166,0,0)" />
    <ellipse
       style="fill:#f9f9f9;fill-opacity:1;stroke:none;stroke-width:2.25;stroke-miterlimit:4;stroke-dasharray:none"
       id="path2490-4-6"
       cx="-51.22348"
       cy="31.649799"
       rx="2.7128022"
       ry="2.4788821"
       transform="matrix(-0.98977166,-0.14266068,-0.14266068,0.98977166,0,0)" />
    <ellipse
       style="fill:#f9f9f9;fill-opacity:1;stroke:none;stroke-width:2.25;stroke-miterlimit:4;stroke-dasharray:none"
       id="path2490-5-5"
       cx="-45.207367"
       cy="31.275654"
       rx="2.7128022"
       ry="2.4788821"
       transform="matrix(-0.98977166,-0.14266068,-0.14266068,0.98977166,0,0)" />
    <rect
       style="fill:#f9f9f9;fill-opacity:1;stroke:none;stroke-width:2.29154;stroke-miterlimit:4;stroke-dasharray:none"
       id="rect2488-8"
       width="3.2837508"
       height="16.941168"
       x="-53.707333"
       y="50.405399"
       transform="matrix(-0.99841707,-0.05624373,-0.05624373,0.99841707,0,0)" />
    <ellipse
       style="fill:#f9f9f9;fill-opacity:1;stroke:none;stroke-width:2.25;stroke-miterlimit:4;stroke-dasharray:none"
       id="path2490-84"
       cx="-50.657406"
       cy="68.481201"
       rx="2.7128022"
       ry="2.4788821"
       transform="matrix(-0.99841707,-0.05624373,-0.05624373,0.99841707,0,0)" />
    <ellipse
       style="fill:#f9f9f9;fill-opacity:1;stroke:none;stroke-width:2.25;stroke-miterlimit:4;stroke-dasharray:none"
       id="path2490-3-7"
       cx="-53.456478"
       cy="68.402222"
       rx="2.7128022"
       ry="2.4788821"
       transform="matrix(-0.99841707,-0.05624373,-0.05624373,0.99841707,0,0)" />
    <ellipse
       style="fill:#f9f9f9;fill-opacity:1;stroke:none;stroke-width:2.25;stroke-miterlimit:4;stroke-dasharray:none"
       id="path2490-4-0"
       cx="-54.831173"
       cy="68.587158"
       rx="2.7128022"
       ry="2.4788821"
       transform="matrix(-0.99841707,-0.05624373,-0.05624373,0.99841707,0,0)" />
    <ellipse
       style="fill:#f9f9f9;fill-opacity:1;stroke:none;stroke-width:2.25;stroke-miterlimit:4;stroke-dasharray:none"
       id="path2490-5-6"
       cx="-49.159481"
       cy="68.740112"
       rx="2.7128022"
       ry="2.4788821"
       transform="matrix(-0.99841707,-0.05624373,-0.05624373,0.99841707,0,0)" />
    <rect
       style="fill:#f9f9f9;fill-opacity:1;stroke:none;stroke-width:2.29154;stroke-miterlimit:4;stroke-dasharray:none"
       id="rect2488-8-9"
       width="3.2837508"
       height="16.941168"
       x="66.498985"
       y="57.038601"
       transform="rotate(-3.2242298)" />
    <ellipse
       style="fill:#f9f9f9;fill-opacity:1;stroke:none;stroke-width:2.25;stroke-miterlimit:4;stroke-dasharray:none"
       id="path2490-84-0"
       cx="69.548912"
       cy="75.114403"
       rx="2.7128022"
       ry="2.4788821"
       transform="rotate(-3.2242298)" />
    <ellipse
       style="fill:#f9f9f9;fill-opacity:1;stroke:none;stroke-width:2.25;stroke-miterlimit:4;stroke-dasharray:none"
       id="path2490-3-7-4"
       cx="66.74984"
       cy="75.035423"
       rx="2.7128022"
       ry="2.4788821"
       transform="rotate(-3.2242298)" />
    <ellipse
       style="fill:#f9f9f9;fill-opacity:1;stroke:none;stroke-width:2.25;stroke-miterlimit:4;stroke-dasharray:none"
       id="path2490-4-0-3"
       cx="65.375145"
       cy="75.22036"
       rx="2.7128022"
       ry="2.4788821"
       transform="rotate(-3.2242298)" />
    <ellipse
       style="fill:#f9f9f9;fill-opacity:1;stroke:none;stroke-width:2.25;stroke-miterlimit:4;stroke-dasharray:none"
       id="path2490-5-6-1"
       cx="71.046837"
       cy="75.373314"
       rx="2.7128022"
       ry="2.4788821"
       transform="rotate(-3.2242298)" />
  </g>
</svg>
