<svg width="334" height="168" viewBox="0 0 334 168" fill="none" xmlns="http://www.w3.org/2000/svg">
<g clip-path="url(#clip0_40_19)">
<path d="M75.1708 170.921C66.7263 169.778 47.7035 165.706 42.7693 163.985C25.5891 157.992 18.8732 151.139 13.4676 134.084C10.5592 124.908 11.8566 121.088 19.4893 116.355C23.0709 114.134 23.8176 114.021 30.8883 114.628C38.287 115.263 42.7501 116.576 42.7501 118.118C42.7501 120.765 55.0934 124.297 72.062 126.507C80.5543 127.613 92.0298 131.327 99.7867 135.48C105.373 138.471 109.506 142.433 112.928 148.077C115.321 152.022 115.775 153.701 115.892 159.033C116.026 165.164 115.953 165.386 113.111 167.436C111.505 168.595 108.188 169.997 105.739 170.553C101.599 171.492 81.2085 171.738 75.1708 170.921V170.921Z" fill="#FFFF9A"/>
<path d="M87.5876 99.9611C80.0354 98.5428 73.2052 93.4063 68.6801 85.7423C66.3751 81.8384 66.2612 81.0984 66.6835 72.7746C67.1733 63.1192 68.7568 58.2132 72.7203 54.0716C76.4996 50.1223 79.5997 48.9137 85.9357 48.9192C97.7218 48.9293 102.629 51.6272 107.04 60.5201C109.686 65.8554 110.053 67.4851 110.057 73.9257C110.067 91.3393 100.529 102.391 87.5876 99.9611V99.9611Z" fill="#FFFF9A"/>
<path d="M161.242 41.4757C145.566 38.0651 141.035 32.9604 140.907 18.5682C140.821 8.9568 141.46 8.00507 152.351 1.51316C158.377 -2.07842 160.033 -2.64575 164.495 -2.64575C177.314 -2.64575 184.896 7.0332 184.896 23.3984C184.896 31.7588 183.613 34.9657 179 38.1299C172.893 42.319 168.727 43.104 161.242 41.4757Z" fill="#FFFF9A"/>
<path d="M192.793 84.1382C186.772 82.4517 179.915 78.3238 178.377 75.4592C177.325 73.4996 177.361 72.5235 178.598 69.5744C180.718 64.5165 186.201 61.4879 200.168 57.66C204.837 56.3804 206.955 55.0934 210.694 51.2657C218.463 43.3122 228.907 25.88 228.907 20.8671C228.907 18.9001 229.8 17.9626 233.274 16.28L237.642 14.1653L241.799 17.1373C244.085 18.7719 247.041 22.0231 248.367 24.3622C250.553 28.2167 250.768 29.6152 250.672 39.2953C250.538 52.7047 248.794 65.2859 246.429 69.9062C244.05 74.5552 239.244 78.6798 232.181 82.1342C226.754 84.7886 225.75 84.9379 211.859 85.1559C202.247 85.3068 195.722 84.9585 192.793 84.1382Z" fill="#FFFF9A"/>
<path d="M312.402 38.6428C300.268 32.51 285.707 18.9177 281.63 9.91725C278.948 3.99662 278.343 -4.78163 280.363 -8.47424C282.3 -12.0166 294.937 -21.9931 299.664 -23.7126C306.003 -26.0182 320.705 -25.9852 327.144 -23.6509C332.629 -21.6623 336.866 -17.1965 338.277 -11.9172C339.507 -7.31083 339.504 8.20898 338.267 19.0791C336.974 30.4618 334.629 35.3739 329.098 38.2853C322.466 41.7765 318.756 41.856 312.399 38.6429L312.402 38.6428Z" fill="#FFFF9A"/>
<path d="M287.952 165.104C277.641 163.361 262.459 154.358 259.273 148.098C253.075 135.917 269.195 120.319 308.215 100.743C322.53 93.5619 326.198 92.7315 329.957 95.8214C332.016 97.5138 332.183 98.3903 332.472 109.009C332.94 126.226 328.266 146.831 321.996 155.184C318.539 159.789 309.699 164.14 301.636 165.204C293.902 166.224 294.613 166.23 287.952 165.104Z" fill="#FFFF9A"/>
<path d="M-8.17559 92.6619C-8.12151 91.972 -7.63308 91.332 -7.52959 91.136C-7.42609 90.9401 -6.83615 88.8807 -6.2186 86.5596C-5.60105 84.2384 -4.74925 81.4535 -4.32568 80.3709C-3.42551 78.0699 -2.60494 74.8399 -2.09177 71.5778C-1.7693 69.5278 -1.74153 67.5985 -1.85348 55.0306C-2.02597 35.6655 -2.26016 32.1204 -3.66773 27.5665C-4.3404 25.3901 -5.73245 19.4146 -6.08277 17.1997L-6.23276 16.2512L-5.05446 16.6893C-4.40641 16.9301 -0.895734 17.9174 2.41379 19.0856C25.4827 27.2279 28.1276 29.6012 29.3079 43.3332C29.8954 50.169 29.0428 57.8636 26.4467 64.4962C23.2895 72.5625 17.7571 79.4074 10.52 84.8414C6.67233 87.7305 -0.30003 91.0531 -5.84121 92.9748C-6.81185 93.3114 -7.37304 93.6227 -7.58931 93.7115C-7.95282 93.8606 -8.31078 94.3871 -8.21993 93.2278L-8.17559 92.6619Z" fill="#FFFF9A"/>
<path d="M150.467 179.426C149.763 179.446 149.424 179.477 149.378 179.426C149.333 179.378 149.807 177.314 150.367 175.59C151.707 171.463 152.271 169.022 152.456 166.552C152.628 164.249 152.929 162.84 153.561 161.379C155.167 157.667 159.964 153.328 165.852 150.261C168.217 149.029 169.87 148.401 172.759 147.638C175.93 146.801 177.581 146.198 179.93 145.018C181.433 144.263 182.052 143.843 182.978 142.95C184.243 141.731 185.293 141.043 188.156 139.556C191.604 137.766 193.005 137.257 194.488 137.257C196.728 137.257 198.458 138.182 204.334 142.52C208.152 145.34 210.477 146.552 218.023 149.661C226.976 153.35 229.999 155.25 232.58 158.812C234.203 161.051 235.88 165.074 237.18 169.85C237.642 171.544 239.117 178.38 239.038 178.462C239.009 178.492 238.539 178.441 237.994 178.35C237.448 178.257 236.204 178.182 235.228 178.181C234.252 178.181 232.502 178.073 231.339 177.942C229.353 177.719 227.446 177.636 214.134 177.188C210.271 177.059 204.504 177.06 192.745 177.188C176.572 177.372 172.729 177.493 169.06 177.936C164.206 178.521 162.988 178.658 161.088 178.833C158.665 179.056 152.911 179.345 151.122 179.397L150.467 179.426Z" fill="#FFFF9A"/>
<path d="M48.6707 178.79C3.9625 178.358 -4.97748 177.919 -7.86223 176.016C-9.09044 175.206 -9.21471 174.423 -9.63074 164.873C-10.1125 153.813 -8.92434 94.4517 -8.20815 93.8017C-7.96991 93.5856 -6.24819 92.9234 -4.38209 92.3303C-2.51598 91.7371 1.64804 89.8171 4.8713 88.0635C21.5047 79.0143 30.8539 61.1795 28.9145 42.1984C27.6215 29.5428 24.9918 27.2793 2.24951 19.2471L-6.23276 16.2513V5.81679C-6.23276 0.0777777 -6.049 -8.49749 -5.82441 -13.2394L-5.41606 -21.8612L1.42408 -21.4778C5.18615 -21.267 15.9256 -20.1107 25.2896 -18.9083C34.8466 -17.681 48.1064 -16.4373 55.5174 -16.073C62.7786 -15.7162 73.1613 -14.9901 78.59 -14.4597C92.4475 -13.1056 132.744 -12.6131 156.935 -13.5021C183.123 -14.4646 198.333 -15.6187 223.56 -18.5574C235.096 -19.9012 256.332 -22.1425 270.752 -23.5378C285.172 -24.9333 302.661 -26.7851 309.616 -27.6529C326.182 -29.72 338.519 -30.3287 339.277 -29.1166C339.578 -28.6343 339.829 -21.9602 339.834 -14.2851C339.834 -6.61003 340.116 7.16355 340.448 16.3228C340.78 25.4823 341.343 41.409 341.7 51.7158C342.511 75.1459 343.608 89.7879 346.307 113.244C347.473 123.379 348.749 135.808 349.142 140.864C349.844 149.883 349.745 170.889 348.998 171.646C348.073 172.582 318.852 175.715 299.746 176.927C285.819 177.811 250.326 178.959 244.236 178.723L239.003 178.52L237.704 172.586C236.99 169.322 235.513 164.825 234.422 162.591C231.763 157.149 228.427 154.619 219.149 151.009C210.731 147.734 208.121 146.404 203.767 143.171C198.531 139.283 196.086 138.181 193.649 138.612C191.438 139.003 184.123 142.769 183.457 143.86C182.566 145.319 177.365 147.716 173.196 148.589C167.863 149.705 161.628 153.189 157.226 157.514C154.203 160.483 152.936 163.414 152.929 167.449C152.927 168.575 152.178 171.737 151.265 174.477L149.605 179.457L121.5 179.34C106.043 179.275 73.2693 179.028 48.6707 178.79V178.79ZM100.579 170.064C107.239 169.389 111.665 167.799 114.607 165.023C115.957 163.75 116.036 163.297 115.785 158.284C115.482 152.23 114.673 150.21 110.073 144.013C106.428 139.104 100.954 135.614 90.8399 131.755C81.7731 128.294 80.0674 127.89 69.5505 126.709C54.7868 125.052 46.1759 122.751 44.1137 119.913C41.8749 116.832 39.8323 116.188 31.2918 115.871L23.4748 115.58L19.5549 117.8C14.5042 120.66 13.6324 121.698 12.7661 125.88C12.0835 129.175 12.1564 129.633 14.3942 136.122C18.8026 148.905 21.698 152.737 31.0337 158.146C39.3458 162.961 50.4293 165.99 71.1873 169.119C82.0912 170.762 90.8982 171.046 100.579 170.064V170.064ZM308.616 161.789C313.9 159.797 318.864 156.385 320.983 153.288C324.771 147.753 328.202 136.941 330.022 124.8C331.162 117.195 330.993 102.736 329.734 100.048C328.569 97.564 325.923 95.7537 323.455 95.7537C320.898 95.7537 315.105 97.6773 312.997 99.2261C311.973 99.979 309.058 101.471 306.52 102.541C301.002 104.867 284.119 114.518 277.622 119.058C275.07 120.842 270.732 124.558 267.981 127.316C256.524 138.803 256.868 146.498 269.226 155.107C273.489 158.077 282.255 161.991 286.791 162.95C293.166 164.297 303.409 163.753 308.616 161.789V161.789ZM97.8735 98.5227C105.259 94.796 109.712 85.4168 109.734 73.5437C109.75 64.7264 105.299 55.086 99.6709 51.746C96.4822 49.8538 87.4291 48.5199 82.3561 49.1949C72.5967 50.4932 67.0261 59.7499 66.9303 74.8279C66.8946 80.4332 67.0664 81.4394 68.6042 84.6301C71.8697 91.4058 77.7944 96.8079 84.2515 98.897C89.5079 100.598 94.0062 100.474 97.8735 98.5227ZM228.495 82.3743C233.931 80.4033 241.16 75.6806 243.394 72.6416C246.157 68.8818 247.113 65.2971 248.224 54.5267C250.34 34.0132 249.035 26.9016 242.201 21.6992C237.421 18.0608 236.41 17.8548 232.695 19.7611C229.142 21.5839 227.902 22.8912 228.422 24.2641C229.962 28.3276 214.126 52.8329 207.884 56.0453C207.005 56.4974 203.296 57.6498 199.64 58.6062C192.514 60.4705 186.29 63.6489 184.221 66.4799C183.559 67.3854 182.877 69.3866 182.706 70.9271C182.423 73.4705 182.597 73.9556 184.606 76.2069C187.359 79.2923 193.796 82.3717 199.192 83.1845C201.398 83.5167 208.199 83.722 214.306 83.6406C223.144 83.523 226.04 83.2645 228.495 82.3743V82.3743ZM176.136 39.2025C178.238 38.0121 180.656 36.1974 181.51 35.1696C185.855 29.9414 185.024 14.6394 179.901 5.55095C177.068 0.523523 171.096 -2.31667 163.358 -2.31667C159.65 -2.31667 158.853 -1.94443 148.191 4.77183C142.242 8.5184 141.512 9.96548 141.518 17.9846C141.529 32.4137 146.208 37.8144 161.562 41.1204C167.321 42.3604 171.54 41.8051 176.136 39.2025ZM327.921 37.1398C329.977 36.0886 332.388 34.3518 333.279 33.2801C336.413 29.509 337.858 21.4919 338.413 4.80706C338.76 -5.63694 338.686 -6.83619 337.448 -10.9635C335.199 -18.4602 331.452 -21.3623 321.539 -23.2827C315.783 -24.3978 310.724 -24.3914 304.46 -23.2615C298.223 -22.1358 293.762 -19.8161 289.037 -15.2411C286.954 -13.2235 284.636 -11.3287 283.886 -11.0303C281.451 -10.0612 279.74 -5.71499 279.717 -0.443083C279.7 3.43328 280.01 4.94241 281.512 8.30195C284.969 16.0337 287.502 19.0562 297.779 27.7111C303.151 32.2363 308.918 35.8695 314.815 38.4458C318.414 40.0182 323.227 39.5384 327.921 37.1394V37.1398Z" fill="#FFE700"/>
<path d="M327.466 39.629C328.184 42.1612 328.923 44.6917 329.772 47.1826C331.011 50.4573 332.314 53.703 333.469 57.01C334.283 59.297 334.623 61.6951 334.776 64.1084C334.816 66.5732 334.915 69.0286 335.2 71.478C335.598 74.8918 336.081 78.2943 336.506 81.7047C336.795 83.9223 336.907 86.1556 336.97 88.3894C336.987 90.6015 337.011 92.8137 337.005 95.0259C337.008 97.6401 336.998 100.254 337.013 102.869C337.035 106.034 337.028 109.199 337.019 112.363C337.03 115.42 337.036 118.476 337.001 121.532C337.045 123.209 336.879 124.901 336.984 126.577C337.013 127.046 337.081 127.511 337.129 127.978C337.55 130.904 337.878 133.841 338.075 136.791C338.182 138.351 338.141 139.913 338.286 141.47C338.358 142.313 338.43 143.149 338.566 143.984C338.849 144.952 339.19 145.895 339.591 146.818C340.301 148.605 340.818 150.47 341.379 152.31C341.918 153.724 342.155 155.215 342.465 156.688C342.675 158.061 342.992 159.414 343.376 160.748C343.664 161.648 343.893 162.563 343.99 163.504C344.079 164.304 344.153 165.116 344.317 165.905C344.492 166.772 344.695 167.63 344.919 168.485C345.118 169.203 345.204 169.942 345.243 170.684C345.26 171.159 345.254 170.92 345.262 171.403L349.325 169.296C349.313 168.801 349.321 169.048 349.303 168.557C349.245 167.789 349.13 167.028 348.914 166.288C348.688 165.442 348.518 164.585 348.34 163.728C348.194 162.945 348.104 162.149 348.033 161.355C347.901 160.399 347.638 159.474 347.329 158.561C346.935 157.233 346.666 155.883 346.463 154.513C346.127 153.04 345.815 151.56 345.277 150.144C344.682 148.29 344.205 146.399 343.545 144.57C343.176 143.674 342.827 142.769 342.592 141.826C342.472 141.002 342.405 140.173 342.303 139.346C342.143 137.81 342.15 136.262 342.004 134.724C341.735 131.785 341.357 128.861 341.024 125.929C340.907 123.789 340.978 121.647 340.93 119.505C340.895 116.455 340.902 113.405 340.912 110.355C340.903 107.188 340.897 104.02 340.92 100.853C340.937 98.2343 340.932 95.615 340.941 92.9959C340.941 90.7753 340.987 88.5542 340.929 86.3339C340.882 84.0928 340.7 81.8608 340.374 79.6424C339.888 76.247 339.409 72.849 339.055 69.4365C338.924 68.071 338.863 67.6849 338.822 66.3472C338.777 64.9072 338.857 63.464 338.738 62.0259C338.527 59.5899 338.14 57.1695 337.282 54.8703C336.074 51.5886 334.779 48.3417 333.572 45.0597C332.739 42.5652 331.989 40.0254 331.49 37.4392L327.466 39.629H327.466Z" fill="#FFDC00"/>
<path d="M331.033 37.6684C331.367 37.1044 331.562 36.4769 331.732 35.8472L327.631 37.8121C327.433 38.4153 327.215 39.0121 326.836 39.5278L331.033 37.6684V37.6684Z" fill="#FFDC00"/>
<path d="M-11.0454 95.1555C-11.3198 97.2544 -11.4977 99.3634 -11.6377 101.476C-11.7685 103.745 -11.8509 106.017 -11.8784 108.29C-11.9071 109.938 -11.89 111.586 -11.8854 113.233C-11.8824 114.536 -11.9103 115.838 -11.9076 117.14C-11.9319 118.787 -11.8143 120.43 -11.7286 122.073C-11.6916 123.461 -11.492 124.837 -11.3756 126.218C-11.2958 127.391 -11.2904 128.567 -11.2721 129.742C-11.2549 131.176 -11.2721 132.611 -11.2882 134.046C-11.2962 134.944 -11.2962 135.841 -11.3001 136.739C-11.3107 137.586 -11.3001 138.433 -11.2834 139.28C-11.2577 140.887 -11.263 142.494 -11.2764 144.102C-11.2965 145.149 -11.292 146.196 -11.292 147.243C-11.298 148.298 -11.289 149.354 -11.284 150.409C-11.275 151.504 -11.2954 152.599 -11.2964 153.695C-11.3064 154.974 -11.2689 156.252 -11.2583 157.531C-11.2553 159.007 -11.2747 160.482 -11.2924 161.957C-11.3054 162.734 -11.3024 163.511 -11.303 164.289C-11.2911 165.362 -11.2848 166.436 -11.2845 167.51C-11.3324 168.535 -11.2715 169.546 -11.1468 170.561C-11.053 171.512 -10.7386 172.417 -10.5656 173.355C-10.5002 174.274 -10.1327 175.01 -9.53142 175.68C-9.05794 176.189 -8.53082 176.642 -8.08874 177.181C-7.71875 177.667 -7.34251 178.081 -6.78448 178.336C-6.21522 178.537 -5.60728 178.542 -5.01151 178.552C-3.55416 178.526 -2.09645 178.506 -0.639407 178.552C1.24988 178.654 3.1406 178.725 5.03137 178.792C6.65153 178.844 8.27316 178.828 9.89399 178.83C11.3 178.83 12.7059 178.844 14.1118 178.84C15.7582 178.751 17.3866 179.005 19.0143 179.213C21.7734 179.511 24.5184 179.923 27.2591 180.358C28.9901 180.655 30.7214 180.926 32.4772 180.987C34.3773 181.012 36.2775 181.018 38.1777 181.029C39.6193 180.97 41.0621 180.864 42.4866 180.629C43.8152 180.339 45.1348 180.029 46.4876 179.883C48.2549 179.75 50.0294 179.753 51.8006 179.758C53.5159 179.758 55.2311 179.768 56.9463 179.768C59.2608 179.768 61.5751 179.75 63.8895 179.739C66.5201 179.706 69.1506 179.759 71.7811 179.765C73.762 179.765 75.7429 179.754 77.7238 179.765C79.0804 179.78 80.4371 179.781 81.7938 179.776C83.2538 179.715 84.7094 179.587 86.1694 179.525C88.1173 179.294 90.0582 179.01 92.0097 178.807C93.8808 178.618 95.7604 178.554 97.6396 178.527C99.427 178.564 101.207 178.389 102.992 178.354C104.601 178.336 106.202 178.414 107.796 178.621C109.097 178.751 110.403 178.8 111.708 178.831C112.99 178.851 114.273 178.845 115.555 178.842C117.022 178.842 118.49 178.832 119.958 178.842C121.203 178.852 122.447 178.842 123.691 178.852C124.762 178.852 125.832 178.862 126.902 178.852C127.958 178.862 129.014 178.852 130.071 178.842C131.508 178.825 132.945 178.842 134.381 178.852C135.539 178.852 136.696 178.852 137.853 178.852C138.797 178.865 139.742 178.833 140.686 178.878C141.46 178.962 142.23 179.068 143.006 179.127C143.744 179.115 144.447 179.226 145.159 179.408C145.766 179.576 146.385 179.676 147.01 179.743L150.729 177.056C150.116 177.015 149.505 176.946 148.909 176.791C148.506 176.688 148.087 176.522 147.678 176.453C147.366 176.402 147.032 176.485 146.719 176.431C145.938 176.392 145.161 176.311 144.387 176.201C143.436 176.092 142.476 176.175 141.521 176.152C140.362 176.152 139.203 176.152 138.045 176.152C136.603 176.162 135.161 176.175 133.719 176.162C132.67 176.152 131.621 176.145 130.572 176.152C129.498 176.152 128.424 176.152 127.35 176.152C126.1 176.152 124.849 176.152 123.599 176.162C122.134 176.162 120.668 176.162 119.202 176.162C117.926 176.162 116.65 176.162 115.373 176.148C114.079 176.131 112.784 176.103 111.495 175.972C109.863 175.778 108.23 175.695 106.585 175.71C104.806 175.7 103.036 175.876 101.257 175.86C99.3599 175.89 97.4622 175.935 95.5733 176.132C93.6444 176.329 91.7164 176.545 89.7988 176.836C88.3435 176.889 86.8925 176.99 85.4403 177.096C84.0734 177.086 82.7065 177.096 81.3396 177.107C79.3562 177.119 77.3728 177.107 75.3894 177.107C72.736 177.118 70.0826 177.166 67.4291 177.133C65.1428 177.122 62.8565 177.106 60.5701 177.1C58.853 177.09 57.136 177.1 55.419 177.1C53.6512 177.11 51.8823 177.09 50.1157 177.168C48.7379 177.271 47.3998 177.56 46.0616 177.905C44.6615 178.187 43.2348 178.22 41.8155 178.358C39.9153 178.376 38.0144 178.393 36.1147 178.337C34.3472 178.267 32.5898 178.084 30.841 177.811C28.1137 177.411 25.3955 176.947 22.6594 176.613C21.0368 176.374 19.4077 176.099 17.7631 176.16C16.3472 176.16 14.9313 176.17 13.5154 176.173C11.8996 176.173 10.284 176.163 8.66845 176.138C6.77887 176.105 4.88966 176.044 3.00448 175.903C1.56848 175.817 0.129632 175.888 -1.30822 175.841C-1.86745 175.841 -2.43217 175.851 -2.98474 175.75C-3.52549 175.603 -3.82658 175.244 -4.1688 174.81C-4.6122 174.255 -5.13879 173.789 -5.63934 173.291C-6.20519 172.699 -6.47675 172.019 -6.55844 171.196C-6.74353 170.271 -7.03192 169.364 -7.11311 168.421C-7.24429 167.43 -7.28341 166.44 -7.25473 165.439C-7.25473 164.359 -7.24773 163.278 -7.23624 162.198C-7.23624 161.424 -7.23324 160.651 -7.24684 159.877C-7.26483 158.414 -7.28393 156.95 -7.28093 155.487C-7.27033 154.195 -7.23334 152.903 -7.24284 151.611C-7.24284 150.52 -7.26423 149.429 -7.25523 148.338C-7.24824 147.28 -7.24094 146.222 -7.24724 145.164C-7.24713 144.122 -7.24224 143.08 -7.26283 142.038C-7.27633 140.429 -7.28133 138.819 -7.25583 137.209C-7.23834 136.357 -7.22864 135.504 -7.23894 134.651C-7.24194 133.757 -7.24194 132.863 -7.24793 131.969C-7.26273 130.539 -7.27453 129.109 -7.26433 127.679C-7.25634 126.487 -7.25214 125.294 -7.35392 124.105C-7.47893 122.739 -7.72788 121.384 -7.76512 120.009C-7.8541 118.361 -7.91871 116.713 -7.86599 115.062C-7.86299 113.769 -7.89478 112.475 -7.89428 111.181C-7.89428 109.536 -7.88628 107.892 -7.89428 106.247C-7.87918 103.995 -7.85869 101.74 -7.71001 99.4918C-7.5524 97.3532 -7.33819 95.2189 -6.95192 93.1084L-11.046 95.1632L-11.0454 95.1555Z" fill="#FFDC00"/>
</g>
<defs>
<clipPath id="clip0_40_19">
<rect width="334" height="168" fill="white"/>
</clipPath>
</defs>
</svg>
