<?xml version="1.0" encoding="UTF-8" standalone="no"?>
<svg
   xmlns:dc="http://purl.org/dc/elements/1.1/"
   xmlns:cc="http://creativecommons.org/ns#"
   xmlns:rdf="http://www.w3.org/1999/02/22-rdf-syntax-ns#"
   xmlns:svg="http://www.w3.org/2000/svg"
   xmlns="http://www.w3.org/2000/svg"
   xmlns:sodipodi="http://sodipodi.sourceforge.net/DTD/sodipodi-0.dtd"
   xmlns:inkscape="http://www.inkscape.org/namespaces/inkscape"
   width="361.60315mm"
   height="235.57751mm"
   viewBox="0 0 361.60315 235.57751"
   version="1.1"
   id="svg1391"
   inkscape:version="1.0.2 (e86c870879, 2021-01-15, custom)"
   sodipodi:docname="cheese.svg"
   inkscape:export-filename="C:\Users\ahranicky\Desktop\Files\mail\boland\catch-the-mouse\public\assets\images\cheese.png"
   inkscape:export-xdpi="28"
   inkscape:export-ydpi="28">
  <defs
     id="defs1385" />
  <sodipodi:namedview
     id="base"
     pagecolor="#ffffff"
     bordercolor="#666666"
     borderopacity="1.0"
     inkscape:pageopacity="0.0"
     inkscape:pageshadow="2"
     inkscape:zoom="0.35927152"
     inkscape:cx="549.05878"
     inkscape:cy="636.61446"
     inkscape:document-units="mm"
     inkscape:current-layer="layer1"
     inkscape:document-rotation="0"
     showgrid="false"
     inkscape:window-width="1680"
     inkscape:window-height="987"
     inkscape:window-x="-8"
     inkscape:window-y="-8"
     inkscape:window-maximized="1" />
  <metadata
     id="metadata1388">
    <rdf:RDF>
      <cc:Work
         rdf:about="">
        <dc:format>image/svg+xml</dc:format>
        <dc:type
           rdf:resource="http://purl.org/dc/dcmitype/StillImage" />
        <dc:title />
      </cc:Work>
    </rdf:RDF>
  </metadata>
  <g
     inkscape:label="Vrstva 1"
     inkscape:groupmode="layer"
     id="layer1"
     transform="translate(39.43847,20.27091)">
    <path
       style="fill:#ffff9a;fill-opacity:1;stroke-width:0.908221"
       d="m 47.66126,205.3217 c -8.44628,-1.1288 -27.47299,-5.1511 -32.40831,-6.8512 -17.18377,-5.9194 -23.901,-12.6888 -29.30773,-29.5355 -2.90903,-9.0641 -1.61137,-12.8373 6.02292,-17.5129 3.58237,-2.194 4.32918,-2.3057 11.40137,-1.706 7.40022,0.6275 11.86426,1.9248 11.86426,3.448 0,2.6144 12.34588,6.1037 29.31802,8.2862 8.49409,1.0922 19.97189,4.7609 27.73047,8.8636 5.5876,2.9547 9.7211,6.8676 13.14433,12.4426 2.39316,3.8974 2.84742,5.556 2.96425,10.8229 0.13431,6.0555 0.0607,6.2752 -2.78188,8.3003 -1.60592,1.1441 -4.9239,2.5293 -7.37325,3.0783 -4.14118,0.9281 -24.53555,1.1707 -30.57445,0.3637 z"
       id="path1207-8" />
    <path
       style="fill:#ffff9a;fill-opacity:1;stroke-width:0.908981"
       d="m 60.08061,135.2289 c -7.55381,-1.401 -14.38539,-6.4747 -18.91141,-14.0451 -2.30548,-3.8562 -2.41942,-4.5872 -1.99707,-12.8093 0.48995,-9.5374 2.07379,-14.3835 6.03806,-18.4745 3.78015,-3.901 6.88089,-5.0948 13.21815,-5.0894 11.78861,0.01 16.69703,2.6749 21.10874,11.4592 2.64673,5.2701 3.01358,6.8799 3.01733,13.2418 0.0103,17.2008 -9.53,28.1179 -22.4738,25.7173 z"
       id="path1209-1" />
    <path
       style="fill:#ffff9a;fill-opacity:1;stroke-width:0.922746"
       d="m 133.75071,77.458 c -15.67915,-3.3689 -20.21173,-8.4113 -20.33979,-22.6276 -0.0855,-9.494 0.55324,-10.4341 11.44677,-16.8467 6.02675,-3.5477 7.68374,-4.1081 12.14633,-4.1081 12.82197,0 20.40539,9.5607 20.40539,25.726 0,8.2582 -1.28388,11.4259 -5.89767,14.5515 -6.10802,4.1379 -10.27534,4.9133 -17.76103,3.3049 z"
       id="path1211-6" />
    <path
       style="fill:#ffff9a;fill-opacity:1;stroke-width:0.966712"
       d="m 165.30761,119.5992 c -6.02243,-1.6659 -12.8803,-5.7433 -14.41887,-8.5729 -1.0525,-1.9357 -1.01589,-2.8999 0.2207,-5.8129 2.1208,-4.9961 7.60519,-7.9877 21.5751,-11.7689 4.6696,-1.2639 6.7887,-2.5352 10.5282,-6.3162 7.7703,-7.8563 18.2167,-25.0755 18.2167,-30.0272 0,-1.9429 0.8929,-2.869 4.3682,-4.531 l 4.3683,-2.0889 4.1578,2.9357 c 2.2867,1.6146 5.2431,4.8261 6.5696,7.1366 2.1861,3.8074 2.402,5.1889 2.3054,14.7507 -0.1339,13.2456 -1.8779,25.6731 -4.2434,30.2369 -2.3802,4.5922 -7.1873,8.6664 -14.2514,12.0786 -5.4284,2.622 -6.4327,2.7695 -20.3266,2.9848 -9.6137,0.1491 -16.14032,-0.195 -19.06973,-1.0053 z"
       id="path1213-4" />
    <path
       style="fill:#ffff9a;fill-opacity:1;stroke-width:0.921977"
       d="m 284.94124,74.6596 c -12.1365,-6.0579 -26.7,-19.4841 -30.7779,-28.3746 -2.6826,-5.8483 -3.2875,-14.5193 -1.2674,-18.1668 1.9379,-3.4991 14.577,-13.3537 19.3053,-15.0522 6.3402,-2.2774 21.0449,-2.2448 27.4851,0.061 5.4865,1.9643 9.7245,6.3755 11.1353,11.5903 1.231,4.5501 1.2275,19.8803 -0.01,30.6176 -1.2927,11.2437 -3.638,16.0957 -9.1704,18.9716 -6.634,3.4485 -10.3446,3.527 -16.703,0.3532 z"
       id="path1215-1" />
    <path
       style="fill:#ffff9a;fill-opacity:1;stroke-width:0.936159"
       d="m 260.48704,199.5755 c -10.3135,-1.7218 -25.4989,-10.6143 -28.6851,-16.798 -6.1999,-12.0322 9.9237,-27.4391 48.9521,-46.776 14.3176,-7.0937 17.9861,-7.9139 21.7461,-4.8618 2.0595,1.6717 2.2267,2.5375 2.5156,13.0261 0.4686,17.0071 -4.2071,37.3601 -10.4782,45.6115 -3.4572,4.5488 -12.2994,8.8463 -20.364,9.8972 -7.7359,1.0081 -7.0241,1.0132 -13.6865,-0.099 z"
       id="path1217-9" />
    <path
       style="fill:#ffff9a;fill-opacity:1;stroke-width:0.220024"
       d="m -35.70246,128.0187 c 0.0541,-0.6814 0.54263,-1.3136 0.64614,-1.5072 0.10352,-0.1935 0.69358,-2.2278 1.31126,-4.5205 0.61768,-2.2928 1.46965,-5.0437 1.89331,-6.1131 0.90036,-2.2729 1.7211,-5.4634 2.23438,-8.6857 0.32253,-2.0249 0.35031,-3.9306 0.23834,-16.345 -0.17253,-19.1285 -0.40677,-22.6303 -1.81463,-27.1286 -0.67281,-2.1498 -2.06515,-8.0523 -2.41554,-10.2401 l -0.15002,-0.9369 1.17854,0.4327 c 0.64819,0.2379 4.15959,1.2131 7.4698,2.367 23.07371,8.0429 25.71913,10.3872 26.89968,23.9514 0.58768,6.7523 -0.26518,14.3529 -2.86175,20.9045 -3.15787,7.9677 -8.69146,14.729 -15.93,20.0966 -3.8485,2.8538 -10.82231,6.1358 -16.36464,8.034 -0.97084,0.3325 -1.53215,0.64 -1.74847,0.7277 -0.36358,0.1473 -0.72161,0.6674 -0.63075,-0.4778 z"
       id="path1231-9"
       sodipodi:nodetypes="sssssssscsssssssss" />
    <path
       style="fill:#ffff9a;fill-opacity:1;stroke-width:0.15767"
       d="m 122.97276,213.7225 c -0.70404,0.02 -1.04321,0.051 -1.08869,0 -0.0455,-0.047 0.42853,-2.0855 0.98855,-3.7884 1.34069,-4.0768 1.90525,-6.4884 2.08991,-8.9277 0.17225,-2.275 0.47336,-3.667 1.10544,-5.1097 1.60622,-3.6665 6.40365,-7.9526 12.29302,-10.9827 2.36589,-1.2172 4.01894,-1.8371 6.90909,-2.5906 3.17154,-0.827 4.82252,-1.4228 7.17223,-2.5883 1.50309,-0.7455 2.12269,-1.1606 3.04884,-2.0424 1.26453,-1.204 2.3147,-1.8839 5.17835,-3.3523 3.44902,-1.7686 4.85043,-2.2712 6.33369,-2.2712 2.24011,0 3.97115,0.9138 9.84805,5.1989 3.8193,2.7848 6.1443,3.9825 13.6923,7.0536 8.9548,3.6435 11.9776,5.5201 14.5597,9.0389 1.6233,2.2121 3.3004,6.1861 4.6013,10.903 0.4617,1.6738 1.9368,8.4261 1.8584,8.5066 -0.029,0.03 -0.4995,-0.02 -1.045,-0.1106 -0.5456,-0.091 -1.7904,-0.1658 -2.7662,-0.1665 -0.9758,0 -2.7263,-0.1068 -3.8898,-0.2358 -1.9863,-0.2204 -3.8943,-0.3029 -17.2082,-0.7446 -3.8639,-0.1282 -9.6322,-0.1269 -21.39423,0 -16.1755,0.1811 -20.01991,0.3009 -23.68919,0.738 -4.85513,0.5785 -6.07332,0.7139 -7.97418,0.8865 -2.42337,0.2201 -8.17885,0.5052 -9.9678,0.5573 z"
       id="path1237-7"
       sodipodi:nodetypes="ssssssssssssssssscsscssss" />
    <path
       style="fill:#ffff9a;fill-opacity:1;stroke-width:0.0577045"
       d="m 90.46289,19.6155 c -0.1393,-0.012 -0.64579,-0.051 -1.12554,-0.087 -1.13701,-0.084 -3.80267,-0.377 -5.12124,-0.5635 C 72.54332,17.314 42.2541,8.9258 31.3227,4.3169 27.93191,2.8873 24.81612,0.8667 22.71861,-1.26287 c -2.13827,-2.17089 -3.22184,-4.33824 -3.22108,-6.44262 0,-1.06621 0.23497,-2.11394 0.62648,-2.7984 0.48989,-0.85644 1.82885,-2.30514 2.94697,-3.18853 4.47237,-3.5335 10.74612,-4.18537 17.38965,-1.80686 0.61906,0.22163 1.56872,0.56552 2.1104,0.76419 1.63543,0.59984 3.11566,0.95213 4.86798,1.1586 1.79799,0.21187 3.66029,0.29201 10.41126,0.44809 l 5.21778,0.22071 0.70583,0.141 c 1.23001,0.24572 1.66124,0.71443 2.93793,0.92785 0.68094,0.11382 1.94835,0.37655 2.72215,0.53672 2.14537,0.44412 4.2583,1.00185 5.83706,1.19116 0.41783,0.0501 2.75581,0.54306 3.49868,0.57702 1.50554,0.0688 2.92118,0.16043 3.60172,0.29265 0.24764,0.0481 1.88168,0.15331 2.54715,0.3281 1.55241,0.40773 1.7268,-0.0759 3.74346,0.21736 1.28387,0.18673 1.81323,0.29032 2.3355,0.45718 0.6632,0.21186 0.69047,0.2276 1.51948,0.87672 0.46427,0.36355 1.59124,1.21605 2.50434,1.89444 3.34535,2.48549 4.90598,3.81446 6.47185,5.51119 1.77359,1.9218 2.76292,3.7114 3.125,5.6527 0.12668,0.6792 0.16955,2.1259 0.0876,2.9523 -0.28001,2.8202 -1.46528,5.2054 -3.51264,7.0684 -1.46236,1.3307 -3.07582,2.2609 -5.32998,3.0728 -1.64544,0.5927 -2.6574,0.7949 -4.13399,0.826 -0.55713,0.012 -1.12694,0.011 -1.26623,0 z"
       id="path1241-9"
       sodipodi:nodetypes="ccssscsssssscssssssssssssscssscc" />
    <path
       style="fill:#ffe700;fill-opacity:1;stroke-width:0.617022"
       d="m 21.15561,213.0949 c -44.71745,-0.4273 -53.65929,-0.8606 -56.54464,-2.7404 -1.22846,-0.8003 -1.35276,-1.5738 -1.76887,-11.0071 -0.4819,-10.925 0.70654,-69.5608 1.42288,-70.2028 0.23829,-0.2135 1.96037,-0.8676 3.82686,-1.4535 1.86649,-0.5859 6.03138,-2.4825 9.25531,-4.2146 C -6.01605,114.5378 3.33513,96.9209 1.39536,78.1717 0.10202,65.6707 -2.52816,63.4349 -25.27519,55.5008 l -8.48403,-2.9592 v -10.307 c 0,-5.6689 0.1838,-14.1394 0.40844,-18.8234 l 0.40843,-8.5164 6.84156,0.3787 c 3.76285,0.2082 14.50457,1.3504 23.87049,2.5381 9.55896,1.2123 22.82152,2.4408 30.23401,2.8006 7.26279,0.3525 17.64762,1.0697 23.0774,1.5936 13.86041,1.3376 54.16505,1.8241 78.36161,0.9459 26.19336,-0.9507 41.40582,-2.0907 66.63822,-4.9935 11.5383,-1.3274 32.7792,-3.5413 47.2021,-4.9196 14.4228,-1.3784 31.9153,-3.2076 38.8722,-4.0648 16.5694,-2.0418 28.9087,-2.6431 29.6668,-1.4458 0.3016,0.4764 0.5526,7.069 0.5578,14.6503 0,7.5813 0.2812,21.1866 0.6134,30.234 0.3322,9.0475 0.8959,24.7797 1.2528,34.9605 0.8113,23.1439 1.9078,37.607 4.6074,60.7765 1.1664,10.0112 2.4427,22.2884 2.8362,27.2827 0.7018,8.9088 0.603,29.6579 -0.1448,30.4057 -0.9246,0.9245 -30.1515,4.0197 -49.2619,5.2168 -13.9295,0.8726 -49.4299,2.0067 -55.5215,1.7737 l -5.2343,-0.2002 -1.2986,-5.8617 c -0.7142,-3.224 -2.1915,-7.6665 -3.2829,-9.8724 -2.6602,-5.3763 -5.9962,-7.8747 -15.2765,-11.4407 -8.4196,-3.2353 -11.0298,-4.5489 -15.3852,-7.7427 -5.2368,-3.8401 -7.68292,-4.9285 -10.12037,-4.5032 -2.21138,0.3859 -9.52797,4.1065 -10.19373,5.1837 -0.89088,1.4415 -6.09346,3.8095 -10.26295,4.6712 -5.33453,1.1025 -11.57062,4.5444 -15.9739,8.8163 -3.0232,2.9331 -4.29068,5.8275 -4.29746,9.8138 -0.002,1.112 -0.75074,4.2357 -1.6641,6.9415 l -1.66066,4.9197 -28.11058,-0.1156 c -15.46082,-0.064 -48.24088,-0.3079 -72.84458,-0.543 z m 51.91861,-8.6194 c 6.66171,-0.6669 11.08864,-2.238 14.03131,-4.9795 1.3504,-1.2581 1.42956,-1.7052 1.17849,-6.6573 -0.30315,-5.9793 -1.11199,-7.9749 -5.71323,-14.0959 -3.64564,-4.8498 -9.12093,-8.2963 -19.23721,-12.1091 -9.0687,-3.4181 -10.7747,-3.8174 -21.29381,-4.9836 -14.76676,-1.6373 -23.37943,-3.9097 -25.4421,-6.713 -2.2392,-3.0432 -4.28222,-3.6793 -12.82453,-3.9929 l -7.81865,-0.2871 -3.9207,2.1926 c -5.05174,2.8251 -5.92368,3.8499 -6.79017,7.9809 -0.68273,3.255 -0.60988,3.7076 1.62843,10.1173 4.40929,12.6266 7.30528,16.4121 16.6429,21.7547 8.3139,4.7568 19.39965,7.7487 40.16191,10.8391 10.90619,1.6233 19.71503,1.9031 29.39736,0.9338 z m 208.08102,-8.174 c 5.2844,-1.9675 10.2495,-5.3382 12.3696,-8.3974 3.7886,-5.467 7.2197,-16.1473 9.0401,-28.1399 1.1403,-7.5122 0.972,-21.794 -0.2881,-24.4495 -1.1644,-2.4538 -3.8114,-4.242 -6.2796,-4.242 -2.5576,0 -8.3524,1.9001 -10.4604,3.43 -1.0247,0.7437 -3.9401,2.217 -6.4787,3.2741 -5.5184,2.2978 -22.4054,11.8305 -28.9033,16.3159 -2.5525,1.7619 -6.8921,5.4324 -9.6435,8.1567 -11.4596,11.3467 -11.1149,18.9474 1.2452,27.4514 4.2637,2.9335 13.0323,6.7999 17.569,7.7469 6.3765,1.331 16.6208,0.7931 21.8297,-1.1462 z M 70.36862,133.8079 c 7.38706,-3.6812 11.84139,-12.9458 11.86291,-24.6738 0.016,-8.7096 -4.43548,-18.2322 -10.06512,-21.5314 -3.18932,-1.8691 -12.24434,-3.1867 -17.31843,-2.52 -9.76135,1.2825 -15.33313,10.4261 -15.429,25.3199 -0.0357,5.5368 0.1362,6.5307 1.67425,9.6824 3.26621,6.6929 9.19215,12.029 15.65063,14.0926 5.25749,1.6799 9.75664,1.5578 13.62476,-0.3697 z m 130.64842,-15.9511 c 5.4369,-1.9469 12.6678,-6.6119 14.9019,-9.6138 2.7639,-3.7139 3.72,-7.2548 4.8313,-17.8936 2.1167,-20.2629 0.8115,-27.2876 -6.0246,-32.4264 -4.781,-3.594 -5.7919,-3.7975 -9.5079,-1.9145 -3.5533,1.8006 -4.7939,3.0919 -4.2735,4.448 1.5402,4.0139 -14.2993,28.2198 -20.5425,31.3929 -0.8785,0.4466 -4.5892,1.5849 -8.2459,2.5297 -7.12728,1.8415 -13.35278,4.9811 -15.42202,7.7775 -0.66188,0.8944 -1.34374,2.8712 -1.51525,4.3928 -0.28318,2.5124 -0.1086,2.9915 1.90054,5.2153 2.75341,3.0477 9.19214,6.0895 14.58953,6.8924 2.2058,0.3281 9.0085,0.5309 15.117,0.4505 8.8396,-0.1162 11.736,-0.3715 14.1914,-1.2508 z M 148.64719,75.2124 c 2.10243,-1.1758 4.52151,-2.9684 5.37573,-3.9836 4.34549,-5.1643 3.51402,-20.2794 -1.60942,-29.2568 -2.83408,-4.966 -8.80742,-7.7715 -16.54694,-7.7715 -3.70891,0 -4.50548,0.3677 -15.17046,7.0019 -5.9493,3.7008 -6.68024,5.1302 -6.67416,13.0513 0.0109,14.2529 4.69089,19.5876 20.04844,22.8532 5.75978,1.2248 9.97971,0.6763 14.57681,-1.8945 z m 151.81655,-2.0375 c 2.0567,-1.0383 4.4684,-2.7539 5.3592,-3.8125 3.1343,-3.725 4.5801,-11.6442 5.1347,-28.1252 0.3471,-10.3164 0.2737,-11.501 -0.9646,-15.5779 -2.2492,-7.4051 -5.9979,-10.2717 -15.9128,-12.1687 -5.7568,-1.1015 -10.8172,-1.0951 -17.082,0.021 -6.239,1.1119 -10.7007,3.4033 -15.4262,7.9224 -2.084,1.9929 -4.4024,3.8646 -5.1521,4.1593 -2.4353,0.9573 -4.1471,5.2504 -4.1699,10.4579 -0.017,3.829 0.2931,5.3197 1.7955,8.6382 3.4575,7.6373 5.9911,10.6229 16.2696,19.172 5.374,4.4699 11.1414,8.0587 17.0401,10.6036 3.6001,1.5532 8.414,1.0792 13.1085,-1.2905 z"
       id="path919-5-5" />
    <path
       style="fill:#ffe700;fill-opacity:1;stroke-width:0.617022"
       d="M 74.87321,24.7171 C 69.4884,24.4503 59.215,23.6713 52.04345,22.986 44.87189,22.3008 35.95,21.5781 32.21702,21.38 19.24366,20.6916 9.30898,19.7366 -4.18719,17.8807 c -7.46595,-1.0266 -17.02666,-2.048 -21.24603,-2.2698 l -7.67158,-0.4031 8.11944,-4.8864 C -13.2941,3.2856 -7.66812,-1.16744 2.32969,-11.29853 l 8.85434,-8.97238 h 5.44286 c 5.00092,0 29.06868,3.68489 42.12202,6.44909 l 4.31914,0.91463 -8.63829,-0.19116 c -7.55392,-0.16716 -9.18984,-0.39698 -13.03208,-1.83079 -7.48247,-2.79225 -14.54546,-1.88504 -18.99918,2.44036 -1.80794,1.75585 -2.21338,2.59878 -2.21338,4.60177 0,3.43626 3.66296,7.31902 9.59753,10.17341 8.33045,4.0068 42.89124,13.2076 54.34976,14.4691 6.13171,0.675 7.21506,0.6429 10.04574,-0.2973 5.62903,-1.8696 8.68773,-5.5722 8.68773,-10.5165 0,-3.9906 -2.43522,-7.0522 -9.51185,-11.95852 -2.00759,-1.39188 -3.52305,-2.5307 -3.36768,-2.5307 0.15536,0 7.21229,1.09466 15.68205,2.43258 69.72934,11.01474 98.76384,13.76584 154.22924,14.61374 12.8957,0.1971 24.835,0.5465 26.5318,0.7764 2.7115,0.3674 1.7402,0.5845 -8.0212,1.7926 -6.1085,0.7559 -18.3255,2.0774 -27.1489,2.9366 -22.3825,2.1794 -35.9055,3.6064 -57.6915,6.0878 -23.78251,2.7089 -41.14245,3.9154 -67.25518,4.6743 -23.23702,0.6753 -37.08721,0.662 -51.43945,-0.049 z"
       id="path921-1-4" />
    <path
       style="fill:#ffdc00;fill-opacity:1;stroke-width:0.264583"
       id="path1303"
       d="m -33.33813,17.5615 c 3.7048,-0.057 7.39595,0.4698 11.06765,0.905 5.22981,0.7308 10.47081,1.3737 15.69278,2.1593 5.18226,0.6707 10.35278,1.4199 15.51697,2.2158 3.56116,0.6456 7.15184,1.0902 10.73515,1.5895 5.02941,0.7221 10.07435,1.3382 15.12837,1.8598 6.48687,0.592 12.98207,1.0836 19.47048,1.6572 5.51309,0.5629 11.02799,1.0661 16.56384,1.3328 5.12503,0.2007 10.25525,0.142 15.37573,0.4484 5.4919,0.5142 10.97989,1.0309 16.48788,1.3415 5.61237,0.4646 11.23305,0.7592 16.85983,0.9785 5.53882,0.1043 11.07382,0.2949 16.6084,0.5317 4.73411,0.2363 9.47441,0.2625 14.21321,0.2888 5.04192,0.019 10.08393,0.015 15.12591,0.011 5.77458,-0.037 11.54919,-0.024 17.32383,-0.012 5.80274,-0.014 11.60544,-0.01 17.40815,-0.01 5.03656,-0.062 10.06534,-0.3431 15.08025,-0.8032 3.18704,-0.2425 6.36029,-0.6216 9.54071,-0.9308 0.49597,-0.038 0.99161,-0.08 1.48792,-0.113 0.48458,-0.032 0.97062,-0.043 1.45459,-0.084 1.51549,-0.1269 3.01498,-0.4005 4.51398,-0.6478 1.76655,-0.2611 3.53436,-0.5137 5.30413,-0.7527 1.86632,-0.2771 3.72901,-0.5783 5.60784,-0.758 0.92914,-0.05 1.84687,-0.2082 2.77027,-0.3135 0.75869,-0.083 1.52252,-0.092 2.28489,-0.099 0.69273,0 1.38546,0 2.0782,0 0.49913,0.01 0.99869,-0.012 1.49725,0.015 0,0 3.74205,-2.642 3.74205,-2.642 v 0 c -0.50683,-0.1049 -1.02391,-0.048 -1.53956,-0.061 -0.69701,-2e-4 -1.39401,0 -2.091,0 -0.76954,0 -1.54069,0 -2.30828,0.059 -0.93974,0.093 -1.86655,0.2814 -2.80873,0.3475 -1.90715,0.1879 -3.7955,0.5071 -5.68852,0.801 -1.76141,0.2127 -3.52261,0.432 -5.27542,0.7067 -1.51122,0.2731 -3.0299,0.6028 -4.56046,0.7458 -0.48652,0.045 -0.97603,0.05 -1.46368,0.081 -0.49808,0.032 -0.99563,0.071 -1.49344,0.1066 -3.2063,0.2843 -6.3967,0.7295 -9.60723,0.9772 -5.04643,0.529 -10.11,0.8809 -15.18592,0.932 -5.79451,0 -11.58902,0 -17.38352,-0.01 -5.76665,0.013 -11.53324,0.028 -17.29984,-0.01 -5.03668,0 -10.0734,0 -15.11006,-0.019 -4.74432,-0.03 -9.48854,-0.092 -14.2303,-0.2593 -5.54736,-0.198 -11.09252,-0.445 -16.64382,-0.508 -5.61605,-0.1823 -11.21786,-0.5405 -16.81779,-0.9998 -5.51148,-0.2737 -11.0014,-0.7707 -16.49018,-1.3348 -0.8826,-0.059 -1.76419,-0.1356 -2.64782,-0.1758 C 82.71992,26.9161 78.47359,27.0179 74.23687,26.8216 68.68007,26.5786 63.14149,26.1159 57.60781,25.5563 51.11676,25.0041 44.61939,24.5286 38.1339,23.9119 33.13441,23.3508 28.14945,22.6613 23.16869,21.9552 19.58758,21.4198 16.00065,20.9287 12.42245,20.3743 7.2212,19.657 2.02348,18.9139 -3.18137,18.2224 -8.3974,17.4271 -13.62823,16.7541 -18.85516,16.035 c -3.58743,-0.4513 -7.17724,-0.9882 -10.79031,-1.1693 0,0 -3.69266,2.6829 -3.69266,2.6829 z" />
    <path
       style="fill:#ffdc00;fill-opacity:1;stroke-width:0.264583"
       id="path1315"
       d="m 307.92214,10.1068 c -0.87802,0.7269 -1.83177,1.3555 -2.73259,2.0518 -0.634,0.4985 -1.27847,0.9509 -1.75239,1.6133 -0.0693,0.077 -0.14367,0.1489 -0.20805,0.2297 -0.17711,0.2224 -0.32596,0.4406 -0.55234,0.6215 -0.55433,0.4429 0.12261,-0.1929 -0.45527,0.3744 -0.353,0.2683 -0.17523,0.1303 -0.53311,0.4144 0,0 4.239,-1.7013 4.239,-1.7013 v 0 c 0.36102,-0.2915 0.18534,-0.1441 0.52739,-0.442 0.45382,-0.3785 0.8246,-0.8236 1.18592,-1.2899 0.52636,-0.5714 1.15977,-1.0149 1.76493,-1.4983 0.92673,-0.6825 1.84129,-1.3828 2.78355,-2.0432 0,0 -4.26704,1.6696 -4.26704,1.6696 z" />
    <path
       style="fill:#ffdc00;fill-opacity:1;stroke-width:0.264583"
       id="path1317"
       d="m 300.00863,75.6337 c 0.71808,2.5013 1.4572,5.0009 2.30704,7.4614 1.23888,3.2346 2.54262,6.4407 3.69726,9.7073 0.81391,2.2591 1.15445,4.6279 1.30712,7.0117 0.0405,2.4347 0.13888,4.8601 0.4246,7.2795 0.39743,3.3721 0.88107,6.7331 1.30646,10.1018 0.28829,2.1905 0.40034,4.3965 0.46329,6.603 0.0172,2.1851 0.0418,4.3703 0.0357,6.5554 0.003,2.5823 -0.007,5.1647 0.008,7.747 0.0212,3.1262 0.0148,6.2526 0.006,9.3788 0.0103,3.019 0.0167,6.0378 -0.0183,9.0566 0.0444,1.6568 -0.12171,3.3275 -0.0169,4.9832 0.0293,0.463 0.0966,0.9229 0.14489,1.3844 0.42111,2.8902 0.74948,5.791 0.94604,8.705 0.10679,1.5407 0.0666,3.0842 0.21127,4.6218 0.0723,0.8325 0.14409,1.6589 0.27966,2.483 0.28332,0.9562 0.6249,1.8874 1.02593,2.7997 0.71016,1.7649 1.22724,3.6069 1.78771,5.4249 0.53975,1.3963 0.77689,2.8695 1.08611,4.3241 0.21095,1.3567 0.52726,2.6926 0.91136,4.0108 0.2885,0.8891 0.51691,1.7925 0.61388,2.7226 0.0895,0.7901 0.16394,1.5923 0.32732,2.3717 0.17539,0.8557 0.37809,1.7036 0.60195,2.5477 0.19931,0.7096 0.28581,1.4394 0.32489,2.173 0.0167,0.4688 0.0103,0.2324 0.0188,0.7094 0,0 4.06334,-2.0808 4.06334,-2.0808 v 0 c -0.0114,-0.489 -0.004,-0.2455 -0.0222,-0.7305 -0.0579,-0.7584 -0.17272,-1.5098 -0.38827,-2.2411 -0.2268,-0.8357 -0.39614,-1.6817 -0.57457,-2.5287 -0.14568,-0.7737 -0.23564,-1.5598 -0.30718,-2.3436 -0.13171,-0.9448 -0.39479,-1.8581 -0.70377,-2.7598 -0.3946,-1.3125 -0.66339,-2.6459 -0.86675,-3.9991 -0.33562,-1.4545 -0.64775,-2.917 -1.18562,-4.3155 -0.59507,-1.8308 -1.07267,-3.6993 -1.73262,-5.5057 -0.36859,-0.8847 -0.71792,-1.7789 -0.95327,-2.7101 -0.12031,-0.814 -0.18651,-1.6334 -0.28856,-2.4499 -0.16081,-1.5178 -0.15345,-3.0465 -0.29935,-4.5661 -0.26963,-2.9025 -0.6469,-5.7915 -0.98051,-8.687 -0.11727,-2.1136 -0.0455,-4.2296 -0.0934,-6.3459 -0.0353,-3.0126 -0.0283,-6.0252 -0.0183,-9.038 -0.009,-3.1285 -0.0151,-6.2572 0.008,-9.3856 0.0172,-2.5871 0.0116,-5.1743 0.0209,-7.7614 0,-2.1935 0.0457,-4.3875 -0.0116,-6.5807 -0.0477,-2.2137 -0.22934,-4.4184 -0.55542,-6.6097 -0.48596,-3.3539 -0.96533,-6.7104 -1.31984,-10.0812 -0.13068,-1.3488 -0.19106,-1.7302 -0.23252,-3.0516 -0.0447,-1.4224 0.0353,-2.848 -0.0842,-4.2685 -0.21135,-2.4062 -0.59838,-4.7971 -1.45616,-7.0682 -1.20828,-3.2416 -2.50323,-6.4488 -3.71036,-9.6907 -0.83339,-2.464 -1.58385,-4.9728 -2.08269,-7.5274 0,0 -4.02498,2.163 -4.02498,2.163 z" />
    <path
       style="fill:#ffdc00;fill-opacity:1;stroke-width:0.264583"
       id="path1319"
       d="m 303.5768,73.6973 c 0.33396,-0.5571 0.52883,-1.177 0.69872,-1.799 0,0 -4.10189,1.9409 -4.10189,1.9409 v 0 c -0.19743,0.5959 -0.41627,1.1854 -0.79463,1.6948 0,0 4.1978,-1.8367 4.1978,-1.8367 z" />
    <path
       style="fill:#ffdc00;fill-opacity:1;stroke-width:0.264583"
       id="path1321"
       d="m -34.51413,17.5898 c 0.0299,1.07 0.0114,2.1406 0.018,3.211 0,1.0902 0,2.1805 -0.005,3.2707 0.0959,0.957 0.20262,1.9115 0.25633,2.8721 0.0556,1.1426 0.0558,2.287 0.0652,3.4307 -0.0502,1.5089 0.0723,3.0115 0.16362,4.516 0.1469,1.5001 0.29565,2.9999 0.38367,4.5048 0.0761,0.9005 1.3e-4,1.8064 -0.18573,2.6891 -0.20969,0.8088 -0.22606,1.6527 -0.40061,2.4657 -0.18164,0.6144 -0.12486,1.2822 -0.43058,1.8528 -0.21662,0.4893 -0.5106,0.9162 -0.65546,1.4359 -0.15009,0.7691 -0.11784,1.5608 -0.12509,2.3409 -0.0109,0.8652 -0.007,1.7304 -0.008,2.5956 -2.7e-4,0.1266 0,0.2532 0,0.3798 0,0 4.06495,-2.0723 4.06495,-2.0723 v 0 c 0,-0.1261 -0.003,-0.2522 -0.003,-0.3782 -0.005,-0.8606 -0.008,-1.7213 -0.004,-2.5818 0.0132,-0.7444 0,-1.5121 0.2254,-2.2292 0.20055,-0.4791 0.48731,-0.9184 0.65931,-1.4115 0.18749,-0.6305 0.23035,-1.2912 0.38013,-1.9315 0.12327,-0.8202 0.19894,-1.6481 0.38822,-2.4578 0.14838,-0.923 0.22918,-1.8536 0.1211,-2.7868 -0.13205,-1.4911 -0.32258,-2.9764 -0.4369,-4.4692 -0.0812,-1.504 -0.14648,-3.0065 -0.11515,-4.5133 0.003,-1.1565 0.003,-2.3133 -0.0492,-3.4689 -0.0642,-0.9502 -0.17417,-1.8954 -0.24886,-2.8444 -0.004,-1.0886 -0.006,-2.1773 -0.005,-3.2659 0.007,-1.0765 -0.0116,-2.1532 0.018,-3.2294 0,0 -4.07255,2.0751 -4.07255,2.0751 z" />
    <path
       style="fill:#ffdc00;fill-opacity:1;stroke-width:0.264583"
       id="path1325"
       d="m -38.57286,130.4819 c -0.27445,2.0732 -0.45238,4.1565 -0.5924,6.2428 -0.13086,2.2419 -0.21328,4.4861 -0.24077,6.7316 -0.0287,1.6274 -0.0116,3.255 -0.007,4.8824 0.003,1.2865 -0.0249,2.5729 -0.0222,3.8593 -0.0243,1.627 0.0933,3.2494 0.17907,4.8729 0.037,1.3709 0.23657,2.7295 0.35298,4.0944 0.0799,1.1582 0.0853,2.3198 0.10359,3.4801 0.0172,1.4173 0,2.8345 -0.0161,4.2517 -0.008,0.8867 -0.008,1.7733 -0.0119,2.66 -0.0106,0.8368 0,1.6734 0.0167,2.51 0.0257,1.5875 0.0204,3.1754 0.007,4.7631 -0.0201,1.0343 -0.0156,2.0686 -0.0156,3.103 -0.006,1.0424 0.003,2.0846 0.008,3.127 0.009,1.0819 -0.0114,2.1636 -0.0124,3.2455 -0.01,1.2635 0.0275,2.5265 0.0381,3.7898 0.003,1.4573 -0.0164,2.9145 -0.0341,4.3716 -0.013,0.7677 -0.01,1.5355 -0.0106,2.3033 0.0119,1.0607 0.0182,2.1215 0.0185,3.1824 -0.0479,1.0116 0.013,2.0105 0.13774,3.0133 0.0938,0.9393 0.40823,1.833 0.58126,2.7602 0.0654,0.9071 0.43305,1.6341 1.03442,2.2961 0.47358,0.5027 1.00081,0.9503 1.44298,1.4826 0.37007,0.4799 0.74639,0.8896 1.30453,1.1414 0.56938,0.1982 1.17745,0.2028 1.77334,0.2131 1.45765,-0.026 2.91566,-0.045 4.37301,0 1.88968,0.1007 3.78079,0.171 5.67195,0.2369 1.6205,0.052 3.24247,0.036 4.86363,0.038 1.40626,0 2.81246,0.014 4.21872,0.01 1.64669,-0.088 3.27544,0.1623 4.9035,0.3683 2.75968,0.2938 5.50519,0.7012 8.24653,1.1308 1.73138,0.2935 3.46303,0.561 5.21915,0.6211 1.90045,0.025 3.80108,0.031 5.70166,0.042 1.4419,-0.059 2.88505,-0.163 4.3098,-0.3951 1.3289,-0.2865 2.64882,-0.5928 4.00182,-0.7376 1.76774,-0.1312 3.54254,-0.1281 5.31413,-0.1236 1.71562,0 3.4312,0.01 5.14681,0.01 2.31495,0 4.62976,-0.017 6.94465,-0.028 2.63115,-0.033 5.26217,0.019 7.89321,0.025 1.98131,0 3.96259,-0.01 5.94387,0 1.35694,0.015 2.71391,0.016 4.0709,0.011 1.46029,-0.06 2.91619,-0.1867 4.37655,-0.248 1.94829,-0.228 3.88959,-0.508 5.84145,-0.7089 1.8715,-0.187 3.7515,-0.2495 5.63107,-0.2769 1.78774,0.037 3.56801,-0.1364 5.35387,-0.1706 1.60867,-0.018 3.21022,0.059 4.80502,0.2639 1.30051,0.1287 2.60691,0.177 3.91287,0.2069 1.28217,0.02 2.56463,0.014 3.84694,0.011 1.46822,0 2.93642,-0.01 4.40465,0 1.2446,0.01 2.48928,0 3.7339,0.01 1.07037,0 2.14075,0.01 3.21112,0 1.05651,0.01 2.11291,0 3.16939,-0.01 1.43724,-0.017 2.87451,-2e-4 4.31173,0.01 1.15737,0 2.31471,0 3.47207,0 0.94446,0.013 1.89005,-0.019 2.83369,0.026 0.7738,0.083 1.54453,0.1878 2.3209,0.2461 0.73768,-0.012 1.44073,0.097 2.15315,0.2773 0.60677,0.1655 1.22664,0.265 1.85111,0.3311 0,0 3.7199,-2.654 3.7199,-2.654 v 0 c -0.6129,-0.041 -1.2242,-0.1086 -1.82073,-0.262 -0.40269,-0.1024 -0.82195,-0.2663 -1.23078,-0.3337 -0.31182,-0.051 -0.6462,0.031 -0.9593,-0.022 -0.78079,-0.039 -1.55782,-0.1182 -2.33199,-0.2276 -0.95112,-0.1078 -1.91143,-0.025 -2.86716,-0.048 -1.15895,0 -2.3179,0 -3.47686,0 -1.44216,0.01 -2.88438,0.023 -4.32654,0.01 -1.04929,-0.01 -2.09847,-0.017 -3.14775,-0.01 -1.07426,0 -2.14853,0 -3.22276,0 -1.25045,0 -2.50092,0 -3.75137,0.01 -1.46603,0 -2.93206,0 -4.39811,-3e-4 -1.27649,0 -2.553,0 -3.82948,-0.014 -1.29418,-0.017 -2.58998,-0.044 -3.87879,-0.1731 -1.63253,-0.1917 -3.26657,-0.2743 -4.91167,-0.2593 -1.77909,-0.01 -3.54944,0.1644 -5.32887,0.1484 -1.89743,0.029 -3.7956,0.074 -5.68486,0.2685 -1.92932,0.1949 -3.85768,0.4081 -5.77572,0.6953 -1.45558,0.052 -2.90685,0.1526 -4.35941,0.2572 -1.36721,-0.01 -2.73436,0 -4.10155,0.011 -1.98381,0.011 -3.96763,0 -5.95145,0 -2.65396,0.01 -5.30786,0.058 -7.9619,0.025 -2.28684,-0.011 -4.57361,-0.026 -6.86048,-0.032 -1.71739,-0.01 -3.43475,0 -5.15213,0 -1.76816,0.01 -3.53743,-0.01 -5.30439,0.067 -1.37809,0.102 -2.71645,0.3866 -4.05495,0.7277 -1.40036,0.2785 -2.82739,0.3109 -4.24702,0.4473 -1.90055,0.018 -3.80182,0.035 -5.70195,-0.02 -1.76784,-0.07 -3.52565,-0.25 -5.27482,-0.52 -2.72785,-0.3951 -5.4466,-0.8535 -8.18327,-1.1834 -1.62295,-0.2357 -3.25241,-0.5075 -4.89728,-0.4475 -1.41626,0 -2.83241,0.01 -4.24867,0.013 -1.61608,0 -3.232,-0.01 -4.84791,-0.035 -1.88997,-0.032 -3.77957,-0.093 -5.66515,-0.2315 -1.43629,-0.085 -2.87544,-0.015 -4.31359,-0.062 -0.55935,0 -1.12418,0.01 -1.67687,-0.089 -0.54086,-0.1455 -0.84201,-0.5004 -1.1843,-0.9292 -0.4435,-0.5477 -0.9702,-1.0084 -1.47085,-1.5007 -0.56597,-0.5847 -0.83759,-1.256 -0.91929,-2.0686 -0.18513,-0.9145 -0.47358,-1.8099 -0.55478,-2.7414 -0.13121,-0.9791 -0.17034,-1.9573 -0.14166,-2.9456 0,-1.0672 0.007,-2.1342 0.0185,-3.2013 0,-0.7642 0.003,-1.5283 -0.0106,-2.2924 -0.018,-1.4456 -0.0371,-2.8911 -0.0341,-4.3368 0.0106,-1.2763 0.0476,-2.5523 0.0381,-3.8287 0,-1.0776 -0.0214,-2.1551 -0.0124,-3.2327 0.007,-1.0453 0.0143,-2.0904 0.008,-3.1357 1.1e-4,-1.0291 0.005,-2.0581 -0.0156,-3.0871 -0.0135,-1.59 -0.0185,-3.1802 0.007,-4.77 0.0175,-0.8423 0.0272,-1.6845 0.0169,-2.527 -0.003,-0.883 -0.003,-1.766 -0.009,-2.649 -0.0148,-1.4126 -0.0266,-2.8253 -0.0164,-4.238 0.008,-1.177 0.0122,-2.3562 -0.0896,-3.53 -0.12504,-1.3501 -0.37404,-2.6882 -0.41129,-4.0464 -0.089,-1.6282 -0.15362,-3.2552 -0.10089,-4.8861 0.003,-1.278 -0.0288,-2.5559 -0.0283,-3.8339 0,-1.6245 0.008,-3.2491 0,-4.8736 0.0151,-2.2251 0.0356,-4.4517 0.18431,-6.6728 0.15764,-2.1125 0.3719,-4.2207 0.75825,-6.3054 0,0 -4.09493,2.0297 -4.09493,2.0297 z" />
    <path
       style="fill:#ffdc00;fill-opacity:1;stroke-width:0.264583"
       id="path1333"
       d="m 209.72851,213.1589 c 1.72366,-0.042 3.44792,-0.031 5.17189,-0.03 3.66332,-0.1392 7.31166,0.2454 10.95225,0.5986 3.02376,0.297 6.04369,0.6433 9.07375,0.8719 2.36352,0.1269 4.73234,0.051 7.09795,0.044 2.15117,0 4.30212,0.037 6.45327,0.038 3.34018,-0.2667 6.65779,-0.7679 9.9768,-1.2206 1.83099,-0.1922 3.63233,-0.573 5.44258,-0.8939 2.1748,-0.2808 4.33536,-0.655 6.5033,-0.9818 2.53098,-0.3466 5.09548,-0.3275 7.64482,-0.3488 2.25227,0 4.50453,0.019 6.75664,0.046 1.37731,0.1033 2.72619,-0.184 4.08514,-0.3511 1.40369,-0.1748 2.81951,-0.1749 4.22873,-0.2669 1.50643,-0.1423 3.00776,-0.351 4.49432,-0.6337 1.45674,-0.305 2.87935,-0.7445 4.33215,-1.0667 1.7077,-0.4556 3.46774,-0.5945 5.22531,-0.6917 1.3444,-0.1205 2.65869,-0.4131 4.00423,-0.5418 1.4387,-0.1502 2.88539,-0.2079 4.29086,-0.5681 0.75393,-0.1759 1.49354,-0.405 2.24242,-0.5994 0.0989,-0.021 0.1978,-0.042 0.2967,-0.062 0,0 3.65345,-2.7531 3.65345,-2.7531 v 0 c -0.10414,0.015 -0.20826,0.03 -0.3124,0.045 -0.77321,0.1561 -1.5077,0.4468 -2.2806,0.6053 -0.0776,0.023 -1.00253,0.292 -1.05203,0.3027 -1.05892,0.229 -2.15877,0.2114 -3.22848,0.3612 -0.72712,0.052 -1.44994,0.1026 -2.16918,0.2267 -0.38362,0.066 -0.75843,0.1782 -1.14216,0.2437 -0.22862,0.039 -0.46045,0.056 -0.69069,0.084 -1.763,0.1057 -3.5496,0.1737 -5.26336,0.6348 -1.45351,0.2976 -2.87493,0.7151 -4.31768,1.0588 -1.4623,0.329 -2.95203,0.5184 -4.44299,0.6635 -1.41793,0.1455 -2.85131,0.111 -4.26868,0.2807 -1.35094,0.1377 -2.68078,0.4474 -4.04373,0.384 -2.29915,0.018 -4.59836,0.031 -6.89748,0.052 -2.51828,0.01 -5.05322,-0.087 -7.55891,0.2036 -2.16143,0.3503 -4.31146,0.7838 -6.49552,0.9749 -1.86856,0.2607 -3.69038,0.7969 -5.57035,0.9981 -3.25707,0.4858 -6.5169,0.9469 -9.80458,1.1707 -2.19324,0.01 -4.38616,0.056 -6.57948,0.054 -2.3242,-0.01 -4.64902,-0.026 -6.97211,-0.1015 -3.09666,-0.1426 -6.18657,-0.4008 -9.27074,-0.7107 -3.5824,-0.3637 -7.17044,-0.824 -10.77743,-0.7773 -1.69675,0 -3.39381,0.013 -5.09019,-0.03 0,0 -3.69779,2.6866 -3.69779,2.6866 z" />
    <path
       style="fill:#ffdc00;fill-opacity:1;stroke-width:0.264583"
       id="path1337"
       d="m -30.91069,16.1945 c 0.35941,-0.8582 0.83622,-1.6517 1.43034,-2.3672 1.32742,-1.2256 5.36726,-3.3946 -1.37827,0.5311 14.21035,-8.2855 -8.99395,5.2597 5.05863,-2.9411 1.187,-0.6928 -2.38038,1.3745 -3.56683,2.0682 -0.23566,0.1378 0.48155,-0.2574 0.72271,-0.3854 1.90217,-0.8826 3.63914,-1.999 5.47087,-3.0563 0.50398,-0.291 0.2321,-0.1077 0.67728,-0.4407 0.0969,-0.063 0.20413,-0.112 0.29062,-0.1886 0.0873,-0.077 0.13803,-0.19 0.22506,-0.2676 0.10178,-0.091 0.22809,-0.15 0.33641,-0.2329 0.6022,-0.4609 1.2046,-0.861 1.85423,-1.2569 0.24167,-0.1482 0.48085,-0.3005 0.72499,-0.4446 2.88977,-1.7055 -4.66548,2.62 -2.06312,1.2569 0.15605,-0.082 0.31348,-0.1611 0.46606,-0.2491 1.43651,-0.8285 2.86729,-1.6668 4.30094,-2.5002 -7.90361,4.5983 -0.91512,0.5264 0.856,-0.4754 1.15711,-0.6545 -4.60906,2.652 -3.4509,1.9993 1.8498,-1.0424 3.42445,-1.9282 5.11326,-3.0018 0.98332,-0.5399 1.90589,-1.1632 2.82183,-1.8064 -1.12588,0.6608 -2.25711,1.3126 -3.37767,1.9824 -0.15788,0.094 0.32512,-0.1722 0.48897,-0.2557 0.19455,-0.099 0.39032,-0.1961 0.58619,-0.2927 0.48144,-0.2375 0.90276,-0.4291 1.37364,-0.6971 1.52651,-0.8689 3.04353,-1.7545 4.5653,-2.6317 1.15181,-0.7619 2.36874,-1.44531 3.44104,-2.32005 0.67929,-0.5325 1.28305,-1.124 1.86598,-1.7599 0.65928,-0.78753 1.34643,-1.54514 1.88616,-2.42287 0.41542,-0.73089 1.12257,-1.1335 1.76262,-1.63494 0.71036,-0.56753 1.4124,-1.13184 2.06031,-1.77057 0.46885,-0.61658 0.97155,-1.20385 1.5429,-1.72704 0.60878,-0.61502 1.21586,-1.23542 1.81033,-1.86481 0.62214,-0.66762 1.24365,-1.35324 1.72344,-2.13159 0.56034,-0.72921 1.09411,-1.48211 1.73569,-2.14291 0.36386,-0.52509 0.88117,-0.90622 1.2949,-1.38255 0.45416,-0.43535 0.89892,-0.88332 1.3194,-1.35364 0.0752,-0.0829 0.15041,-0.16584 0.22564,-0.24879 0,0 -4.21418,1.76769 -4.21418,1.76769 v 0 c -0.0764,0.0828 -0.15275,0.16568 -0.2291,0.24852 -0.43501,0.45868 -0.88371,0.9044 -1.33089,1.35115 -0.45164,0.43434 -0.86505,0.904 -1.26862,1.38292 -0.59801,0.70768 -1.16853,1.4387 -1.69873,2.19877 -0.53406,0.72966 -1.12466,1.4157 -1.76041,2.05901 -0.61253,0.61563 -1.18602,1.26847 -1.82417,1.85835 -0.53183,0.55941 -1.02324,1.1511 -1.5422,1.72112 -0.65585,0.61259 -1.36406,1.16343 -2.06774,1.71963 -0.67072,0.50538 -1.29284,1.02476 -1.70273,1.77737 -0.57063,0.83129 -1.23981,1.58538 -1.90452,2.34206 -0.59537,0.61529 -1.24447,1.16443 -1.91027,1.70187 -1.09312,0.8053 -2.23882,1.5376 -3.40045,2.2394 1.03862,-0.5962 2.08087,-1.1862 3.11587,-1.7887 0.43426,-0.2528 -0.88691,0.4734 -1.33991,0.6909 -1.88349,0.9044 -3.68736,1.8297 -5.4438,3.0468 -0.91585,0.6469 -1.88172,1.2095 -2.8403,1.7898 -0.13803,0.087 -0.27527,0.1754 -0.41407,0.2612 -0.13222,0.082 -0.5338,0.3186 -0.39892,0.2414 1.15869,-0.6629 4.63177,-2.6569 3.47041,-1.9987 -14.31867,8.1152 9.08981,-5.13249 -5.17782,2.9683 1.15584,-0.6627 2.31196,-1.3248 3.4675,-1.988 0.1551,-0.089 -0.30895,0.1804 -0.46619,0.2656 -0.17587,0.095 -0.35859,0.1778 -0.53295,0.2758 -1.95501,1.0987 -3.93097,2.175 -5.83621,3.3624 -0.96769,0.6136 -1.86994,1.2995 -2.77662,1.9951 -1.33096,0.8313 -3.45157,2.0166 2.84038,-1.6051 0.0458,-0.026 -0.24921,0.1645 -0.78912,0.4055 -0.13358,0.06 -0.27,0.1127 -0.40499,0.169 -1.65931,0.9379 -3.26091,1.8491 -4.95435,2.8176 -1.18168,0.6759 4.71024,-2.7317 3.53877,-2.0383 -1.38983,0.8226 -8.95037,5.1587 -0.82103,0.4908 -1.78226,1.0289 -4.72929,2.3474 -6.32772,4.1116 -0.55978,0.7812 -1.03984,1.606 -1.39681,2.5012 0,0 4.14694,-1.9289 4.14694,-1.9289 z" />
    <path
       style="fill:#ffdc00;fill-opacity:1;stroke-width:0.264583"
       id="path1351"
       d="m 321.5826,202.663 c -0.0389,-0.515 0.019,-1.0252 0.0768,-1.536 0.0636,-0.7027 0.1374,-1.4041 0.17206,-2.109 0.0164,-0.8033 0.11359,-1.602 0.18828,-2.4012 0.0589,-0.65 0.0754,-1.3023 0.0855,-1.9544 0.003,-0.5413 0.009,-1.0825 0.008,-1.6237 0.005,-0.4251 0.003,-0.8502 -0.003,-1.2753 -0.003,-0.4978 0,-0.9957 0.003,-1.4934 0.005,-0.3781 0.003,-0.7561 0.003,-1.1342 0.003,-0.354 0,-0.7081 0.003,-1.0621 0,-0.2877 0.003,-0.5754 0.003,-0.8631 0.003,-0.2552 0,-0.5104 -1.1e-4,-0.7655 0,-0.048 0,-0.096 0,-0.1434 0,0 -1.00883,0.514 -1.00883,0.514 v 0 c 0,0.048 0,0.096 0,0.1443 1.9e-4,0.2552 -0.003,0.5104 -10e-5,0.7656 0,0.2867 0.003,0.5735 0.003,0.8602 0.003,0.3534 1.8e-4,0.7068 0.003,1.0603 0,0.3771 -0.003,0.7543 0.003,1.1314 0,0.4972 0.005,0.9943 0.003,1.4915 -0.004,0.4255 -0.006,0.8511 -1.6e-4,1.2767 0,0.539 0.01,1.078 0.003,1.617 -0.007,0.6478 -0.0249,1.2958 -0.0784,1.9415 -0.0685,0.8012 -0.15975,1.6011 -0.18769,2.4051 -0.0427,0.7032 -0.10753,1.4049 -0.17981,2.1055 -0.062,0.5208 -0.11705,1.0401 -0.10681,1.5655 0,0 1.01531,-0.5173 1.01531,-0.5173 z" />
  </g>
</svg>
