<?xml version="1.0" encoding="UTF-8" standalone="no"?>
<svg
   xmlns:dc="http://purl.org/dc/elements/1.1/"
   xmlns:cc="http://creativecommons.org/ns#"
   xmlns:rdf="http://www.w3.org/1999/02/22-rdf-syntax-ns#"
   xmlns:svg="http://www.w3.org/2000/svg"
   xmlns="http://www.w3.org/2000/svg"
   xmlns:sodipodi="http://sodipodi.sourceforge.net/DTD/sodipodi-0.dtd"
   xmlns:inkscape="http://www.inkscape.org/namespaces/inkscape"
   width="361.60315mm"
   height="235.57751mm"
   viewBox="0 0 361.60315 235.57751"
   version="1.1"
   id="svg1391"
   inkscape:version="1.0.2 (e86c870879, 2021-01-15, custom)"
   sodipodi:docname="cheese-bck.svg">
  <defs
     id="defs1385" />
  <sodipodi:namedview
     id="base"
     pagecolor="#ffffff"
     bordercolor="#666666"
     borderopacity="1.0"
     inkscape:pageopacity="0.0"
     inkscape:pageshadow="2"
     inkscape:zoom="0.24748737"
     inkscape:cx="1043.5088"
     inkscape:cy="196.28192"
     inkscape:document-units="mm"
     inkscape:current-layer="layer1"
     inkscape:document-rotation="0"
     showgrid="false"
     inkscape:window-width="1471"
     inkscape:window-height="967"
     inkscape:window-x="52"
     inkscape:window-y="4"
     inkscape:window-maximized="0" />
  <metadata
     id="metadata1388">
    <rdf:RDF>
      <cc:Work
         rdf:about="">
        <dc:format>image/svg+xml</dc:format>
        <dc:type
           rdf:resource="http://purl.org/dc/dcmitype/StillImage" />
        <dc:title />
      </cc:Work>
    </rdf:RDF>
  </metadata>
  <g
     inkscape:label="Vrstva 1"
     inkscape:groupmode="layer"
     id="layer1"
     transform="translate(39.43847,20.27091)">
    <path
       style="fill:#ffff9a;fill-opacity:1;stroke-width:0.908221"
       d="m 47.66126,205.3217 c -8.44628,-1.1288 -27.47299,-5.1511 -32.40831,-6.8512 -17.18377,-5.9194 -23.901,-12.6888 -29.30773,-29.5355 -2.90903,-9.0641 -1.61137,-12.8373 6.02292,-17.5129 3.58237,-2.194 4.32918,-2.3057 11.40137,-1.706 7.40022,0.6275 11.86426,1.9248 11.86426,3.448 0,2.6144 12.34588,6.1037 29.31802,8.2862 8.49409,1.0922 19.97189,4.7609 27.73047,8.8636 5.5876,2.9547 9.7211,6.8676 13.14433,12.4426 2.39316,3.8974 2.84742,5.556 2.96425,10.8229 0.13431,6.0555 0.0607,6.2752 -2.78188,8.3003 -1.60592,1.1441 -4.9239,2.5293 -7.37325,3.0783 -4.14118,0.9281 -24.53555,1.1707 -30.57445,0.3637 z"
       id="path1207-8" />
    <path
       style="fill:#ffff9a;fill-opacity:1;stroke-width:0.908981"
       d="m 60.08061,135.2289 c -7.55381,-1.401 -14.38539,-6.4747 -18.91141,-14.0451 -2.30548,-3.8562 -2.41942,-4.5872 -1.99707,-12.8093 0.48995,-9.5374 2.07379,-14.3835 6.03806,-18.4745 3.78015,-3.901 6.88089,-5.0948 13.21815,-5.0894 11.78861,0.01 16.69703,2.6749 21.10874,11.4592 2.64673,5.2701 3.01358,6.8799 3.01733,13.2418 0.0103,17.2008 -9.53,28.1179 -22.4738,25.7173 z"
       id="path1209-1" />
    <path
       style="fill:#ffff9a;fill-opacity:1;stroke-width:0.922746"
       d="m 133.75071,77.458 c -15.67915,-3.3689 -20.21173,-8.4113 -20.33979,-22.6276 -0.0855,-9.494 0.55324,-10.4341 11.44677,-16.8467 6.02675,-3.5477 7.68374,-4.1081 12.14633,-4.1081 12.82197,0 20.40539,9.5607 20.40539,25.726 0,8.2582 -1.28388,11.4259 -5.89767,14.5515 -6.10802,4.1379 -10.27534,4.9133 -17.76103,3.3049 z"
       id="path1211-6" />
    <path
       style="fill:#ffff9a;fill-opacity:1;stroke-width:0.966712"
       d="m 165.30761,119.5992 c -6.02243,-1.6659 -12.8803,-5.7433 -14.41887,-8.5729 -1.0525,-1.9357 -1.01589,-2.8999 0.2207,-5.8129 2.1208,-4.9961 7.60519,-7.9877 21.5751,-11.7689 4.6696,-1.2639 6.7887,-2.5352 10.5282,-6.3162 7.7703,-7.8563 18.2167,-25.0755 18.2167,-30.0272 0,-1.9429 0.8929,-2.869 4.3682,-4.531 l 4.3683,-2.0889 4.1578,2.9357 c 2.2867,1.6146 5.2431,4.8261 6.5696,7.1366 2.1861,3.8074 2.402,5.1889 2.3054,14.7507 -0.1339,13.2456 -1.8779,25.6731 -4.2434,30.2369 -2.3802,4.5922 -7.1873,8.6664 -14.2514,12.0786 -5.4284,2.622 -6.4327,2.7695 -20.3266,2.9848 -9.6137,0.1491 -16.14032,-0.195 -19.06973,-1.0053 z"
       id="path1213-4" />
    <path
       style="fill:#ffff9a;fill-opacity:1;stroke-width:0.921977"
       d="m 284.94124,74.6596 c -12.1365,-6.0579 -26.7,-19.4841 -30.7779,-28.3746 -2.6826,-5.8483 -3.2875,-14.5193 -1.2674,-18.1668 1.9379,-3.4991 14.577,-13.3537 19.3053,-15.0522 6.3402,-2.2774 21.0449,-2.2448 27.4851,0.061 5.4865,1.9643 9.7245,6.3755 11.1353,11.5903 1.231,4.5501 1.2275,19.8803 -0.01,30.6176 -1.2927,11.2437 -3.638,16.0957 -9.1704,18.9716 -6.634,3.4485 -10.3446,3.527 -16.703,0.3532 z"
       id="path1215-1" />
    <path
       style="fill:#ffff9a;fill-opacity:1;stroke-width:0.936159"
       d="m 260.48704,199.5755 c -10.3135,-1.7218 -25.4989,-10.6143 -28.6851,-16.798 -6.1999,-12.0322 9.9237,-27.4391 48.9521,-46.776 14.3176,-7.0937 17.9861,-7.9139 21.7461,-4.8618 2.0595,1.6717 2.2267,2.5375 2.5156,13.0261 0.4686,17.0071 -4.2071,37.3601 -10.4782,45.6115 -3.4572,4.5488 -12.2994,8.8463 -20.364,9.8972 -7.7359,1.0081 -7.0241,1.0132 -13.6865,-0.099 z"
       id="path1217-9" />
    <path
       style="fill:#ffff9a;fill-opacity:1;stroke-width:0.220024"
       d="m -35.70246,128.0187 c 0.0541,-0.6814 0.54263,-1.3136 0.64614,-1.5072 0.10352,-0.1935 0.69358,-2.2278 1.31126,-4.5205 0.61768,-2.2928 1.46965,-5.0437 1.89331,-6.1131 0.90036,-2.2729 1.7211,-5.4634 2.23438,-8.6857 0.32253,-2.0249 0.35031,-3.9306 0.23834,-16.345 -0.17253,-19.1285 -0.40677,-22.6303 -1.81463,-27.1286 -0.67281,-2.1498 -2.06515,-8.0523 -2.41554,-10.2401 l -0.15002,-0.9369 1.17854,0.4327 c 0.64819,0.2379 4.15959,1.2131 7.4698,2.367 23.07371,8.0429 25.71913,10.3872 26.89968,23.9514 0.58768,6.7523 -0.26518,14.3529 -2.86175,20.9045 -3.15787,7.9677 -8.69146,14.729 -15.93,20.0966 -3.8485,2.8538 -10.82231,6.1358 -16.36464,8.034 -0.97084,0.3325 -1.53215,0.64 -1.74847,0.7277 -0.36358,0.1473 -0.72161,0.6674 -0.63075,-0.4778 z"
       id="path1231-9"
       sodipodi:nodetypes="sssssssscsssssssss" />
    <path
       style="fill:#ffff9a;fill-opacity:1;stroke-width:0.15767"
       d="m 122.97276,213.7225 c -0.70404,0.02 -1.04321,0.051 -1.08869,0 -0.0455,-0.047 0.42853,-2.0855 0.98855,-3.7884 1.34069,-4.0768 1.90525,-6.4884 2.08991,-8.9277 0.17225,-2.275 0.47336,-3.667 1.10544,-5.1097 1.60622,-3.6665 6.40365,-7.9526 12.29302,-10.9827 2.36589,-1.2172 4.01894,-1.8371 6.90909,-2.5906 3.17154,-0.827 4.82252,-1.4228 7.17223,-2.5883 1.50309,-0.7455 2.12269,-1.1606 3.04884,-2.0424 1.26453,-1.204 2.3147,-1.8839 5.17835,-3.3523 3.44902,-1.7686 4.85043,-2.2712 6.33369,-2.2712 2.24011,0 3.97115,0.9138 9.84805,5.1989 3.8193,2.7848 6.1443,3.9825 13.6923,7.0536 8.9548,3.6435 11.9776,5.5201 14.5597,9.0389 1.6233,2.2121 3.3004,6.1861 4.6013,10.903 0.4617,1.6738 1.9368,8.4261 1.8584,8.5066 -0.029,0.03 -0.4995,-0.02 -1.045,-0.1106 -0.5456,-0.091 -1.7904,-0.1658 -2.7662,-0.1665 -0.9758,0 -2.7263,-0.1068 -3.8898,-0.2358 -1.9863,-0.2204 -3.8943,-0.3029 -17.2082,-0.7446 -3.8639,-0.1282 -9.6322,-0.1269 -21.39423,0 -16.1755,0.1811 -20.01991,0.3009 -23.68919,0.738 -4.85513,0.5785 -6.07332,0.7139 -7.97418,0.8865 -2.42337,0.2201 -8.17885,0.5052 -9.9678,0.5573 z"
       id="path1237-7"
       sodipodi:nodetypes="ssssssssssssssssscsscssss" />
    <path
       style="fill:#ffff9a;fill-opacity:1;stroke-width:0.0577045"
       d="m 90.46289,19.6155 c -0.1393,-0.012 -0.64579,-0.051 -1.12554,-0.087 -1.13701,-0.084 -3.80267,-0.377 -5.12124,-0.5635 C 72.54332,17.314 42.2541,8.9258 31.3227,4.3169 27.93191,2.8873 24.81612,0.8667 22.71861,-1.26287 c -2.13827,-2.17089 -3.22184,-4.33824 -3.22108,-6.44262 0,-1.06621 0.23497,-2.11394 0.62648,-2.7984 0.48989,-0.85644 1.82885,-2.30514 2.94697,-3.18853 4.47237,-3.5335 10.74612,-4.18537 17.38965,-1.80686 0.61906,0.22163 1.56872,0.56552 2.1104,0.76419 1.63543,0.59984 3.11566,0.95213 4.86798,1.1586 1.79799,0.21187 3.66029,0.29201 10.41126,0.44809 l 5.21778,0.22071 0.70583,0.141 c 1.23001,0.24572 1.66124,0.71443 2.93793,0.92785 0.68094,0.11382 1.94835,0.37655 2.72215,0.53672 2.14537,0.44412 4.2583,1.00185 5.83706,1.19116 0.41783,0.0501 2.75581,0.54306 3.49868,0.57702 1.50554,0.0688 2.92118,0.16043 3.60172,0.29265 0.24764,0.0481 1.88168,0.15331 2.54715,0.3281 1.55241,0.40773 1.7268,-0.0759 3.74346,0.21736 1.28387,0.18673 1.81323,0.29032 2.3355,0.45718 0.6632,0.21186 0.69047,0.2276 1.51948,0.87672 0.46427,0.36355 1.59124,1.21605 2.50434,1.89444 3.34535,2.48549 4.90598,3.81446 6.47185,5.51119 1.77359,1.9218 2.76292,3.7114 3.125,5.6527 0.12668,0.6792 0.16955,2.1259 0.0876,2.9523 -0.28001,2.8202 -1.46528,5.2054 -3.51264,7.0684 -1.46236,1.3307 -3.07582,2.2609 -5.32998,3.0728 -1.64544,0.5927 -2.6574,0.7949 -4.13399,0.826 -0.55713,0.012 -1.12694,0.011 -1.26623,0 z"
       id="path1241-9"
       sodipodi:nodetypes="ccssscsssssscssssssssssssscssscc" />
  </g>
</svg>
