<?xml version="1.0" encoding="UTF-8" standalone="no"?>
<svg
   xmlns:dc="http://purl.org/dc/elements/1.1/"
   xmlns:cc="http://creativecommons.org/ns#"
   xmlns:rdf="http://www.w3.org/1999/02/22-rdf-syntax-ns#"
   xmlns:svg="http://www.w3.org/2000/svg"
   xmlns="http://www.w3.org/2000/svg"
   xmlns:sodipodi="http://sodipodi.sourceforge.net/DTD/sodipodi-0.dtd"
   xmlns:inkscape="http://www.inkscape.org/namespaces/inkscape"
   width="361.60315mm"
   height="235.57751mm"
   viewBox="0 0 361.60315 235.57751"
   version="1.1"
   id="svg1391"
   inkscape:version="1.0.2 (e86c870879, 2021-01-15, custom)"
   sodipodi:docname="cheese-base.svg">
  <defs
     id="defs1385" />
  <sodipodi:namedview
     id="base"
     pagecolor="#ffffff"
     bordercolor="#666666"
     borderopacity="1.0"
     inkscape:pageopacity="0.0"
     inkscape:pageshadow="2"
     inkscape:zoom="0.49497475"
     inkscape:cx="1160.3133"
     inkscape:cy="554.15398"
     inkscape:document-units="mm"
     inkscape:current-layer="layer1"
     inkscape:document-rotation="0"
     showgrid="false"
     inkscape:window-width="1471"
     inkscape:window-height="967"
     inkscape:window-x="52"
     inkscape:window-y="4"
     inkscape:window-maximized="0" />
  <metadata
     id="metadata1388">
    <rdf:RDF>
      <cc:Work
         rdf:about="">
        <dc:format>image/svg+xml</dc:format>
        <dc:type
           rdf:resource="http://purl.org/dc/dcmitype/StillImage" />
        <dc:title></dc:title>
      </cc:Work>
    </rdf:RDF>
  </metadata>
  <g
     inkscape:label="Vrstva 1"
     inkscape:groupmode="layer"
     id="layer1"
     transform="translate(39.43847,20.27091)">
    <path
       id="path919-5-5"
       style="fill:#ffe700;fill-opacity:1;stroke-width:2.33205"
       transform="matrix(0.26458333,0,0,0.26458333,-39.43847,-20.27091)"
       d="m 1222.0859,110.7793 c -0.9621,0.0616 -1.9247,0.12822 -2.8886,0.20508 0.1252,0.20053 0.01,0.0174 0.3027,0.47851 -0.037,0.19626 -0.061,0.3963 -0.088,0.5957 0.7551,-0.37314 2.0055,-0.96828 2.6738,-1.27929 z m -3.0039,0.21484 c -0.1414,0.0113 -0.2823,0.0177 -0.4238,0.0293 0.073,0.98115 0.073,1.85875 0.5137,0.72461 0.035,-0.0898 0.1319,-0.17705 0.1054,-0.26953 -0.045,-0.15453 -0.1237,-0.32063 -0.1953,-0.48438 z m -7.084,0.70313 c -28.0691,3.3729 -90.9314,9.93452 -143.4433,14.95312 -54.5118,5.20932 -134.79303,13.57681 -178.40236,18.59375 -95.36655,10.97121 -152.86328,15.27985 -251.86132,18.87305 -91.45157,3.31918 -243.78412,1.47932 -296.16993,-3.57617 -20.522,-1.9801 -59.77078,-4.68921 -87.2207,-6.02149 -28.01571,-1.35987 -78.14313,-6.00401 -114.27148,-10.58594 -35.39876,-4.48894 -75.996958,-8.8049 -90.218754,-9.59179 l -25.857422,-1.43164 -1.544922,32.1875 c -0.848985,17.7033 -1.542968,49.71876 -1.542968,71.14453 v 38.95508 l 32.066406,11.18359 c 85.97303,29.98715 95.91257,38.43767 100.80078,85.68555 7.33142,70.86311 -28.01138,137.4464 -90.890624,171.23047 -12.184932,6.54603 -27.926066,13.71526 -34.980468,15.92968 -7.054451,2.21443 -13.562268,4.68721 -14.462891,5.49414 -2.707427,2.42646 -7.2002607,224.0407 -5.3789064,265.33203 1.5726994,35.65342 2.0425484,38.57681 6.6855474,41.60157 10.905211,7.10475 44.702055,8.74243 213.712892,10.35742 92.99036,0.88857 216.88376,1.81084 275.31836,2.05273 l 106.24414,0.4375 6.27539,-18.59375 c 3.45207,-10.22664 6.28346,-22.03397 6.29101,-26.23632 0.0256,-15.06634 4.81592,-26.00607 16.24219,-37.0918 16.64232,-16.14577 40.21105,-29.15339 60.37305,-33.32031 15.7587,-3.25682 35.42196,-12.20807 38.78906,-17.65625 2.51626,-4.07131 30.16985,-18.13328 38.52734,-19.5918 9.21241,-1.60743 18.45786,2.50577 38.25,17.01953 16.46136,12.07106 26.32829,17.03577 58.1504,29.26367 35.07515,13.4778 47.68202,22.92232 57.73632,43.24219 4.12498,8.33726 9.70887,25.1273 12.40821,37.3125 l 4.9082,22.1543 19.7832,0.75586 c 23.02337,0.88063 157.19875,-3.40511 209.84575,-6.70313 72.2282,-4.52447 182.691,-16.22262 186.1855,-19.7168 2.8263,-2.82633 3.2013,-81.24886 0.5488,-114.91992 -1.4872,-18.87609 -6.3122,-65.27763 -10.7207,-103.11523 -10.2032,-87.56977 -14.3477,-142.23403 -17.414,-229.70703 -2.6048,-58.47591 -3.3534,-88.15265 -16.975,-126.13461 -2.0961,62.2904 -3.0143,43.22964 -14.8605,57.30838 -3.3668,4.00101 -12.4825,10.48588 -20.2559,14.41016 v -0.002 c -17.743,8.95634 -35.9382,10.74731 -49.5449,4.87695 -22.2943,-9.61852 -44.0912,-23.18206 -64.4023,-40.07617 -38.8479,-32.31156 -48.4245,-43.59555 -61.4922,-72.46094 -5.6784,-12.54236 -6.8494,-18.17663 -6.7852,-32.64844 0.086,-19.68189 6.5555,-35.90725 15.7598,-39.52539 2.8335,-1.11382 11.5961,-8.18848 19.4726,-15.7207 14.9201,-14.26834 29.1602,-22.64565 47.1875,-27.4707 -0.097,-0.0523 -0.282,-0.0687 -0.5898,-0.0332 -0.1821,0.021 -0.3689,0.0192 -0.5469,0.0625 -0.3623,0.23318 -0.073,0.0177 -0.012,0.002 0,-9.8e-4 0.01,4e-4 0.012,-0.002 0.083,-0.0533 0,0.008 0.1895,-0.11914 0.714,-0.22548 0.9335,-0.24215 1.7031,-0.31445 0.2396,-0.0224 0.484,-0.002 0.7187,-0.0547 1.5193,-0.3411 1.33,-0.39852 2.6661,-1.29687 0.519,-0.33728 1.0232,-0.6976 1.5566,-1.01172 0.2372,-0.13973 0.6718,-0.19929 0.9258,-0.21289 0.023,-0.001 -0.073,0.0426 -0.051,0.0449 0.034,0.003 0.052,-0.0109 0.082,-0.0117 0.035,-0.0207 0.072,-0.0365 0.1075,-0.0566 -0.1491,-0.46975 0.028,-1.12365 0.7226,-1.77344 0.6564,-0.61373 1.2707,-1.37939 2.0859,-1.80078 1.8109,-0.93598 3.7654,-1.67862 5.6348,-2.47656 0.1717,-0.0732 0.137,-0.0579 0.2852,-0.12109 0.3006,-0.21581 0.6058,-0.42607 0.8925,-0.66016 0.3249,-0.26516 0.5407,-0.64253 0.8086,-0.96484 0.9337,-1.12235 0.6374,-0.74059 1.2207,-1.51954 0.732,-0.69041 0.7996,-0.77312 1.6934,-1.13086 0.2609,-0.10406 0.6761,-0.18698 0.9063,-0.34179 0.1759,-0.11823 0.3074,-0.29146 0.4609,-0.4375 0.2193,-0.19635 0.4344,-0.39841 0.6582,-0.58985 0.2553,-0.21853 0.095,0.0182 0.4141,-0.32812 0.4946,-0.53743 0.8688,-1.12326 1.6269,-1.37305 1.0009,-0.55934 1.9936,-1.14878 2.8906,-1.86914 0.025,-0.0202 0.046,-0.0454 0.07,-0.0664 z m -15.3652,14.8164 c -0.1842,0.11965 -0.3692,0.23907 -0.5527,0.35938 0.017,0.048 0.037,0.0977 0.055,0.14648 0.1739,-0.12208 0.3464,-0.24598 0.5195,-0.36914 -0.01,-0.0463 -0.016,-0.0902 -0.021,-0.13672 z m -534.06249,79.36328 c 29.25173,0 51.82758,10.60196 62.53907,29.3711 19.3637,33.93033 22.50788,91.05951 6.08398,110.57812 -3.22855,3.83698 -12.37217,10.61072 -20.31836,15.05469 -17.37487,9.71641 -33.3245,11.79127 -55.09375,7.16211 -58.04428,-12.34243 -75.73224,-32.50577 -75.77344,-86.375 -0.023,-29.93802 2.73907,-35.34085 25.22461,-49.32813 40.30859,-25.07414 43.31996,-26.46289 57.33789,-26.46289 z m 275.81055,77.98438 c 5.80495,0.0617 11.51122,3.60855 22.24023,11.67383 25.83723,19.42223 30.76966,45.97245 22.76953,122.55664 -4.1997,40.20963 -7.81352,53.59407 -18.25976,67.63086 -8.44384,11.34576 -35.77335,28.97562 -56.32227,36.33398 -9.28025,3.32334 -20.22768,4.28934 -53.63671,4.72852 -23.08725,0.30387 -48.79789,-0.46307 -57.13477,-1.70313 -20.39958,-3.03458 -44.73599,-14.52996 -55.14258,-26.04883 -7.5936,-8.40491 -8.25388,-10.2172 -7.18359,-19.71289 0.64822,-5.75093 3.22692,-13.22115 5.72851,-16.60156 7.82075,-10.56907 31.34936,-22.43648 58.28711,-29.39648 13.8206,-3.5709 27.8457,-7.87261 31.16602,-9.56055 23.59634,-11.99282 83.46185,-103.47975 77.64062,-118.65039 -1.96686,-5.12542 2.72255,-10.00513 16.15235,-16.81055 5.70567,-2.89122 9.7235,-4.48166 13.69531,-4.43945 z M 368.48633,397.52539 c 19.10314,0.083 43.53415,4.44579 53.32812,10.18555 21.27738,12.46941 38.10149,48.46073 38.04102,81.3789 -0.0813,44.3263 -16.91634,79.34267 -44.83594,93.25586 -14.61966,7.28504 -31.62526,7.74572 -51.49609,1.39649 -24.41001,-7.79944 -46.80762,-27.96767 -59.15235,-53.26367 -5.8131,-11.91194 -6.46305,-15.66727 -6.32812,-36.59375 0.36234,-56.29153 21.42116,-90.85003 58.31445,-95.69727 3.59581,-0.47246 7.72049,-0.68127 12.12891,-0.66211 z m 899.30277,174.48242 c 9.3286,0 19.3315,6.759 23.7324,16.03321 4.7626,10.03653 5.3996,64.01368 1.0898,92.40625 -6.8802,45.32636 -19.8488,85.69279 -34.1679,106.35546 -8.013,11.56234 -26.7775,24.30207 -46.75,31.73829 -19.6872,7.32963 -58.4057,9.36258 -82.5059,4.33203 -17.1466,-3.57922 -50.2876,-18.19206 -66.4023,-29.2793 -46.7154,-32.1411 -48.0189,-60.86874 -4.7071,-103.75391 10.399,-10.29656 26.8,-24.16897 36.4473,-30.82812 24.559,-16.95269 88.3852,-52.98142 109.2422,-61.66602 9.5947,-3.99534 20.6134,-9.56416 24.4863,-12.375 7.9673,-5.7823 29.8686,-12.96289 39.5352,-12.96289 z m -1134.01957,74.01953 29.55078,1.08399 c 32.2859,1.18526 40.00759,3.59042 48.47071,15.09179 7.79591,10.59515 40.34682,19.18483 96.1582,25.37305 39.75726,4.40769 46.20507,5.91518 80.48047,18.83399 38.23476,14.41058 58.92823,27.43762 72.70703,45.76757 17.39051,23.13449 20.44798,30.67695 21.59375,53.27539 0.94892,18.7166 0.65075,20.40709 -4.45313,25.16211 -11.1219,10.36158 -27.85508,16.29975 -53.0332,18.82032 -36.59463,3.66349 -69.88718,2.60601 -111.10742,-3.5293 C 235.66518,834.226 193.76636,822.91791 162.34375,804.93945 127.05196,784.74695 116.10644,770.43938 99.441406,722.7168 90.981652,698.49116 90.706713,696.78088 93.287109,684.47852 96.562032,668.86529 99.858077,664.992 118.95117,654.31445 Z"
       sodipodi:nodetypes="scccssccsccccssccccccsccscscscscccccsscssccccssscccsccscccsccsccccsscsscccssscscccscsccsccccccccscsccsssscccscccscscsssscsccscsssssccssscssscccccssssccsssc" />
    <path
       style="fill:#ffe700;fill-opacity:1;stroke-width:0.617022"
       d="M 74.87321,24.7171 C 69.4884,24.4503 59.215,23.6713 52.04345,22.986 44.87189,22.3008 35.95,21.5781 32.21702,21.38 19.24366,20.6916 9.30898,19.7366 -4.18719,17.8807 c -7.46595,-1.0266 -17.02666,-2.048 -21.24603,-2.2698 l -7.67158,-0.4031 8.11944,-4.8864 C -13.2941,3.2856 -7.66812,-1.16744 2.32969,-11.29853 l 8.85434,-8.97238 h 5.44286 c 5.00092,0 13.170578,1.835575 26.24702,4.488339 l 3.202929,0.778794 -1.616201,0.369899 c 0,0 -1.394081,0.878689 -5.236321,-0.555121 -7.48247,-2.79225 -12.372097,-1.625181 -16.825817,2.700219 -1.80794,1.75585 -2.21338,2.59878 -2.21338,4.60177 0,3.43626 3.66296,7.31902 9.59753,10.17341 8.33045,4.0068 42.89124,13.2076 54.34976,14.4691 6.13171,0.675 7.21506,0.6429 10.04574,-0.2973 5.62903,-1.8696 8.68773,-5.5722 8.68773,-10.5165 0,-3.9906 -2.43522,-7.0522 -9.51185,-11.95852 -2.00759,-1.39188 2.477322,-1.562136 2.632692,-1.562136 0.15536,0 1.211918,0.126096 9.681678,1.464016 69.72934,11.01474 98.76384,13.76584 154.22924,14.61374 12.8957,0.1971 25.01616,-0.020364 26.5318,0.7764 0.60901,0.320153 -0.76389,0.6081235 -8.0212,1.7926 -6.1085,0.7559 -18.3255,2.0774 -27.1489,2.9366 -22.3825,2.1794 -35.9055,3.6064 -57.6915,6.0878 -23.78251,2.7089 -41.14245,3.9154 -67.25518,4.6743 -23.23702,0.6753 -37.08721,0.662 -51.43945,-0.049 z"
       id="path921-1-4"
       sodipodi:nodetypes="cccccccscsscsssscccsssssscccscc" />
    <path
       style="fill:#ffdc00;fill-opacity:1;stroke-width:0.264583"
       id="path1303"
       d="m -33.33813,17.5615 c 3.7048,-0.057 7.39595,0.4698 11.06765,0.905 5.22981,0.7308 10.47081,1.3737 15.69278,2.1593 5.18226,0.6707 10.35278,1.4199 15.51697,2.2158 3.56116,0.6456 7.15184,1.0902 10.73515,1.5895 5.02941,0.7221 10.07435,1.3382 15.12837,1.8598 6.48687,0.592 12.98207,1.0836 19.47048,1.6572 5.51309,0.5629 11.02799,1.0661 16.56384,1.3328 5.12503,0.2007 10.25525,0.142 15.37573,0.4484 5.4919,0.5142 10.97989,1.0309 16.48788,1.3415 5.61237,0.4646 11.23305,0.7592 16.85983,0.9785 5.53882,0.1043 11.07382,0.2949 16.6084,0.5317 4.73411,0.2363 9.47441,0.2625 14.21321,0.2888 5.04192,0.019 10.08393,0.015 15.12591,0.011 5.77458,-0.037 11.54919,-0.024 17.32383,-0.012 5.80274,-0.014 11.60544,-0.01 17.40815,-0.01 5.03656,-0.062 10.06534,-0.3431 15.08025,-0.8032 3.18704,-0.2425 6.36029,-0.6216 9.54071,-0.9308 0.49597,-0.038 0.99161,-0.08 1.48792,-0.113 0.48458,-0.032 0.97062,-0.043 1.45459,-0.084 1.51549,-0.1269 3.01498,-0.4005 4.51398,-0.6478 1.76655,-0.2611 3.53436,-0.5137 5.30413,-0.7527 1.86632,-0.2771 3.72901,-0.5783 5.60784,-0.758 0.92914,-0.05 1.84687,-0.2082 2.77027,-0.3135 0.75869,-0.083 1.52252,-0.092 2.28489,-0.099 0.69273,0 1.38546,0 2.0782,0 0.49913,0.01 0.99869,-0.012 1.49725,0.015 0,0 3.74205,-2.642 3.74205,-2.642 v 0 c -0.50683,-0.1049 -1.02391,-0.048 -1.53956,-0.061 -0.69701,-2e-4 -1.39401,0 -2.091,0 -0.76954,0 -1.54069,0 -2.30828,0.059 -0.93974,0.093 -1.86655,0.2814 -2.80873,0.3475 -1.90715,0.1879 -3.7955,0.5071 -5.68852,0.801 -1.76141,0.2127 -3.52261,0.432 -5.27542,0.7067 -1.51122,0.2731 -3.0299,0.6028 -4.56046,0.7458 -0.48652,0.045 -0.97603,0.05 -1.46368,0.081 -0.49808,0.032 -0.99563,0.071 -1.49344,0.1066 -3.2063,0.2843 -6.3967,0.7295 -9.60723,0.9772 -5.04643,0.529 -10.11,0.8809 -15.18592,0.932 -5.79451,0 -11.58902,0 -17.38352,-0.01 -5.76665,0.013 -11.53324,0.028 -17.29984,-0.01 -5.03668,0 -10.0734,0 -15.11006,-0.019 -4.74432,-0.03 -9.48854,-0.092 -14.2303,-0.2593 -5.54736,-0.198 -11.09252,-0.445 -16.64382,-0.508 -5.61605,-0.1823 -11.21786,-0.5405 -16.81779,-0.9998 -5.51148,-0.2737 -11.0014,-0.7707 -16.49018,-1.3348 -0.8826,-0.059 -1.76419,-0.1356 -2.64782,-0.1758 C 82.71992,26.9161 78.47359,27.0179 74.23687,26.8216 68.68007,26.5786 63.14149,26.1159 57.60781,25.5563 51.11676,25.0041 44.61939,24.5286 38.1339,23.9119 33.13441,23.3508 28.14945,22.6613 23.16869,21.9552 19.58758,21.4198 16.00065,20.9287 12.42245,20.3743 7.2212,19.657 2.02348,18.9139 -3.18137,18.2224 -8.3974,17.4271 -13.62823,16.7541 -18.85516,16.035 c -3.58743,-0.4513 -7.17724,-0.9882 -10.79031,-1.1693 0,0 -3.69266,2.6829 -3.69266,2.6829 z" />
    <path
       style="fill:#ffdc00;fill-opacity:1;stroke-width:0.264583"
       id="path1317"
       d="m 300.00863,75.6337 c 0.71808,2.5013 1.4572,5.0009 2.30704,7.4614 1.23888,3.2346 2.54262,6.4407 3.69726,9.7073 0.81391,2.2591 1.15445,4.6279 1.30712,7.0117 0.0405,2.4347 0.13888,4.8601 0.4246,7.2795 0.39743,3.3721 0.88107,6.7331 1.30646,10.1018 0.28829,2.1905 0.40034,4.3965 0.46329,6.603 0.0172,2.1851 0.0418,4.3703 0.0357,6.5554 0.003,2.5823 -0.007,5.1647 0.008,7.747 0.0212,3.1262 0.0148,6.2526 0.006,9.3788 0.0103,3.019 0.0167,6.0378 -0.0183,9.0566 0.0444,1.6568 -0.12171,3.3275 -0.0169,4.9832 0.0293,0.463 0.0966,0.9229 0.14489,1.3844 0.42111,2.8902 0.74948,5.791 0.94604,8.705 0.10679,1.5407 0.0666,3.0842 0.21127,4.6218 0.0723,0.8325 0.14409,1.6589 0.27966,2.483 0.28332,0.9562 0.6249,1.8874 1.02593,2.7997 0.71016,1.7649 1.22724,3.6069 1.78771,5.4249 0.53975,1.3963 0.77689,2.8695 1.08611,4.3241 0.21095,1.3567 0.52726,2.6926 0.91136,4.0108 0.2885,0.8891 0.51691,1.7925 0.61388,2.7226 0.0895,0.7901 0.16394,1.5923 0.32732,2.3717 0.17539,0.8557 0.37809,1.7036 0.60195,2.5477 0.19931,0.7096 0.28581,1.4394 0.32489,2.173 0.0167,0.4688 0.0103,0.2324 0.0188,0.7094 0,0 4.06334,-2.0808 4.06334,-2.0808 v 0 c -0.0114,-0.489 -0.004,-0.2455 -0.0222,-0.7305 -0.0579,-0.7584 -0.17272,-1.5098 -0.38827,-2.2411 -0.2268,-0.8357 -0.39614,-1.6817 -0.57457,-2.5287 -0.14568,-0.7737 -0.23564,-1.5598 -0.30718,-2.3436 -0.13171,-0.9448 -0.39479,-1.8581 -0.70377,-2.7598 -0.3946,-1.3125 -0.66339,-2.6459 -0.86675,-3.9991 -0.33562,-1.4545 -0.64775,-2.917 -1.18562,-4.3155 -0.59507,-1.8308 -1.07267,-3.6993 -1.73262,-5.5057 -0.36859,-0.8847 -0.71792,-1.7789 -0.95327,-2.7101 -0.12031,-0.814 -0.18651,-1.6334 -0.28856,-2.4499 -0.16081,-1.5178 -0.15345,-3.0465 -0.29935,-4.5661 -0.26963,-2.9025 -0.6469,-5.7915 -0.98051,-8.687 -0.11727,-2.1136 -0.0455,-4.2296 -0.0934,-6.3459 -0.0353,-3.0126 -0.0283,-6.0252 -0.0183,-9.038 -0.009,-3.1285 -0.0151,-6.2572 0.008,-9.3856 0.0172,-2.5871 0.0116,-5.1743 0.0209,-7.7614 0,-2.1935 0.0457,-4.3875 -0.0116,-6.5807 -0.0477,-2.2137 -0.22934,-4.4184 -0.55542,-6.6097 -0.48596,-3.3539 -0.96533,-6.7104 -1.31984,-10.0812 -0.13068,-1.3488 -0.19106,-1.7302 -0.23252,-3.0516 -0.0447,-1.4224 0.0353,-2.848 -0.0842,-4.2685 -0.21135,-2.4062 -0.59838,-4.7971 -1.45616,-7.0682 -1.20828,-3.2416 -2.50323,-6.4488 -3.71036,-9.6907 -0.83339,-2.464 -1.58385,-4.9728 -2.08269,-7.5274 0,0 -4.02498,2.163 -4.02498,2.163 z" />
    <path
       style="fill:#ffdc00;fill-opacity:1;stroke-width:0.264583"
       id="path1319"
       d="m 303.5768,73.6973 c 0.33396,-0.5571 0.52883,-1.177 0.69872,-1.799 0,0 -4.10189,1.9409 -4.10189,1.9409 v 0 c -0.19743,0.5959 -0.41627,1.1854 -0.79463,1.6948 0,0 4.1978,-1.8367 4.1978,-1.8367 z" />
    <path
       style="fill:#ffdc00;fill-opacity:1;stroke-width:0.264583"
       id="path1321"
       d="m -34.51413,17.5898 c 0.0299,1.07 0.0114,2.1406 0.018,3.211 0,1.0902 0,2.1805 -0.005,3.2707 0.0959,0.957 0.20262,1.9115 0.25633,2.8721 0.0556,1.1426 0.0558,2.287 0.0652,3.4307 -0.0502,1.5089 0.0723,3.0115 0.16362,4.516 0.1469,1.5001 0.29565,2.9999 0.38367,4.5048 0.0761,0.9005 1.3e-4,1.8064 -0.18573,2.6891 -0.20969,0.8088 -0.22606,1.6527 -0.40061,2.4657 -0.18164,0.6144 -0.12486,1.2822 -0.43058,1.8528 -0.21662,0.4893 -0.5106,0.9162 -0.65546,1.4359 -0.15009,0.7691 -0.11784,1.5608 -0.12509,2.3409 -0.0109,0.8652 -0.007,1.7304 -0.008,2.5956 -2.7e-4,0.1266 0,0.2532 0,0.3798 0,0 4.06495,-2.0723 4.06495,-2.0723 v 0 c 0,-0.1261 -0.003,-0.2522 -0.003,-0.3782 -0.005,-0.8606 -0.008,-1.7213 -0.004,-2.5818 0.0132,-0.7444 0,-1.5121 0.2254,-2.2292 0.20055,-0.4791 0.48731,-0.9184 0.65931,-1.4115 0.18749,-0.6305 0.23035,-1.2912 0.38013,-1.9315 0.12327,-0.8202 0.19894,-1.6481 0.38822,-2.4578 0.14838,-0.923 0.22918,-1.8536 0.1211,-2.7868 -0.13205,-1.4911 -0.32258,-2.9764 -0.4369,-4.4692 -0.0812,-1.504 -0.14648,-3.0065 -0.11515,-4.5133 0.003,-1.1565 0.003,-2.3133 -0.0492,-3.4689 -0.0642,-0.9502 -0.17417,-1.8954 -0.24886,-2.8444 -0.004,-1.0886 -0.006,-2.1773 -0.005,-3.2659 0.007,-1.0765 -0.0116,-2.1532 0.018,-3.2294 0,0 -4.07255,2.0751 -4.07255,2.0751 z" />
    <path
       style="fill:#ffdc00;fill-opacity:1;stroke-width:0.264583"
       id="path1325"
       d="m -38.57286,130.4819 c -0.27445,2.0732 -0.45238,4.1565 -0.5924,6.2428 -0.13086,2.2419 -0.21328,4.4861 -0.24077,6.7316 -0.0287,1.6274 -0.0116,3.255 -0.007,4.8824 0.003,1.2865 -0.0249,2.5729 -0.0222,3.8593 -0.0243,1.627 0.0933,3.2494 0.17907,4.8729 0.037,1.3709 0.23657,2.7295 0.35298,4.0944 0.0799,1.1582 0.0853,2.3198 0.10359,3.4801 0.0172,1.4173 0,2.8345 -0.0161,4.2517 -0.008,0.8867 -0.008,1.7733 -0.0119,2.66 -0.0106,0.8368 0,1.6734 0.0167,2.51 0.0257,1.5875 0.0204,3.1754 0.007,4.7631 -0.0201,1.0343 -0.0156,2.0686 -0.0156,3.103 -0.006,1.0424 0.003,2.0846 0.008,3.127 0.009,1.0819 -0.0114,2.1636 -0.0124,3.2455 -0.01,1.2635 0.0275,2.5265 0.0381,3.7898 0.003,1.4573 -0.0164,2.9145 -0.0341,4.3716 -0.013,0.7677 -0.01,1.5355 -0.0106,2.3033 0.0119,1.0607 0.0182,2.1215 0.0185,3.1824 -0.0479,1.0116 0.013,2.0105 0.13774,3.0133 0.0938,0.9393 0.40823,1.833 0.58126,2.7602 0.0654,0.9071 0.43305,1.6341 1.03442,2.2961 0.47358,0.5027 1.00081,0.9503 1.44298,1.4826 0.37007,0.4799 0.74639,0.8896 1.30453,1.1414 0.56938,0.1982 1.17745,0.2028 1.77334,0.2131 1.45765,-0.026 2.91566,-0.045 4.37301,0 1.88968,0.1007 3.78079,0.171 5.67195,0.2369 1.6205,0.052 3.24247,0.036 4.86363,0.038 1.40626,0 2.81246,0.014 4.21872,0.01 1.64669,-0.088 3.27544,0.1623 4.9035,0.3683 2.75968,0.2938 5.50519,0.7012 8.24653,1.1308 1.73138,0.2935 3.46303,0.561 5.21915,0.6211 1.90045,0.025 3.80108,0.031 5.70166,0.042 1.4419,-0.059 2.88505,-0.163 4.3098,-0.3951 1.3289,-0.2865 2.64882,-0.5928 4.00182,-0.7376 1.76774,-0.1312 3.54254,-0.1281 5.31413,-0.1236 1.71562,0 3.4312,0.01 5.14681,0.01 2.31495,0 4.62976,-0.017 6.94465,-0.028 2.63115,-0.033 5.26217,0.019 7.89321,0.025 1.98131,0 3.96259,-0.01 5.94387,0 1.35694,0.015 2.71391,0.016 4.0709,0.011 1.46029,-0.06 2.91619,-0.1867 4.37655,-0.248 1.94829,-0.228 3.88959,-0.508 5.84145,-0.7089 1.8715,-0.187 3.7515,-0.2495 5.63107,-0.2769 1.78774,0.037 3.56801,-0.1364 5.35387,-0.1706 1.60867,-0.018 3.21022,0.059 4.80502,0.2639 1.30051,0.1287 2.60691,0.177 3.91287,0.2069 1.28217,0.02 2.56463,0.014 3.84694,0.011 1.46822,0 2.93642,-0.01 4.40465,0 1.2446,0.01 2.48928,0 3.7339,0.01 1.07037,0 2.14075,0.01 3.21112,0 1.05651,0.01 2.11291,0 3.16939,-0.01 1.43724,-0.017 2.87451,-2e-4 4.31173,0.01 1.15737,0 2.31471,0 3.47207,0 0.94446,0.013 1.89005,-0.019 2.83369,0.026 0.7738,0.083 1.54453,0.1878 2.3209,0.2461 0.73768,-0.012 1.44073,0.097 2.15315,0.2773 0.60677,0.1655 1.22664,0.265 1.85111,0.3311 0,0 3.7199,-2.654 3.7199,-2.654 v 0 c -0.6129,-0.041 -1.2242,-0.1086 -1.82073,-0.262 -0.40269,-0.1024 -0.82195,-0.2663 -1.23078,-0.3337 -0.31182,-0.051 -0.6462,0.031 -0.9593,-0.022 -0.78079,-0.039 -1.55782,-0.1182 -2.33199,-0.2276 -0.95112,-0.1078 -1.91143,-0.025 -2.86716,-0.048 -1.15895,0 -2.3179,0 -3.47686,0 -1.44216,0.01 -2.88438,0.023 -4.32654,0.01 -1.04929,-0.01 -2.09847,-0.017 -3.14775,-0.01 -1.07426,0 -2.14853,0 -3.22276,0 -1.25045,0 -2.50092,0 -3.75137,0.01 -1.46603,0 -2.93206,0 -4.39811,-3e-4 -1.27649,0 -2.553,0 -3.82948,-0.014 -1.29418,-0.017 -2.58998,-0.044 -3.87879,-0.1731 -1.63253,-0.1917 -3.26657,-0.2743 -4.91167,-0.2593 -1.77909,-0.01 -3.54944,0.1644 -5.32887,0.1484 -1.89743,0.029 -3.7956,0.074 -5.68486,0.2685 -1.92932,0.1949 -3.85768,0.4081 -5.77572,0.6953 -1.45558,0.052 -2.90685,0.1526 -4.35941,0.2572 -1.36721,-0.01 -2.73436,0 -4.10155,0.011 -1.98381,0.011 -3.96763,0 -5.95145,0 -2.65396,0.01 -5.30786,0.058 -7.9619,0.025 -2.28684,-0.011 -4.57361,-0.026 -6.86048,-0.032 -1.71739,-0.01 -3.43475,0 -5.15213,0 -1.76816,0.01 -3.53743,-0.01 -5.30439,0.067 -1.37809,0.102 -2.71645,0.3866 -4.05495,0.7277 -1.40036,0.2785 -2.82739,0.3109 -4.24702,0.4473 -1.90055,0.018 -3.80182,0.035 -5.70195,-0.02 -1.76784,-0.07 -3.52565,-0.25 -5.27482,-0.52 -2.72785,-0.3951 -5.4466,-0.8535 -8.18327,-1.1834 -1.62295,-0.2357 -3.25241,-0.5075 -4.89728,-0.4475 -1.41626,0 -2.83241,0.01 -4.24867,0.013 -1.61608,0 -3.232,-0.01 -4.84791,-0.035 -1.88997,-0.032 -3.77957,-0.093 -5.66515,-0.2315 -1.43629,-0.085 -2.87544,-0.015 -4.31359,-0.062 -0.55935,0 -1.12418,0.01 -1.67687,-0.089 -0.54086,-0.1455 -0.84201,-0.5004 -1.1843,-0.9292 -0.4435,-0.5477 -0.9702,-1.0084 -1.47085,-1.5007 -0.56597,-0.5847 -0.83759,-1.256 -0.91929,-2.0686 -0.18513,-0.9145 -0.47358,-1.8099 -0.55478,-2.7414 -0.13121,-0.9791 -0.17034,-1.9573 -0.14166,-2.9456 0,-1.0672 0.007,-2.1342 0.0185,-3.2013 0,-0.7642 0.003,-1.5283 -0.0106,-2.2924 -0.018,-1.4456 -0.0371,-2.8911 -0.0341,-4.3368 0.0106,-1.2763 0.0476,-2.5523 0.0381,-3.8287 0,-1.0776 -0.0214,-2.1551 -0.0124,-3.2327 0.007,-1.0453 0.0143,-2.0904 0.008,-3.1357 1.1e-4,-1.0291 0.005,-2.0581 -0.0156,-3.0871 -0.0135,-1.59 -0.0185,-3.1802 0.007,-4.77 0.0175,-0.8423 0.0272,-1.6845 0.0169,-2.527 -0.003,-0.883 -0.003,-1.766 -0.009,-2.649 -0.0148,-1.4126 -0.0266,-2.8253 -0.0164,-4.238 0.008,-1.177 0.0122,-2.3562 -0.0896,-3.53 -0.12504,-1.3501 -0.37404,-2.6882 -0.41129,-4.0464 -0.089,-1.6282 -0.15362,-3.2552 -0.10089,-4.8861 0.003,-1.278 -0.0288,-2.5559 -0.0283,-3.8339 0,-1.6245 0.008,-3.2491 0,-4.8736 0.0151,-2.2251 0.0356,-4.4517 0.18431,-6.6728 0.15764,-2.1125 0.3719,-4.2207 0.75825,-6.3054 0,0 -4.09493,2.0297 -4.09493,2.0297 z" />
    <path
       style="fill:#ffdc00;fill-opacity:1;stroke-width:0.264583"
       id="path1333"
       d="m 209.72851,213.1589 c 1.72366,-0.042 3.44792,-0.031 5.17189,-0.03 3.66332,-0.1392 7.31166,0.2454 10.95225,0.5986 3.02376,0.297 6.04369,0.6433 9.07375,0.8719 2.36352,0.1269 4.73234,0.051 7.09795,0.044 2.15117,0 4.30212,0.037 6.45327,0.038 3.34018,-0.2667 6.65779,-0.7679 9.9768,-1.2206 1.83099,-0.1922 3.63233,-0.573 5.44258,-0.8939 2.1748,-0.2808 4.33536,-0.655 6.5033,-0.9818 2.53098,-0.3466 5.09548,-0.3275 7.64482,-0.3488 2.25227,0 4.50453,0.019 6.75664,0.046 1.37731,0.1033 2.72619,-0.184 4.08514,-0.3511 1.40369,-0.1748 2.81951,-0.1749 4.22873,-0.2669 1.50643,-0.1423 3.00776,-0.351 4.49432,-0.6337 1.45674,-0.305 2.87935,-0.7445 4.33215,-1.0667 1.7077,-0.4556 3.46774,-0.5945 5.22531,-0.6917 1.3444,-0.1205 2.65869,-0.4131 4.00423,-0.5418 1.4387,-0.1502 2.88539,-0.2079 4.29086,-0.5681 0.75393,-0.1759 1.49354,-0.405 2.24242,-0.5994 0.0989,-0.021 0.1978,-0.042 0.2967,-0.062 0,0 3.65345,-2.7531 3.65345,-2.7531 v 0 c -0.10414,0.015 -0.20826,0.03 -0.3124,0.045 -0.77321,0.1561 -1.5077,0.4468 -2.2806,0.6053 -0.0776,0.023 -1.00253,0.292 -1.05203,0.3027 -1.05892,0.229 -2.15877,0.2114 -3.22848,0.3612 -0.72712,0.052 -1.44994,0.1026 -2.16918,0.2267 -0.38362,0.066 -0.75843,0.1782 -1.14216,0.2437 -0.22862,0.039 -0.46045,0.056 -0.69069,0.084 -1.763,0.1057 -3.5496,0.1737 -5.26336,0.6348 -1.45351,0.2976 -2.87493,0.7151 -4.31768,1.0588 -1.4623,0.329 -2.95203,0.5184 -4.44299,0.6635 -1.41793,0.1455 -2.85131,0.111 -4.26868,0.2807 -1.35094,0.1377 -2.68078,0.4474 -4.04373,0.384 -2.29915,0.018 -4.59836,0.031 -6.89748,0.052 -2.51828,0.01 -5.05322,-0.087 -7.55891,0.2036 -2.16143,0.3503 -4.31146,0.7838 -6.49552,0.9749 -1.86856,0.2607 -3.69038,0.7969 -5.57035,0.9981 -3.25707,0.4858 -6.5169,0.9469 -9.80458,1.1707 -2.19324,0.01 -4.38616,0.056 -6.57948,0.054 -2.3242,-0.01 -4.64902,-0.026 -6.97211,-0.1015 -3.09666,-0.1426 -6.18657,-0.4008 -9.27074,-0.7107 -3.5824,-0.3637 -7.17044,-0.824 -10.77743,-0.7773 -1.69675,0 -3.39381,0.013 -5.09019,-0.03 0,0 -3.69779,2.6866 -3.69779,2.6866 z" />
    <path
       style="fill:#ffdc00;fill-opacity:1;stroke-width:0.264583"
       id="path1337"
       d="m -30.91069,16.1945 c 0.35941,-0.8582 0.83622,-1.6517 1.43034,-2.3672 1.32742,-1.2256 5.36726,-3.3946 -1.37827,0.5311 14.21035,-8.2855 -8.99395,5.2597 5.05863,-2.9411 1.187,-0.6928 -2.38038,1.3745 -3.56683,2.0682 -0.23566,0.1378 0.48155,-0.2574 0.72271,-0.3854 1.90217,-0.8826 3.63914,-1.999 5.47087,-3.0563 0.50398,-0.291 0.2321,-0.1077 0.67728,-0.4407 0.0969,-0.063 0.20413,-0.112 0.29062,-0.1886 0.0873,-0.077 0.13803,-0.19 0.22506,-0.2676 0.10178,-0.091 0.22809,-0.15 0.33641,-0.2329 0.6022,-0.4609 1.2046,-0.861 1.85423,-1.2569 0.24167,-0.1482 0.48085,-0.3005 0.72499,-0.4446 2.88977,-1.7055 -4.66548,2.62 -2.06312,1.2569 0.15605,-0.082 0.31348,-0.1611 0.46606,-0.2491 1.43651,-0.8285 2.86729,-1.6668 4.30094,-2.5002 -7.90361,4.5983 -0.91512,0.5264 0.856,-0.4754 1.15711,-0.6545 -4.60906,2.652 -3.4509,1.9993 1.8498,-1.0424 3.42445,-1.9282 5.11326,-3.0018 0.98332,-0.5399 1.90589,-1.1632 2.82183,-1.8064 -1.12588,0.6608 -2.25711,1.3126 -3.37767,1.9824 -0.15788,0.094 0.32512,-0.1722 0.48897,-0.2557 0.19455,-0.099 0.39032,-0.1961 0.58619,-0.2927 0.48144,-0.2375 0.90276,-0.4291 1.37364,-0.6971 1.52651,-0.8689 3.04353,-1.7545 4.5653,-2.6317 1.15181,-0.7619 2.36874,-1.44531 3.44104,-2.32005 0.67929,-0.5325 1.28305,-1.124 1.86598,-1.7599 0.65928,-0.78753 1.34643,-1.54514 1.88616,-2.42287 0.41542,-0.73089 1.12257,-1.1335 1.76262,-1.63494 0.71036,-0.56753 1.4124,-1.13184 2.06031,-1.77057 0.46885,-0.61658 0.97155,-1.20385 1.5429,-1.72704 0.60878,-0.61502 1.21586,-1.23542 1.81033,-1.86481 0.62214,-0.66762 1.24365,-1.35324 1.72344,-2.13159 0.56034,-0.72921 1.09411,-1.48211 1.73569,-2.14291 0.36386,-0.52509 0.88117,-0.90622 1.2949,-1.38255 0.45416,-0.43535 0.89892,-0.88332 1.3194,-1.35364 0.0752,-0.0829 0.15041,-0.16584 0.22564,-0.24879 0,0 -4.21418,1.76769 -4.21418,1.76769 v 0 c -0.0764,0.0828 -0.15275,0.16568 -0.2291,0.24852 -0.43501,0.45868 -0.88371,0.9044 -1.33089,1.35115 -0.45164,0.43434 -0.86505,0.904 -1.26862,1.38292 -0.59801,0.70768 -1.16853,1.4387 -1.69873,2.19877 -0.53406,0.72966 -1.12466,1.4157 -1.76041,2.05901 -0.61253,0.61563 -1.18602,1.26847 -1.82417,1.85835 -0.53183,0.55941 -1.02324,1.1511 -1.5422,1.72112 -0.65585,0.61259 -1.36406,1.16343 -2.06774,1.71963 -0.67072,0.50538 -1.29284,1.02476 -1.70273,1.77737 -0.57063,0.83129 -1.23981,1.58538 -1.90452,2.34206 -0.59537,0.61529 -1.24447,1.16443 -1.91027,1.70187 -1.09312,0.8053 -2.23882,1.5376 -3.40045,2.2394 1.03862,-0.5962 2.08087,-1.1862 3.11587,-1.7887 0.43426,-0.2528 -0.88691,0.4734 -1.33991,0.6909 -1.88349,0.9044 -3.68736,1.8297 -5.4438,3.0468 -0.91585,0.6469 -1.88172,1.2095 -2.8403,1.7898 -0.13803,0.087 -0.27527,0.1754 -0.41407,0.2612 -0.13222,0.082 -0.5338,0.3186 -0.39892,0.2414 1.15869,-0.6629 4.63177,-2.6569 3.47041,-1.9987 -14.31867,8.1152 9.08981,-5.13249 -5.17782,2.9683 1.15584,-0.6627 2.31196,-1.3248 3.4675,-1.988 0.1551,-0.089 -0.30895,0.1804 -0.46619,0.2656 -0.17587,0.095 -0.35859,0.1778 -0.53295,0.2758 -1.95501,1.0987 -3.93097,2.175 -5.83621,3.3624 -0.96769,0.6136 -1.86994,1.2995 -2.77662,1.9951 -1.33096,0.8313 -3.45157,2.0166 2.84038,-1.6051 0.0458,-0.026 -0.24921,0.1645 -0.78912,0.4055 -0.13358,0.06 -0.27,0.1127 -0.40499,0.169 -1.65931,0.9379 -3.26091,1.8491 -4.95435,2.8176 -1.18168,0.6759 4.71024,-2.7317 3.53877,-2.0383 -1.38983,0.8226 -8.95037,5.1587 -0.82103,0.4908 -1.78226,1.0289 -4.72929,2.3474 -6.32772,4.1116 -0.55978,0.7812 -1.03984,1.606 -1.39681,2.5012 0,0 4.14694,-1.9289 4.14694,-1.9289 z" />
    <path
       style="fill:#ffdc00;fill-opacity:1;stroke-width:0.264583"
       id="path1351"
       d="m 321.5826,202.663 c -0.0389,-0.515 0.019,-1.0252 0.0768,-1.536 0.0636,-0.7027 0.1374,-1.4041 0.17206,-2.109 0.0164,-0.8033 0.11359,-1.602 0.18828,-2.4012 0.0589,-0.65 0.0754,-1.3023 0.0855,-1.9544 0.003,-0.5413 0.009,-1.0825 0.008,-1.6237 0.005,-0.4251 0.003,-0.8502 -0.003,-1.2753 -0.003,-0.4978 0,-0.9957 0.003,-1.4934 0.005,-0.3781 0.003,-0.7561 0.003,-1.1342 0.003,-0.354 0,-0.7081 0.003,-1.0621 0,-0.2877 0.003,-0.5754 0.003,-0.8631 0.003,-0.2552 0,-0.5104 -1.1e-4,-0.7655 0,-0.048 0,-0.096 0,-0.1434 0,0 -1.00883,0.514 -1.00883,0.514 v 0 c 0,0.048 0,0.096 0,0.1443 1.9e-4,0.2552 -0.003,0.5104 -10e-5,0.7656 0,0.2867 0.003,0.5735 0.003,0.8602 0.003,0.3534 1.8e-4,0.7068 0.003,1.0603 0,0.3771 -0.003,0.7543 0.003,1.1314 0,0.4972 0.005,0.9943 0.003,1.4915 -0.004,0.4255 -0.006,0.8511 -1.6e-4,1.2767 0,0.539 0.01,1.078 0.003,1.617 -0.007,0.6478 -0.0249,1.2958 -0.0784,1.9415 -0.0685,0.8012 -0.15975,1.6011 -0.18769,2.4051 -0.0427,0.7032 -0.10753,1.4049 -0.17981,2.1055 -0.062,0.5208 -0.11705,1.0401 -0.10681,1.5655 0,0 1.01531,-0.5173 1.01531,-0.5173 z" />
  </g>
</svg>
