<?xml version="1.0" encoding="UTF-8" standalone="no"?>
<svg
   xmlns:dc="http://purl.org/dc/elements/1.1/"
   xmlns:cc="http://creativecommons.org/ns#"
   xmlns:rdf="http://www.w3.org/1999/02/22-rdf-syntax-ns#"
   xmlns:svg="http://www.w3.org/2000/svg"
   xmlns="http://www.w3.org/2000/svg"
   xmlns:sodipodi="http://sodipodi.sourceforge.net/DTD/sodipodi-0.dtd"
   xmlns:inkscape="http://www.inkscape.org/namespaces/inkscape"
   width="60.887257mm"
   height="73.165199mm"
   viewBox="0 0 60.887257 73.165199"
   version="1.1"
   id="svg2693"
   inkscape:version="1.0.2 (e86c870879, 2021-01-15, custom)"
   sodipodi:docname="mouse.svg">
  <defs
     id="defs2687" />
  <sodipodi:namedview
     id="base"
     pagecolor="#ffffff"
     bordercolor="#666666"
     borderopacity="1.0"
     inkscape:pageopacity="0.0"
     inkscape:pageshadow="2"
     inkscape:zoom="0.35"
     inkscape:cx="480.7768"
     inkscape:cy="572.55047"
     inkscape:document-units="mm"
     inkscape:current-layer="layer1"
     inkscape:document-rotation="0"
     showgrid="false"
     inkscape:window-width="1471"
     inkscape:window-height="967"
     inkscape:window-x="156"
     inkscape:window-y="154"
     inkscape:window-maximized="0" />
  <metadata
     id="metadata2690">
    <rdf:RDF>
      <cc:Work
         rdf:about="">
        <dc:format>image/svg+xml</dc:format>
        <dc:type
           rdf:resource="http://purl.org/dc/dcmitype/StillImage" />
        <dc:title></dc:title>
      </cc:Work>
    </rdf:RDF>
  </metadata>
  <g
     inkscape:label="Vrstva 1"
     inkscape:groupmode="layer"
     id="layer1"
     transform="translate(21.372196,3.320646)">
    <path
       style="fill:#ff8080;fill-opacity:1;stroke-width:0.264583"
       id="path2222"
       d="m 10.33653,54.6296 c 0.37259,0.1019 0.67556,0.2001 1.07177,0.2301 0.51867,0.039 1.21052,0 1.71014,-0.1377 1.49193,-0.4262 3.51512,-1.8441 4.48791,-2.4121 2.12797,-1.6164 3.9732,-3.6003 5.52442,-5.7743 0.90401,-1.267 1.46331,-2.3008 2.24248,-3.6418 1.29087,-2.4454 2.21303,-5.0491 2.87337,-7.7297 0.43548,-1.7678 0.5519,-2.5712 0.87773,-4.3685 0.64974,-4.093 0.83873,-8.237 0.99494,-12.3722 0.1025,-1.6912 0.0918,-3.4054 0.47128,-5.0646 0.0794,-0.1973 0.17833,-0.5047 0.33266,-0.6706 0.0749,-0.081 0.36364,-0.2468 0.26924,-0.1905 -0.66101,0.3944 -1.36898,0.724 -1.96972,1.2053 -0.15973,0.128 0.39958,-0.099 0.60391,-0.111 0.28848,-0.017 0.57769,0.017 0.86654,0.026 1.68698,0.279 3.52113,0.6163 4.8958,1.7169 0.20812,0.1667 0.38441,0.3695 0.57663,0.5543 0.14335,0.2087 0.30829,0.4041 0.43005,0.6261 0.91848,1.6747 0.56727,3.3948 0.21765,5.1627 -0.41881,1.6816 -0.9674,3.3269 -1.48701,4.979 0,0 2.25274,-1.0623 2.25274,-1.0623 v 0 c 0.53179,-1.6743 1.10125,-3.3383 1.54686,-5.0384 0.36925,-1.8477 0.74049,-3.6449 -0.22749,-5.3952 -0.13128,-0.2375 -0.30887,-0.4461 -0.46331,-0.6692 -0.2041,-0.1954 -0.39145,-0.4099 -0.61227,-0.5861 -1.40621,-1.1223 -3.26173,-1.4575 -4.96898,-1.8359 -0.11602,-0.012 -1.26177,-0.1699 -1.48612,-0.065 -0.94318,0.4395 -1.83089,0.9914 -2.71801,1.5352 -0.10178,0.062 -0.16729,0.1726 -0.2318,0.2731 -0.13965,0.2175 -0.20521,0.4932 -0.28022,0.7341 -0.3026,1.6526 -0.20971,3.3462 -0.27207,5.0176 -0.0623,4.11 -0.24275,8.2291 -0.91763,12.2909 -0.34208,1.8305 -0.44704,2.5603 -0.9068,4.3585 -0.67985,2.6588 -1.61222,5.2462 -2.90137,7.6734 -0.83267,1.4235 -1.28011,2.2668 -2.2519,3.6094 -1.58408,2.1885 -3.47165,4.1726 -5.67753,5.7392 0.34597,-0.184 0.94027,-0.1725 1.03788,-0.552 0.0914,-0.3554 -0.66029,0.3264 -1.00915,0.4403 -0.8509,0.278 -1.77482,0.2509 -2.61334,-0.039 0,0 -2.28928,1.5442 -2.28928,1.5442 z" />
    <ellipse
       style="fill:#b3b3b3;fill-opacity:1;stroke-width:0.264583"
       id="path2134"
       cx="5.6223412"
       cy="35.526749"
       rx="15.341271"
       ry="25.350513" />
    <path
       style="fill:#808080;fill-opacity:1;stroke-width:0.264583"
       id="path2148-5"
       d="m -3.92134,27.7427 c -0.41497,1.8976 -0.81097,3.799 -1.19151,5.7039 -0.50077,2.4596 -0.94849,4.9293 -1.37857,7.4021 -0.13025,0.7628 -0.27139,1.524 -0.38261,2.29 -0.0171,0.117 -0.0343,0.2341 -0.0455,0.3518 -0.003,0.034 0.0278,0.1227 0.001,0.1019 -0.52276,-0.4211 -1.01206,-0.8821 -1.51811,-1.3231 0.35396,-1.0394 0.66802,-2.0932 1.07119,-3.1153 0.14175,-0.2452 0.23648,-0.5258 0.53255,-0.6361 0.32854,-0.1225 0.56782,0.041 0.81318,0.2493 1.79023,1.5221 1.41041,1.0899 2.26606,2.2342 0.51293,0.739 0.88306,1.5589 1.18731,2.4018 0.15276,0.4231 0.12046,0.2653 0.15925,0.5621 -0.0764,0.037 -0.1626,0.1644 -0.22951,0.1118 -0.60573,-0.4762 -1.14531,-1.0343 -1.66622,-1.6021 -0.13474,-0.1468 -0.18928,-0.3507 -0.28566,-0.5251 -0.1166,-0.2111 -0.23056,-0.4237 -0.35328,-0.6313 -0.27136,-0.4589 -0.54733,-0.8707 -0.83862,-1.3166 -0.4563,-0.6206 -0.87369,-1.2989 -1.4424,-1.8283 -0.0983,-0.091 -0.41274,-0.3428 -0.31546,-0.2504 0.37594,0.3578 0.76825,0.6978 1.15236,1.0467 -0.10824,-0.02 -0.21227,-0.068 -0.32229,-0.073 -0.76088,-0.031 -1.53605,0.7329 -2.06275,1.1906 -0.62589,0.592 -1.18208,1.2595 -1.56516,2.0337 -0.18427,0.331 -0.1814,0.7249 -0.33315,1.0633 0,0 -1.53278,-1.2197 -1.53278,-1.2197 v 0 c 0.13138,-0.3489 0.16528,-0.7346 0.36196,-1.0613 0.42137,-0.7775 1.01434,-1.4447 1.65124,-2.0534 0.56229,-0.5029 1.35046,-1.271 2.14556,-1.339 0.12397,-0.011 0.24808,0.018 0.372,0.027 0.69465,0.5415 1.44977,1.0181 2.06572,1.6478 0.53352,0.5453 0.94304,1.2027 1.37887,1.8234 0.41864,0.6499 0.81886,1.305 1.20927,1.9721 0.10541,0.1801 0.51276,0.6181 0.32014,0.538 -1.41117,-0.5882 -1.07649,-1.4712 -1.30347,-0.696 -0.023,-0.2924 -0.20534,-0.7169 -0.31185,-0.9772 -0.26649,-0.6515 -0.59632,-1.2754 -1.01179,-1.845 -0.82255,-1.0323 -0.43929,-0.4575 0.5517,0.2007 0.11794,0.078 -0.31956,-0.4467 -0.62367,-0.4017 -0.26226,0.039 -0.38078,0.3517 -0.49077,0.5284 -0.42589,1.0181 -0.74414,2.0763 -1.00313,3.1487 -0.53172,-0.3591 -1.07885,-0.6965 -1.59511,-1.0775 -0.0221,-0.016 0.0261,-0.049 0.0333,-0.075 0.0298,-0.108 0.0537,-0.2176 0.0778,-0.3271 0.16452,-0.7444 0.29737,-1.4952 0.44511,-2.243 0.47768,-2.4595 0.94307,-4.9213 1.40699,-7.3834 0.37838,-1.9289 0.7853,-3.8544 1.05762,-5.8021 0,0 1.5422,1.174 1.5422,1.174 z" />
    <path
       style="fill:#808080;fill-opacity:1;stroke-width:0.264583"
       id="path2148"
       d="m 15.63059,27.4808 c 0.41497,1.8976 0.81097,3.799 1.19151,5.7039 0.50077,2.4596 0.94849,4.9293 1.37857,7.4021 0.13025,0.7628 0.27139,1.524 0.38261,2.29 0.0171,0.117 0.0343,0.2341 0.0455,0.3518 0.003,0.034 -0.0278,0.1227 -10e-4,0.1019 0.52276,-0.4211 1.01206,-0.8821 1.51811,-1.3231 -0.35396,-1.0394 -0.66802,-2.0932 -1.07119,-3.1153 -0.14175,-0.2452 -0.23648,-0.5258 -0.53255,-0.6361 -0.32854,-0.1225 -0.56782,0.041 -0.81318,0.2493 -1.79023,1.5221 -1.41041,1.0899 -2.26606,2.2342 -0.51293,0.739 -0.88306,1.5589 -1.18731,2.4018 -0.15276,0.4231 -0.12046,0.2653 -0.15925,0.5621 0.0764,0.037 0.1626,0.1644 0.22951,0.1118 0.60573,-0.4762 1.14531,-1.0343 1.66622,-1.6021 0.13474,-0.1468 0.18928,-0.3507 0.28566,-0.5251 0.1166,-0.2111 0.23056,-0.4237 0.35328,-0.6313 0.27136,-0.4589 0.54733,-0.8707 0.83862,-1.3166 0.4563,-0.6206 0.87369,-1.2989 1.4424,-1.8283 0.0983,-0.091 0.41274,-0.3428 0.31546,-0.2504 -0.37594,0.3578 -0.76825,0.6978 -1.15236,1.0467 0.10824,-0.02 0.21227,-0.068 0.32229,-0.073 0.76088,-0.031 1.53605,0.7329 2.06275,1.1906 0.62589,0.592 1.18208,1.2595 1.56516,2.0337 0.18427,0.331 0.1814,0.7249 0.33315,1.0633 0,0 1.53278,-1.2197 1.53278,-1.2197 v 0 c -0.13138,-0.3489 -0.16528,-0.7346 -0.36196,-1.0613 -0.42137,-0.7775 -1.01434,-1.4447 -1.65124,-2.0534 -0.56229,-0.5029 -1.35046,-1.271 -2.14556,-1.339 -0.12397,-0.011 -0.24808,0.018 -0.372,0.027 -0.69465,0.5415 -1.44977,1.0181 -2.06572,1.6478 -0.53352,0.5453 -0.94304,1.2027 -1.37887,1.8234 -0.41864,0.6499 -0.81886,1.305 -1.20927,1.9721 -0.10541,0.1801 -0.51276,0.6181 -0.32014,0.538 1.41117,-0.5882 1.07649,-1.4712 1.30347,-0.696 0.023,-0.2924 0.20534,-0.7169 0.31185,-0.9772 0.26649,-0.6515 0.59632,-1.2754 1.01179,-1.845 0.82255,-1.0323 0.43929,-0.4575 -0.5517,0.2007 -0.11794,0.078 0.31956,-0.4467 0.62367,-0.4017 0.26226,0.039 0.38078,0.3517 0.49077,0.5284 0.42589,1.0181 0.74414,2.0763 1.00313,3.1487 0.53172,-0.3591 1.07885,-0.6965 1.59511,-1.0775 0.0221,-0.016 -0.0261,-0.049 -0.0333,-0.075 -0.0298,-0.108 -0.0537,-0.2176 -0.0778,-0.3271 -0.16452,-0.7444 -0.29737,-1.4952 -0.44511,-2.243 -0.47768,-2.4595 -0.94307,-4.9213 -1.40699,-7.3834 -0.37838,-1.9289 -0.7853,-3.8544 -1.05762,-5.8021 0,0 -1.5422,1.174 -1.5422,1.174 z" />
    <ellipse
       style="fill:#ffffff;fill-opacity:1;stroke-width:0.225573"
       id="path2080-5"
       cx="12.093594"
       cy="7.4397111"
       rx="5.5478153"
       ry="4.6908765" />
    <ellipse
       style="fill:#ffffff;fill-opacity:1;stroke-width:0.216966"
       id="path2080"
       cx="-2.986057"
       cy="7.5650773"
       rx="5.8785443"
       ry="4.0955639" />
    <ellipse
       style="fill:#000000;fill-opacity:1;stroke-width:0.264583"
       id="path2042"
       cx="-2.9878271"
       cy="7.3542619"
       rx="2.1595719"
       ry="2.5452099" />
    <ellipse
       style="fill:#000000;fill-opacity:1;stroke-width:0.264583"
       id="path2042-8"
       cx="12.137539"
       cy="7.2771134"
       rx="2.1595719"
       ry="2.5452099" />
    <path
       style="fill:#ffaaaa;fill-opacity:1;stroke-width:0.0563982"
       d="m -9.26074,15.4188 c -0.0471,-0.026 -0.26525,-0.1525 -0.48487,-0.2808 -0.61837,-0.361 -1.54064,-0.7449 -2.88067,-1.1991 -1.30992,-0.4439 -1.93023,-0.7242 -3.10887,-1.4047 -0.60814,-0.3512 -0.84461,-0.5285 -1.31438,-0.9858 -0.89005,-0.8664 -1.20667,-1.3974 -1.64572,-2.7601 -0.69559,-2.159 -0.81254,-2.8261 -0.75749,-4.3215 0.0527,-1.434 0.2766,-2.3612 0.81694,-3.3838 0.54249,-1.0267 1.08855,-1.5668 1.80769,-1.7878 0.36848,-0.1133 0.51728,-0.1251 1.5208,-0.1205 1.70784,0.01 2.61253,0.1579 5.01979,0.8328 0.8314,0.2331 1.63301,0.4381 1.78134,0.4557 0.42751,0.028 0.1816,0.018 0.55429,0.094 -0.19516,0.091 0.0708,-0.1607 -0.15849,0.6972 -0.12802,0.4792 -0.28521,1.1598 -0.34931,1.5125 -0.19571,1.0769 -0.68567,4.5576 -0.74567,5.2972 -0.0312,0.3834 -0.0828,0.9354 -0.11507,1.2267 -0.074,0.6694 -0.16574,2.7851 -0.16729,3.8574 0,0.9141 0.0666,1.5085 0.22671,1.9828 0.0591,0.1753 0.10267,0.3226 0.0967,0.3274 -0.006,0 -0.0493,-0.012 -0.0964,-0.039 z"
       id="path2114"
       sodipodi:nodetypes="sssssssssssccsssscsss" />
    <path
       style="fill:#ffaaaa;fill-opacity:1;stroke-width:0.0564663"
       d="m 19.23642,13.9693 c -0.0944,-0.025 -0.31602,-0.1048 -0.4925,-0.1776 l -0.32087,-0.1327 0.22566,-0.3044 c 0.28218,-0.3804 0.67847,-1.1715 0.87387,-1.7442 0.082,-0.2402 0.23006,-0.8798 0.32916,-1.4213 0.16747,-0.915 0.1804,-1.0772 0.18286,-2.2945 0.003,-1.4039 0.0142,-1.3114 -0.48349,-3.9636 -0.19782,-1.0543 -0.99468,-3.3347 -1.34608,-3.852 -0.0833,-0.1226 -0.12982,-0.2407 -0.10346,-0.2624 0.0264,-0.021 0.22815,-0.1109 0.44839,-0.198 0.22025,-0.087 1.03111,-0.4672 1.80194,-0.8446 1.57805,-0.7726 1.69203,-0.8073 3.08906,-0.9427 1.08078,-0.1048 1.31975,-0.09 1.84528,0.115 0.54294,0.2118 0.78739,0.4026 1.6575,1.2938 0.64656,0.6623 0.81274,0.8689 1.00844,1.2541 0.44856,0.8828 1.00811,2.952 1.29687,4.7956 0.0723,0.4609 0.0884,0.868 0.0698,1.7558 -0.022,1.0549 -0.0376,1.1994 -0.17822,1.6573 -0.0848,0.2758 -0.35812,0.904 -0.60743,1.3959 -0.5067,0.9995 -0.64201,1.1632 -1.55623,1.8826 -0.42725,0.336 -0.66884,0.4797 -1.05586,0.6277 -1.04535,0.3999 -3.7577,1.1355 -4.9067,1.3307 -0.53129,0.09 -1.48633,0.1061 -1.77807,0.029 z"
       id="path2116" />
    <path
       style="fill:#999999;fill-opacity:1;stroke-width:0.0545375"
       d="M 2.3389949,29.883055 C 2.2285049,29.582224 2.1149987,29.258638 2.0867941,29.16397 1.9943751,28.853746 1.435681,26.772031 1.2429056,26.019556 1.0417693,25.234326 0.80795702,24.707858 0.44365223,24.219807 0.32051515,24.05484 -0.19947047,23.490378 -0.711889,22.965444 -1.2243075,22.440537 -2.100925,21.507934 -2.6599102,20.893042 -3.7923798,19.647305 -4.170099,19.290038 -5.5138648,18.193552 -6.0237962,17.777468 -6.6618654,17.242031 -6.9318462,17.00372 -7.2018006,16.765384 -7.5640416,16.4704 -7.736841,16.348189 l -0.1300692,-0.266489 -0.033523,-0.07895 0.014288,-0.125889 v 0 c -0.031538,-0.0935 -2.4752298,-0.269081 -3.8721508,-0.554646 -1.648751,-0.337079 -2.726108,-0.67781 -3.857149,-1.219888 -3.020456,-1.447641 -5.006842,-3.965945 -5.635201,-7.1442525 -0.147558,-0.7463367 -0.162904,-2.0141406 -0.03432,-2.8359364 0.217276,-1.3888509 0.808249,-3.16200896 1.440498,-4.32215395 0.490537,-0.90013895 0.84709,-1.34149035 1.326779,-1.64237455 0.233231,-0.1462881 0.391398,-0.2850621 0.410157,-0.3598598 0.03371,-0.134276 0.33319,-0.301916 0.53938,-0.301916 0.07205,0 0.384122,-0.061304 0.693499,-0.1362605 0.389546,-0.094377 0.71591,-0.1362868 1.061535,-0.1363397 1.781413,0 5.456211,1.2314766 7.2260092,2.42204868 0.6786827,0.45656499 1.0032471,0.62695666 0.9060921,0.68360395 -0.045006,0.0261938 -0.2324894,0.20992041 -0.3358092,0.28694062 -0.1221846,0.091096 -0.5061743,-0.12043833 -0.6370637,-0.12043833 -0.1106488,0 -0.7868973,-0.16105187 -1.5028074,-0.35792833 -2.662872,-0.73228728 -3.191536,-0.82904541 -4.792027,-0.87706728 -1.222322,-0.0366448 -1.55403,0.002646 -2.074651,0.24635354 -1.014889,0.47492707 -1.944211,2.23109895 -2.148073,4.05929035 -0.08348,0.7487179 -0.07239,2.1041783 0.02196,2.6830602 0.156104,0.9577652 0.76319,2.9631745 1.106196,3.6540016 0.275405,0.5546994 0.592746,0.9743014 1.13919,1.5062734 0.537475,0.523187 1.114081,0.919982 2.042372,1.405387 0.7366,0.385154 1.205521,0.580998 2.558071,1.068334 1.038516,0.374174 1.213247,0.256355 1.858909,0.485431 0.196903,0.06988 0.7514173,-0.05993 0.7656784,-0.07419 0.014288,-0.01429 0.0254,-0.201639 -0.039317,-0.437832 -0.2896924,-1.055952 0.045138,-3.619606 0.4460345,-6.87115 0.3650986,-2.9610843 0.7264136,-5.0434345 1.0664825,-6.14632365 0.1133211,-0.36745333 0.3218392,-0.57954333 0.5191125,-0.52794958 0.127,0.0332052 2.0366567,-1.09021561 2.0366567,-1.19813915 0,-0.15359062 0.5200914,-0.57806162 0.845476,-0.69003332 1.9849571,-0.6830219 6.6097678,-1.3266737 10.9618726,-1.5256404 1.5658041,-0.07157 7.3267088,-0.071305 7.9624758,0 0.85778,0.096705 0.884873,0.1163637 1.562894,1.1321256 0.489532,0.733425 1.02579,1.42684499 1.248013,1.61385249 l 0.170683,0.14361583 0.161634,-0.11509375 c 0.08893,-0.0633148 0.643678,-0.30874229 1.232826,-0.54538562 0.589148,-0.23666975 1.159483,-0.48873835 1.267407,-0.56014935 0.107897,-0.071438 0.281173,-0.1471877 0.384995,-0.1683544 0.103849,-0.021167 0.376423,-0.1458119 0.605764,-0.2769658 0.881089,-0.5039254 2.788814,-1.2082727 3.700621,-1.3662554 1.055687,-0.1829329 2.253324,-0.027993 3.207835,0.4150519 0.786712,0.3651514 1.741937,1.2028222 2.155666,1.89031555 0.808805,1.34408332 1.185783,3.14877975 1.072436,5.13437185 -0.123693,2.1668051 -0.69014,4.6502372 -1.503548,6.5916972 -0.6164,1.471242 -1.285399,2.256604 -2.051103,3.063504 -0.414867,0.437224 -0.845079,0.716121 -1.267539,0.785336 -0.854472,0.139991 -1.730005,0.488659 -2.877741,0.252228 -0.653336,-0.134594 -2.791037,-0.259848 -3.276573,-0.462227 -0.187299,-0.07808 -0.575469,-0.264134 -0.862595,-0.413465 l -0.522049,-0.271515 -0.942129,0.614283 c -0.831823,0.542369 -0.782187,0.547978 -0.847275,0.68363 -0.02797,0.05826 -0.05125,0.111575 -0.06382,0.144542 0,0 0.01746,0.178144 -0.265854,0.536416 -0.397166,0.502047 -0.613674,0.691066 -0.909611,1.221211 -0.540041,0.967423 -1.210892,2.335477 -2.461498,5.019649 -1.577022,3.384735 -1.538684,3.296999 -2.548255,5.831416 l -0.9124152,2.290551 -2.3378054,0.03172 c -1.8676937,0.0254 -2.5626218,0.05588 -3.4558287,0.15187 C 3.1699718,30.331312 2.638318,30.395209 2.603446,30.407221 2.5654782,30.42045 2.4594068,30.20963 2.3391007,29.882129 Z M 22.022275,13.617795 c 1.009914,-0.242173 2.90187,-0.785231 3.533193,-1.014122 0.260588,-0.09451 0.621665,-0.26207 0.802375,-0.372401 0.449395,-0.274346 1.218883,-0.937683 1.451372,-1.251161 0.263446,-0.355204 0.855001,-1.5672334 1.071007,-2.1943753 l 0.178461,-0.518107 0.02064,-1.2879123 C 29.098635,5.7842495 29.08964,5.6316114 28.95666,4.8527575 28.690648,3.2952083 28.190718,1.4489723 27.824852,0.67305522 27.625012,0.24919273 27.412366,-0.02113206 26.668067,-0.79776351 25.988273,-1.5070585 25.574465,-1.803921 25.038657,-1.9666397 c -0.336762,-0.1023144 -0.462253,-0.1121834 -1.034653,-0.081386 -0.889741,0.047837 -1.734767,0.1801284 -2.134235,0.3341688 -0.34835,0.1343025 -3.408521,1.59599308 -3.486679,1.66541974 -0.02461,0.02196042 0.0522,0.23320375 0.170947,0.4694502 0.118772,0.23622 0.327078,0.73628246 0.462968,1.11122356 0.486357,1.3421783 0.655902,2.0415514 1.084157,4.4720668 0.04805,0.2726267 0.07178,0.900086 0.07123,1.8815579 0,1.585542 -0.05511,2.0498064 -0.385101,3.2995127 -0.153829,0.582586 0.0077,0.176213 -0.328031,0.667914 -0.249925,0.366131 -0.557953,1.489578 -0.107818,1.657668 0.149966,0.05601 0.543349,0.222356 0.588328,0.241088 0.04501,0.01879 -0.04059,0.09451 0.424365,0.08234 0.735304,-0.01905 0.951124,-0.04715 1.658117,-0.216694 z M -1.6689663,11.026492 C 0.53739411,10.460046 1.8611045,8.5332968 1.3047651,6.698041 0.75541077,4.8857775 -1.4342809,3.6880616 -3.6595854,3.9825958 c -1.0868554,0.143854 -2.0168923,0.5824273 -2.7259227,1.2854517 -0.6688402,0.6632045 -1.0108671,1.438857 -1.0090944,2.2884076 0.0037,1.7112192 1.4167115,3.1643899 3.4536856,3.5516079 0.5720027,0.108717 1.6866129,0.06871 2.2719506,-0.08157 z m 14.4538433,-0.0079 c 1.046083,-0.130386 2.001917,-0.583088 2.699517,-1.2785456 0.694505,-0.6923881 1.007587,-1.4041437 1.007587,-2.2905772 0,-0.8749242 -0.284983,-1.556094 -0.935514,-2.2360467 C 14.625795,4.2406439 13.346138,3.7689448 11.829043,3.8394033 10.718005,3.8910235 9.8022292,4.219001 9.0108605,4.8487093 8.1385028,5.5428172 7.6892138,6.4290656 7.6923359,7.4494312 c 0.00291,0.923581 0.2808817,1.5446375 1.0269008,2.2938052 0.4288896,0.4306626 0.5654675,0.5300396 1.0646569,0.7746466 0.9918434,0.485987 1.9013754,0.637752 3.0009834,0.500671 z"
       id="path2118"
       sodipodi:nodetypes="cssssssssccccssssssssscsssssssssssssssssssssscsscssssssssssssssscssssssscsssccssssscssssssssssscssssssssssssssssssssssss" />
    <path
       style="fill:#000000;fill-opacity:1;stroke-width:0.264583"
       id="path2122"
       d="m 4.32843,31.5146 c -0.3556,0 -0.71004,-0.038 -1.06254,-0.079 -0.43066,-0.05 -0.46643,-0.057 -0.89792,-0.1149 -0.83529,-0.1181 -1.66859,-0.2502 -2.50404,-0.3671 -0.75972,-0.1102 -1.52244,-0.1995 -2.28007,-0.3239 -0.16973,-0.028 -0.33885,-0.059 -0.50827,-0.089 -0.96364,-0.1627 -1.9024,-0.4373 -2.84096,-0.7041 -0.72546,-0.2046 -1.45058,-0.4104 -2.17503,-0.6185 -0.36595,-0.1082 -0.73515,-0.2083 -1.09316,-0.3412 -0.13189,-0.054 -0.26955,-0.092 -0.39991,-0.1502 -0.042,-0.017 -0.0812,-0.039 -0.1206,-0.061 0,0 -0.40958,0.2674 -0.40958,0.2674 v 0 c 0.0411,0.022 0.0809,0.046 0.12467,0.063 0.13232,0.062 0.27377,0.095 0.40942,0.1485 0.36962,0.1281 0.75248,0.2129 1.12797,0.3214 0.72882,0.2016 1.45608,0.4088 2.1844,0.6123 0.94621,0.2579 1.89344,0.5205 2.85896,0.6967 0.92056,0.1614 1.84523,0.2973 2.77079,0.4269 0.83881,0.1141 1.67606,0.2394 2.51394,0.3603 0.63431,0.087 1.26818,0.1842 1.90606,0.2402 0,0 0.39587,-0.2876 0.39587,-0.2876 z" />
    <path
       style="fill:#000000;fill-opacity:1;stroke-width:0.264583"
       id="path2124"
       d="m 4.71684,32.6064 c -0.46662,0.014 -0.93345,0.01 -1.40012,0.017 -0.80897,0.014 -1.61219,0.1216 -2.41322,0.2267 -0.87775,0.1146 -1.75175,0.2546 -2.62366,0.4067 -0.45847,0.082 -0.91522,0.1736 -1.35826,0.3184 -0.26583,0.087 -0.5325,0.1715 -0.80862,0.2181 -0.35825,0.044 -0.72009,0.043 -1.08043,0.044 -0.31236,0.01 -0.62523,0.011 -0.93683,0.036 -0.24638,0.022 -0.49012,0.065 -0.73417,0.1035 -0.1629,0.026 -0.32724,0.042 -0.49199,0.049 -0.16934,0.01 -0.33883,0.01 -0.50824,0 0,0 -0.38976,0.2831 -0.38976,0.2831 v 0 c 0.16886,0 0.33772,0 0.50655,0 0.16846,-0.01 0.33631,-0.023 0.50281,-0.05 0.24434,-0.039 0.48829,-0.083 0.73467,-0.1079 0.31229,-0.031 0.62645,-0.033 0.93993,-0.043 0.35991,0 0.72075,0 1.07948,-0.035 0.0453,-0.01 0.0909,-0.011 0.13602,-0.019 0.23347,-0.041 0.45627,-0.1308 0.68302,-0.197 0.1425,-0.049 0.20907,-0.074 0.35639,-0.1146 0.33563,-0.093 0.67921,-0.1551 1.01995,-0.2258 0.0809,-0.015 0.67251,-0.1259 0.72882,-0.1357 0.63526,-0.1111 1.2742,-0.202 1.91333,-0.2875 0.79219,-0.1002 1.58708,-0.2009 2.38646,-0.2131 0.45435,0 0.9089,0 1.36311,0.01 0,0 0.39476,-0.2868 0.39476,-0.2868 z" />
    <path
       style="fill:#000000;fill-opacity:1;stroke-width:0.264583"
       id="path2126"
       d="m 5.55308,33.4363 c -0.61563,0.169 -1.22992,0.3429 -1.84375,0.5184 -0.83862,0.2494 -1.67976,0.4902 -2.51595,0.7478 -0.33287,0.1087 -0.66752,0.2131 -0.98671,0.3587 -0.32051,0.1462 -0.65511,0.3467 -0.9426,0.5285 -0.0963,0.061 -0.18357,0.1351 -0.27533,0.2026 -0.46347,0.392 -0.87019,0.8461 -1.23666,1.3289 -0.0751,0.099 -0.14658,0.2005 -0.21984,0.3007 -0.18079,0.264 -0.34502,0.5385 -0.50893,0.813 -0.0897,0.1503 -0.11581,0.214 -0.23196,0.3406 -0.0433,0.047 -0.0934,0.088 -0.14015,0.1315 -0.32327,0.2479 -0.68207,0.4435 -1.02963,0.6545 0.12214,-0.072 -0.35052,0.2062 -0.26267,0.155 0.10247,-0.06 0.20717,-0.1159 0.30691,-0.1801 0.0283,-0.018 -0.0609,0.029 -0.0919,0.042 -0.0552,0.023 -0.13224,0.051 -0.18867,0.071 -0.15722,0.062 -0.31142,0.13 -0.46419,0.2017 0,0 -0.37528,0.299 -0.37528,0.299 v 0 c 0.15213,-0.073 0.30572,-0.1422 0.46199,-0.2058 0.0863,-0.031 0.20822,-0.066 0.28702,-0.1087 0.25709,-0.1404 0.50818,-0.2904 0.75906,-0.4413 0.34755,-0.2118 0.70866,-0.4061 1.02536,-0.6639 0.0458,-0.046 0.0953,-0.089 0.13748,-0.1379 0.10745,-0.1255 0.13531,-0.1955 0.21791,-0.3404 0.15558,-0.2728 0.31459,-0.5441 0.49456,-0.8018 0.0732,-0.1 0.14446,-0.2007 0.21961,-0.2988 0.36838,-0.4813 0.77851,-0.9341 1.24663,-1.3203 0.0931,-0.067 0.19177,-0.1264 0.2793,-0.2003 0.028,-0.024 -0.13129,0.065 -0.0988,0.048 0.0948,-0.049 0.18909,-0.1 0.2859,-0.1452 0.32094,-0.1504 0.65786,-0.2586 0.99365,-0.3698 0.83732,-0.2618 1.68045,-0.5042 2.52161,-0.7533 0.59285,-0.1686 1.18636,-0.3357 1.7862,-0.4778 0,0 0.38989,-0.2965 0.38989,-0.2965 z" />
    <path
       style="fill:#000000;fill-opacity:1;stroke-width:0.264583"
       id="path2128"
       d="m 8.27709,31.6995 c 0.30178,-0.075 0.60634,-0.1371 0.91167,-0.1956 0.38415,-0.073 0.7706,-0.1264 1.16057,-0.1534 0.37767,-0.022 0.75631,-0.019 1.13406,-0.039 0.30321,-0.016 0.37637,-0.027 0.67775,-0.058 0.36203,-0.05 0.72737,-0.093 1.08083,-0.1896 0.15142,-0.041 0.2499,-0.077 0.39759,-0.1279 0.38745,-0.1601 0.77496,-0.3187 1.17038,-0.4583 0.45342,-0.1527 0.89723,-0.3296 1.3334,-0.5258 0.35311,-0.1728 0.69953,-0.3588 1.0524,-0.5321 0.4218,-0.2096 0.86379,-0.3737 1.3112,-0.519 0.24455,-0.084 0.49982,-0.1237 0.75096,-0.1803 0,0 0.38392,-0.2929 0.38392,-0.2929 v 0 c -0.25781,0.065 -0.52129,0.1071 -0.77373,0.1931 -0.44656,0.1448 -0.88931,0.3049 -1.31169,0.5112 -0.35439,0.1717 -0.70168,0.3574 -1.05336,0.5344 -0.28713,0.1317 -0.57613,0.2586 -0.87278,0.3676 -0.0779,0.029 -0.15682,0.054 -0.23503,0.082 -0.0751,0.027 -0.14989,0.054 -0.22485,0.081 -0.39497,0.1369 -0.78324,0.2904 -1.16715,0.4559 -0.14005,0.049 -0.25601,0.092 -0.39907,0.1339 -0.35608,0.1038 -0.72512,0.153 -1.09133,0.2058 -0.2935,0.031 -0.37925,0.044 -0.67427,0.059 -0.37152,0.019 -0.74377,0.011 -1.11545,0.024 -0.39354,0.024 -0.78245,0.079 -1.16972,0.1533 -0.29621,0.054 -0.59206,0.1106 -0.88639,0.1745 0,0 -0.38991,0.2965 -0.38991,0.2965 z" />
    <path
       style="fill:#000000;fill-opacity:1;stroke-width:0.264583"
       id="path2130"
       d="m 7.67431,33.0263 c 0.32182,-0.01 0.64379,-0.01 0.96571,-0.01 0.4555,0 0.91101,0 1.36649,0 0.5797,0 1.1594,0 1.73908,0 0.38089,0 0.76179,0 1.14266,0 0.39592,0 0.79181,0 1.18774,0 0.22413,0 0.43791,-0.067 0.65122,-0.1275 0.23,-0.065 0.161,-0.046 0.39798,-0.1068 0.37026,-0.084 0.74499,-0.1476 1.12035,-0.2042 0.31539,-0.045 0.63442,-0.052 0.95248,-0.056 0.22407,0 0.44852,-0.01 0.67127,0.018 0.0257,0 0.0516,0.01 0.0772,0.011 0.0684,0.012 0.13443,0.032 0.20378,0.039 0.097,0.011 0.18333,0.011 0.28197,0.015 0.25675,-0.01 0.12948,0 0.38182,-0.022 0,0 0.37282,-0.2759 0.37282,-0.2759 v 0 c -0.249,0.024 -0.12427,0.016 -0.37423,0.024 -0.0983,-0.01 -0.17227,-0.01 -0.2676,-0.019 -0.0696,-0.01 -0.13541,-0.027 -0.2041,-0.04 -0.0262,0 -0.0525,-0.01 -0.0787,-0.011 -0.0539,-0.01 -0.13269,-0.018 -0.18605,-0.021 -0.16598,-0.01 -0.33293,0.01 -0.49895,0 -0.31907,0 -0.63942,0.01 -0.95618,0.051 -0.37867,0.058 -0.75589,0.1266 -1.13062,0.2062 -0.20997,0.052 -0.19108,0.046 -0.39508,0.1029 -0.21029,0.058 -0.41968,0.1296 -0.64016,0.1354 -0.39719,0 -0.79441,0 -1.1916,0 -0.38338,0 -0.76676,0 -1.15012,0 -0.58168,0 -1.16337,0.01 -1.74508,0 -0.45223,0 -0.90445,-0.01 -1.35671,0 -0.3135,0 -0.62703,-2e-4 -0.94043,-0.01 0,0 -0.39696,0.2884 -0.39696,0.2884 z" />
    <path
       style="fill:#000000;fill-opacity:1;stroke-width:0.264583"
       id="path2132"
       d="m 7.33935,33.7872 c 0.27255,-0.01 0.54531,-0.01 0.81796,-0.01 0.36933,-0.01 0.73107,0.065 1.08614,0.1595 0.39701,0.1167 0.77719,0.2812 1.15644,0.445 0.32586,0.1458 0.64276,0.3096 0.95705,0.4786 0.79214,0.4491 1.6713,0.7142 2.5335,0.9927 0.73173,0.2181 1.46401,0.4369 2.20419,0.6251 0.26135,0.052 0.51615,0.1271 0.77102,0.2038 0.36626,0.095 0.70977,0.2595 1.05632,0.4083 0.35632,0.1496 0.71001,0.3061 1.0695,0.448 0,0 0.38904,-0.2619 0.38904,-0.2619 v 0 c -0.36806,-0.1296 -0.72919,-0.2784 -1.08741,-0.4328 -0.38486,-0.1743 -0.14155,-0.063 -0.49429,-0.2265 -0.17455,-0.081 -0.35097,-0.1616 -0.53975,-0.2038 -0.15216,-0.045 -0.30427,-0.1 -0.45982,-0.1319 -0.0475,-0.01 -0.0956,-0.016 -0.14325,-0.025 -0.0626,-0.012 -0.12491,-0.025 -0.18738,-0.037 -0.29207,-0.064 -0.5807,-0.1374 -0.8701,-0.2129 -0.46099,-0.1202 -0.92351,-0.2355 -1.3784,-0.3777 -0.85008,-0.2732 -1.71337,-0.5459 -2.47724,-1.0201 -0.31126,-0.1777 -0.62955,-0.3414 -0.95928,-0.4828 -0.38169,-0.1621 -0.7616,-0.3311 -1.15943,-0.4509 -0.35528,-0.096 -0.7167,-0.1757 -1.08701,-0.1737 -0.26676,1e-4 -0.53364,0 -0.80029,-0.01 0,0 -0.39751,0.2888 -0.39751,0.2888 z" />
    <path
       style="fill:#ff8080;fill-opacity:1;stroke-width:0.056096"
       d="M 5.28772,34.9945 C 4.66697,34.3528 4.19896,33.677 3.55788,32.4965 3.1981,31.834 2.47343,30.2832 2.50652,30.2466 c 0.0285,-0.032 1.9959,-0.2409 2.80342,-0.2982 0.44259,-0.031 1.59462,-0.05 2.56004,-0.041 l 1.75531,0.016 -0.39813,0.9355 C 8.70193,32.0931 8.41111,32.6901 8.04502,33.2858 7.56834,34.0615 7.3016,34.3449 5.9598,35.5011 5.8679,35.5801 5.81698,35.5421 5.28772,34.9947 Z"
       id="path2078" />
    <path
       style="fill:#808080;fill-opacity:1;stroke-width:0.264583"
       id="path2148-5-3"
       d="m -2.75499,53.4976 c -0.41497,1.8976 -0.81097,3.799 -1.19151,5.7039 -0.50077,2.4596 -0.94849,4.9293 -1.37857,7.4021 -0.13025,0.7628 -0.27139,1.524 -0.38261,2.29 -0.0171,0.117 -0.0343,0.2341 -0.0455,0.3518 -0.003,0.034 0.0278,0.1227 0.001,0.1019 -0.52276,-0.4211 -1.01206,-0.8821 -1.51811,-1.3231 0.35396,-1.0394 0.66802,-2.0932 1.07119,-3.1153 0.14175,-0.2452 0.23648,-0.5258 0.53255,-0.6361 0.32854,-0.1225 0.56782,0.041 0.81318,0.2493 1.79023,1.5221 1.41041,1.0899 2.26606,2.2342 0.51293,0.739 0.88306,1.5589 1.18731,2.4018 0.15276,0.4231 0.12046,0.2653 0.15925,0.5621 -0.0764,0.037 -0.1626,0.1644 -0.22951,0.1118 -0.60573,-0.4762 -1.14531,-1.0343 -1.66622,-1.6021 -0.13474,-0.1468 -0.18928,-0.3507 -0.28566,-0.5251 -0.1166,-0.2111 -0.23056,-0.4237 -0.35328,-0.6313 -0.27136,-0.4589 -0.54733,-0.8707 -0.83862,-1.3166 -0.4563,-0.6206 -0.87369,-1.2989 -1.4424,-1.8283 -0.0983,-0.091 -0.41274,-0.3428 -0.31546,-0.2504 0.37594,0.3578 0.76825,0.6978 1.15236,1.0467 -0.10824,-0.02 -0.21227,-0.068 -0.32229,-0.073 -0.76088,-0.031 -1.53605,0.7329 -2.06275,1.1906 -0.62589,0.592 -1.18208,1.2595 -1.56516,2.0337 -0.18427,0.331 -0.1814,0.7249 -0.33315,1.0633 0,0 -1.53278,-1.2197 -1.53278,-1.2197 v 0 c 0.13138,-0.3489 0.16528,-0.7346 0.36196,-1.0613 0.42137,-0.7775 1.01434,-1.4447 1.65124,-2.0534 0.56229,-0.5029 1.35046,-1.271 2.14556,-1.339 0.12397,-0.011 0.24808,0.018 0.372,0.027 0.69465,0.5415 1.44977,1.0181 2.06572,1.6478 0.53352,0.5453 0.94304,1.2027 1.37887,1.8234 0.41864,0.6499 0.81886,1.305 1.20927,1.9721 0.10541,0.1801 0.51276,0.6181 0.32014,0.538 -1.41117,-0.5882 -1.07649,-1.4712 -1.30347,-0.696 -0.023,-0.2924 -0.20534,-0.7169 -0.31185,-0.9772 -0.26649,-0.6515 -0.59632,-1.2754 -1.01179,-1.845 -0.82255,-1.0323 -0.43929,-0.4575 0.5517,0.2007 0.11794,0.078 -0.31956,-0.4467 -0.62367,-0.4017 -0.26226,0.039 -0.38078,0.3517 -0.49077,0.5284 -0.42589,1.0181 -0.74414,2.0763 -1.00313,3.1487 -0.53172,-0.3591 -1.07885,-0.6965 -1.59511,-1.0775 -0.0221,-0.016 0.0261,-0.049 0.0333,-0.075 0.0298,-0.108 0.0537,-0.2176 0.0778,-0.3271 0.16452,-0.7444 0.29737,-1.4952 0.44511,-2.243 0.47768,-2.4595 0.94307,-4.9213 1.40699,-7.3834 0.37838,-1.9289 0.7853,-3.8544 1.05762,-5.8021 0,0 1.5422,1.174 1.5422,1.174 z" />
    <path
       style="fill:#808080;fill-opacity:1;stroke-width:0.264583"
       id="path2148-56"
       d="m 14.68026,53.2357 c 0.41497,1.8976 0.81097,3.799 1.19151,5.7039 0.50077,2.4596 0.94849,4.9293 1.37857,7.4021 0.13025,0.7628 0.27139,1.524 0.38261,2.29 0.0171,0.117 0.0343,0.2341 0.0455,0.3518 0.003,0.034 -0.0278,0.1227 -0.001,0.1019 0.52276,-0.4211 1.01206,-0.8821 1.51811,-1.3231 -0.35396,-1.0394 -0.66802,-2.0932 -1.07119,-3.1153 -0.14175,-0.2452 -0.23648,-0.5258 -0.53255,-0.6361 -0.32854,-0.1225 -0.56782,0.041 -0.81318,0.2493 -1.79023,1.5221 -1.41041,1.0899 -2.26606,2.2342 -0.51293,0.739 -0.88306,1.5589 -1.18731,2.4018 -0.15276,0.4231 -0.12046,0.2653 -0.15925,0.5621 0.0764,0.037 0.1626,0.1644 0.22951,0.1118 0.60573,-0.4762 1.14531,-1.0343 1.66622,-1.6021 0.13474,-0.1468 0.18928,-0.3507 0.28566,-0.5251 0.1166,-0.2111 0.23056,-0.4237 0.35328,-0.6313 0.27136,-0.4589 0.54733,-0.8707 0.83862,-1.3166 0.4563,-0.6206 0.87369,-1.2989 1.4424,-1.8283 0.0983,-0.091 0.41274,-0.3428 0.31546,-0.2504 -0.37594,0.3578 -0.76825,0.6978 -1.15236,1.0467 0.10824,-0.02 0.21227,-0.068 0.32229,-0.073 0.76088,-0.031 1.53605,0.7329 2.06275,1.1906 0.62589,0.592 1.18208,1.2595 1.56516,2.0337 0.18427,0.331 0.1814,0.7249 0.33315,1.0633 0,0 1.53278,-1.2197 1.53278,-1.2197 v 0 c -0.13138,-0.3489 -0.16528,-0.7346 -0.36196,-1.0613 -0.42137,-0.7775 -1.01434,-1.4447 -1.65124,-2.0534 -0.56229,-0.5029 -1.35046,-1.271 -2.14556,-1.339 -0.12397,-0.011 -0.24808,0.018 -0.372,0.027 -0.69465,0.5415 -1.44977,1.0181 -2.06572,1.6478 -0.53352,0.5453 -0.94304,1.2027 -1.37887,1.8234 -0.41864,0.6499 -0.81886,1.305 -1.20927,1.9721 -0.10541,0.1801 -0.51276,0.6181 -0.32014,0.538 1.41117,-0.5882 1.07649,-1.4712 1.30347,-0.696 0.023,-0.2924 0.20534,-0.7169 0.31185,-0.9772 0.26649,-0.6515 0.59632,-1.2754 1.01179,-1.845 0.82255,-1.0323 0.43929,-0.4575 -0.5517,0.2007 -0.11794,0.078 0.31956,-0.4467 0.62367,-0.4017 0.26226,0.039 0.38078,0.3517 0.49077,0.5284 0.42589,1.0181 0.74414,2.0763 1.00313,3.1487 0.53172,-0.3591 1.07885,-0.6965 1.59511,-1.0775 0.0221,-0.016 -0.0261,-0.049 -0.0333,-0.075 -0.0298,-0.108 -0.0537,-0.2176 -0.0778,-0.3271 -0.16452,-0.7444 -0.29737,-1.4952 -0.44511,-2.243 -0.47768,-2.4595 -0.94307,-4.9213 -1.40699,-7.3834 -0.37838,-1.9289 -0.7853,-3.8544 -1.05762,-5.8021 0,0 -1.5422,1.174 -1.5422,1.174 z" />
  </g>
</svg>
